<?xml version="1.0" encoding="UTF-8"?>
<svg id="Layer_5" data-name="Layer 5" xmlns="http://www.w3.org/2000/svg" viewBox="0 0 841.78 1093.33">
  <defs>
    <style>
      .cls-1 {
        fill: #ff4a95;
      }

      .cls-2 {
        fill: #ff171d;
      }

      .cls-3 {
        fill: #ffc75e;
      }

      .cls-4 {
        fill: #d00023;
      }

      .cls-5 {
        fill: #d00000;
      }

      .cls-6 {
        fill: #33f8ff;
      }

      .cls-7 {
        fill: #5c98ff;
      }

      .cls-8 {
        fill: #5cd3ff;
        stroke: #fff;
        stroke-width: 1px;
      }

      .cls-8, .cls-9, .cls-10 {
        stroke-miterlimit: 10;
      }

      .cls-9 {
        fill: #fff1d0;
        stroke-width: 1px;
      }

      .cls-9, .cls-10 {
        stroke: #8b0000;
      }

      .cls-10 {
        fill: #ffa2af;
      }

      .cls-11 {
        fill: #7dfbff;
        opacity: .67;
      }
    </style>
  </defs>
  <g>
    <path class="cls-10" d="m779.02,1034.83c-17.78-.05-35.56-.09-53.34-.12-1.37,0-2.74,0-4.13,0-40.01-.03-79.01-2.03-118.01-13.03-8-3-16-2-24,1-25,10-48,17-75.44,11.82-1.36,0-2.73,0-4.1,0-31.46,0-62.92,0-94.37.02-1.37,0-2.74,0-4.1,0-19.99,1.16-37.99-6.84-56.99-6.84-29,2-58,17-87,9-59-18-117-6-176-2,0-6,0-12-.06-18.02,0-1.21,0-2.42,0-3.62,0-19.33,0-38.65,0-57.98,0-1.33,0-2.66,0-3.99.21-1.3.41-2.61.6-3.91,2.46-21.47,19.46-38.47,16.46-60.47-3-17-12-32-10.84-48.69-.02-1.3-.03-2.59-.05-3.89-.27-18.15-.79-36.29-1.11-54.42-1-9,1-17,2.34-25.85.25-1.28.5-2.55.73-3.81,5.23-28.09,3.72-55.94-.54-85.19-.19-1.27-.38-2.55-.57-3.82,3.03-35.32,11.03-68.32.9-103.43-.04-1.33-.08-2.67-.13-4.02-.17-5.01-.39-10.03-.64-15.05-.06-1.26-.13-2.51-.2-3.77.11-13.06-7.89-26.06-.89-37.06,15-24,16-53-2-75-3-4-5-9-4.38-14.03-.08-1.28-.13-2.55-.17-3.83-1.4-39.56,4-78.02,8.55-118.14,5-37-7-72-8.43-108.99-.08-1.21-.1-2.39-.07-3.57.23-10.6,4.24-20.3,7.78-30.3.39-1.11.78-2.23,1.15-3.35,4.56-11.79,6.56-24.79,2.98-36.3-.25-1.21-.53-2.42-.83-3.62-3.89-15.65-11.3-30.67-10.77-47.02,1.37,0,2.74,0,4.11-.01,12.39-.02,24.78-.03,37.17-.05,1.38,0,2.75,0,4.13,0,26.78-1.77,50.78,8.23,77.78,12.23,16,2,30-4,44-9,10-4,21-4,31.01-3.39,1.37,0,2.75,0,4.12,0,34.41-.03,68.82-.05,103.24-.08,1.38,0,2.75,0,4.13,0,29.5-.53,57.5,6.47,86.5,7.47,55,4,110-7,165.41-7.53,1.37,0,2.74,0,4.12,0,24.61,0,49.23,0,73.84.01,1.3,0,2.59,0,3.89,0,20.74-.48,39.74-8.48,60.74-9.48-4,30-13,59-6.39,88.9.01,1.26.02,2.52.02,3.78s0,2.52,0,3.78c-1.63,18.54-18.63,32.54-19.63,51.54,0,17,11,32,9.85,49.54-.04,1.31-.07,2.62-.09,3.93-.2,11.78.39,23.62,2.25,35.54,1.09,7.91,2.33,15.74,3.51,23.54.2,1.3.39,2.6.57,3.91,1.92,5.54,1.92,11.54-.08,17.54-14,69-5,131,4,198,3,27,10,54,1,81-2,5-1,11-1.39,16.14,0,1.37,0,2.73,0,4.1,0,2.73,0,5.47,0,8.2,0,1.37,0,2.73,0,4.1-2.6,42.46-24.6,84.46-11.6,125.46,4.32,13.18,7.35,26.21,9.46,39.15.21,1.29.41,2.59.6,3.88,1.94,5.97,2.94,12.97-.06,16.97-23,38-3,71,3.94,107.05.02,1.32.04,2.63.06,3.95,0,22-2,45-2.49,68.37,0,1.37,0,2.73,0,4.1,0,9.56-.01,19.13-.02,28.69Z"/>
    <path class="cls-9" d="m776.23,333.52c-5.69-1.86-12.69-3.86-18.29-6.08-1.16-.37-2.32-.76-3.48-1.17-10.42-3.7-20.78-8.96-32.17-9.4-1.37,0-2.73,0-4.1,0-77.05.18-154.1.38-231.15.57-1.38,0-2.75,0-4.12.01-85.38-9.8-171.38-4.8-255.92.6-1.38,0-2.75,0-4.13,0-27.52.06-55.03.11-82.55.15-1.38,0-2.75,0-4.14,0-7.64-.57-14.64,1.43-21.64,5.43-12,9-17,25-33,28,16-57,7-115,.88-173.04-.08-1.33-.17-2.74-.25-4.14-.3-5.6-.3-11.16,2.37-11.82,4-1.71,8.24-2.86,12.65-3.6,1.1-.19,2.22-.35,3.36-.45,3.99-.95,8.99.05,12.99,1.05,30,11,61,15,93,8,50-11,98-17,148-13,27,2,54,6,80.58,3.52,1.36-.02,2.72-.02,4.09-.02,95.57.04,191.13.1,286.7.07,1.37,0,2.73,0,4.09,0,14.54.44,28.54.44,43.54.44-22,24-8,53-3.83,80.39-.03,1.34-.06,2.68-.1,4.02-.48,20.12.61,40.2,4.12,60.12.23,1.33.48,2.65.73,3.98,2.07,8.48,2.07,15.48,2.05,23.45-.09.95-.18,1.91-.28,2.89Z"/>
    <path class="cls-9" d="m779.24,615.88c-9.91-.36-17.7-2.21-27.62-1.84-1.37,0-2.74,0-4.1.01-25.99.08-51.98.17-77.97.25-1.37,0-2.74,0-4.1.01-13.9-.66-26.9-.66-39.9-5.66-8-2-16-2-24-1-16,2-31,8-47,6-60-9-117-6-176.38,1.62-1.37,0-2.74,0-4.1.01-78.02.24-156.04.44-234.06.58-1.35,0-2.69,0-4.04,0-14.42-.21-27.42-2.21-40.42-5.21,5-18-7-34-5.4-52.1-.04-1.27-.09-2.56-.14-3.85-.21-4.96-.52-9.94-.9-14.91-.09-1.24-.19-2.49-.3-3.73-2.26-21.4-7.26-41.4,8.74-59.4,2-1,3-7,3-7,15-6,30-6,46-11,9-2,18-3,27.42-2.75,1.32,0,2.64,0,3.95-.01,42.11-.11,84.21-.25,126.32-.42,1.37,0,2.74-.01,4.11-.02,45.2-4.8,89.2-15.8,135.2-2.8,19,5,39,2,57.76,1.88,1.37,0,2.74-.01,4.1-.02,69.79-.37,139.58-.76,209.38-1.12,1.37,0,2.74-.01,4.11-.02,24.66-.72,26.66,30.28,45.66,39.28,5,2,6.85-4.2,9.85-8.2,4,30.61,14.15,61.2,12.15,92.2,0,11-5,22-5.88,33.51-.09,1.26-1.36,4.4-1.42,5.7Z"/>
    <path class="cls-9" d="m780.78,941.51c-4.24,1.15-8.24,1.15-12.24.15-17-7-27-27-46.76-27.9-1.37,0-2.73,0-4.1,0-45.51-.09-91.03-.14-136.54-.17-1.34,0-2.68,0-4.01,0-9.59.07-20.59,3.07-30.59.07-73-24-150-13-224-11-4,0-9,0-13.43-1.54-1.21-.25-2.43-.49-3.64-.72-3.64-.7-7.29-1.31-10.93-1.74-8-1-16,1-24,2-25,4-49,13-74.21,13.04-1.35,0-2.69.01-4.03.01-17.35.01-34.69.03-52.04.04-1.37,0-2.75,0-4.12.01-1.19-.08-2.37-.12-3.56-.14-13.04-.97-27.04,4.03-40.04,2.03,6-9,9-20,7-31-3-17-11-32-11.66-50.03-.1-1.33-.2-2.66-.3-3.98-1.68-22.58-2.76-45.14.96-67.98,0-1,4-4,8.33-2.41,1,.09,2,.19,2.96.27.96.08,1.87.13,2.71.13,16-2,30-8,46.17-7.03,1.38,0,2.75,0,4.13,0,25.33-.03,50.67-.06,76-.09,1.33,0,2.67,0,4,0,28.69.14,56.69-10.86,85.69-8.86,52,3,103,4,154,6.01,1.19.05,2.37.1,3.56.14,17.82.59,35.69-1.34,54.44-4.15,24-3,46,8,68.95,6.42,1.36,0,2.73,0,4.09,0,35.51-.04,71.03-.07,106.54-.11,1.37,0,2.73,0,4.1.02,21.32-.32,26.32,24.68,40.32,36.68,7,6,14-1,18-7,1.82,6.14,3.64,12.27,5.34,18.42.34,1.23.68,2.46,1.01,3.69,2.66,8.89,3.66,17.89,1.66,26.89-3,14-17,24-14,40,4,20,12,37,12.15,56.55.08,1.24.19,2.48.33,3.71.28,2.47.7,4.94,1.28,7.41.17.73.33,1.45.49,2.17Z"/>
  </g>
  <path class="cls-8" d="m257.67,347.07c108.43-14.27,254.48-11.3,382.94-3.33-44.81,197.31-55.78,396.6-100.59,593.91-68.77,10.39-170.56-2.88-239.92-8.05-15.91-188.42-28.84-360.92-44.75-549.35-.62-7.34-9.39-31.86-8.57-31.51.97.41,9.83-1.54,10.88-1.67Z"/>
  <path class="cls-7" d="m427.35,754.55c30.77-200.35,61.53-400.7,92.3-601.05-8.35-.41-13.46-12.17-8.06-18.55,5.41-6.38,17.85-3.27,19.62,4.9-5.33-9-.14-22.38,9.87-25.43,10.01-3.05,21.78,5.16,22.38,15.6,1.14-5.34,2.28-10.69,3.42-16.03,71.27,41.45,142.53,82.9,213.8,124.35-5.46,11.36-10.91,22.72-16.37,34.08-59.94-44.74-124.9-82.74-193.27-113.05.38,4.3.76,8.6,1.15,12.9-6.69,5.79-19.16.76-19.98-8.05,1.67,5.86,3.35,11.72,5.02,17.58-8,2.32-17.11.36-23.46-5.03-31.61,195.89-54.66,393.04-79.83,589.92-8.96-6.75-19.93-10.8-31.12-11.49,2.49-3,4.98-5.99,4.51-.64Z"/>
  <path class="cls-6" d="m319.97,799.46c-3.72-8.31-7.44-16.62-11.16-24.93,10.63-8.61,23.69-14.19,37.28-15.92,5.23,7.5,10.47,15.01,15.7,22.51,8.84-2.28,17.68-4.56,26.53-6.84-4.78-17.36-5.39-35.85-1.76-53.48,18,.34,36,.67,54,1.01-2.55,23.14-5.09,46.29-7.64,69.43,18.84-3.15,37.69-6.31,56.53-9.46,2.26-12.45,8.47-24.16,17.51-33.04,7.55,12.6,18.7,23.03,31.8,29.73-16.6,14.29-29.72,32.58-37.91,52.87,9.38,7.29,18.77,14.59,28.15,21.88-13.03,11.84-22.19,27.84-25.78,45.05-10.58-3.51-21.16-7.02-31.73-10.53,5.56,10.17,11.11,20.34,16.67,30.5-23.3-14.02-54.41-13.99-77.69.09-2.32-9.53-4.64-19.06-6.97-28.59-17.79,11.98-36.96,21.92-57.02,29.54-.19-12.4-6.37-24.58-16.29-32.07,8.22-6.41,16.43-12.82,24.65-19.23-6.61-17.14-32.97-22.11-45.4-8.56,2.99-14.74,3.19-30.04.59-44.86,5.99-2.91,11.98-5.83,17.98-8.74-3.3-4.83-6.6-9.67-8.02-6.36Z"/>
  <path class="cls-11" d="m525.98,862.84c3.3,8.49,6.59,16.98,9.89,25.46-11.05,8.06-24.38,12.97-38.04,14.01-4.85-7.76-9.69-15.52-14.54-23.28-8.95,1.83-17.89,3.65-26.84,5.48,3.9,17.58,3.57,36.07-.95,53.5-17.96-1.25-35.92-2.5-53.88-3.75,3.72-22.98,7.43-45.97,11.15-68.95-18.98,2.19-37.96,4.39-56.93,6.58-2.89,12.32-9.68,23.7-19.16,32.11-6.9-12.97-17.51-23.95-30.25-31.3,17.31-13.43,31.33-31.03,40.55-50.88-9-7.76-18-15.52-27.01-23.28,13.62-11.16,23.58-26.68,28.03-43.69,10.39,4.04,20.77,8.09,31.16,12.13-5.03-10.44-10.07-20.87-15.1-31.31,22.56,15.19,53.64,16.73,77.59,3.85,1.84,9.63,3.67,19.27,5.51,28.9,18.37-11.07,38.02-20.01,58.44-26.61-.44,12.4,5.12,24.87,14.64,32.86-8.53,5.98-17.06,11.97-25.59,17.95,5.73,17.45,31.81,23.75,44.91,10.86-3.74,14.57-4.71,29.84-2.86,44.77-6.13,2.61-12.26,5.21-18.4,7.82,3.05,4.99,6.1,9.99,7.68,6.76Z"/>
  <path class="cls-1" d="m378.19,475.88c-38.06-64.44-76.11-128.89-114.75-192.99-3.93-10.24-7.86-20.47-11.78-30.71,4.05-2.55,8.09-5.1,12.14-7.66,40.06,73.84,77.15,149.3,114.39,231.36Z"/>
  <path class="cls-2" d="m170.48,169.28c-30.13,71.15-63.41,146.99-48.66,222.84,85.44-109.41,192.67-159.56,321.14-201.1-89.02-33.37-179.46-39.27-272.48-21.74Z"/>
  <path class="cls-4" d="m170.58,176.81c-6.54-1.61-12.85-5.72-15.31-11.99s.22-14.62,6.56-16.88c6-2.13,12.8,1.75,16.11,7.19,3.3,5.44,3.96,12.03-7.36,21.67Z"/>
  <g>
    <path class="cls-4" d="m127.96,380.88c14.39-70.17,28.79-140.34,43.18-210.51"/>
    <path class="cls-3" d="m128.39,380.63c5.63-27.46,11.27-54.93,16.9-82.39,5.61-27.33,11.21-54.65,16.82-81.98,3.15-15.38,6.31-30.76,9.46-46.14-.04.21-.82.28-.86.5-5.63,27.46-11.27,54.93-16.9,82.39-5.61,27.33-11.21,54.65-16.82,81.98-3.15,15.38-6.31,30.76-9.46,46.14.04-.21.82-.28.86-.5h0Z"/>
  </g>
  <g>
    <path class="cls-4" d="m206.32,303.73c-11.23-43.65-22.46-87.31-33.69-130.96"/>
    <path class="cls-3" d="m206.75,303.48c-2.19-8.53-4.39-17.06-6.58-25.58s-4.39-17.06-6.58-25.58c-2.18-8.49-4.37-16.97-6.55-25.46s-4.39-17.06-6.58-25.58-4.39-17.06-6.58-25.58l-.81-3.17c.02.08-.89.4-.86.5,2.19,8.53,4.39,17.06,6.58,25.58s4.39,17.06,6.58,25.58c2.18,8.49,4.37,16.97,6.55,25.46s4.39,17.06,6.58,25.58,4.39,17.06,6.58,25.58l.81,3.17c-.02-.08.89-.4.86-.5h0Z"/>
  </g>
  <g>
    <path class="cls-4" d="m264.78,267.2c-23.73-37.68-53.87-71.06-88.62-98.14-3.32,2.83-6.65,5.65-9.97,8.48"/>
    <path class="cls-3" d="m265.21,266.95c-4.62-7.33-9.48-14.51-14.59-21.52-5.11-7.02-10.46-13.87-16.03-20.53s-11.3-13.05-17.27-19.29c-5.98-6.25-12.18-12.29-18.57-18.11-6.35-5.79-12.9-11.36-19.63-16.7-.84-.67-1.68-1.33-2.53-1.99-.05-.04-.79.44-.86.5-3.32,2.83-6.65,5.65-9.97,8.48.25-.21.61-.29.86-.5,3.32-2.83,6.65-5.65,9.97-8.48l-.86.5c6.77,5.28,13.37,10.8,19.77,16.53s12.68,11.76,18.71,17.95,11.83,12.56,17.43,19.14,11.03,13.41,16.2,20.39,10.08,14.1,14.76,21.39c.59.91,1.17,1.83,1.75,2.75.01.02.86-.5.86-.5h0Z"/>
  </g>
  <g>
    <path class="cls-4" d="m335.16,238.25c-46.14-40.88-102.63-66.06-160.64-71.62"/>
    <path class="cls-3" d="m335.59,238c-8.94-7.92-18.34-15.32-28.16-22.13s-19.73-12.85-30.13-18.36-20.78-10.23-31.58-14.37c-10.74-4.11-21.72-7.57-32.89-10.31s-22.34-4.74-33.68-6.02c-1.4-.16-2.8-.3-4.2-.44-.27-.03-.6.52-.86.5,11.35,1.09,22.63,2.93,33.75,5.47s22.22,5.85,33.01,9.79,21.46,8.61,31.75,13.87,20.6,11.33,30.35,17.88c9.89,6.65,19.38,13.9,28.42,21.67,1.13.97,2.25,1.95,3.36,2.93.08.07.79-.56.86-.5h0Z"/>
  </g>
  <g>
    <path class="cls-4" d="m393.72,200.24c-70.16-22.28-144.06-33.03-217.75-31.66"/>
    <path class="cls-3" d="m394.15,199.99c-13.72-4.35-27.58-8.27-41.55-11.74s-27.92-6.47-42.02-9.03c-14.17-2.58-28.42-4.71-42.73-6.38s-28.53-2.89-42.85-3.65-28.8-1.08-43.2-.93c-1.8.02-3.6.05-5.4.08-.29,0-.58.49-.86.5,14.4-.26,28.82-.07,43.21.58,14.32.65,28.62,1.76,42.87,3.31s28.59,3.58,42.78,6.05c14.12,2.45,28.16,5.36,42.1,8.7s27.89,7.16,41.64,11.41c1.72.53,3.44,1.07,5.15,1.61.22.07.65-.56.86-.5h0Z"/>
  </g>
  <path class="cls-4" d="m124.23,388.8c-3.61,2.61-7.37,5.4-9.22,9.46s-.95,9.73,3.06,11.66c5.01,2.42,10.96-2.84,11.45-8.38.48-5.54-2.57-10.7-5.29-12.74Z"/>
  <path class="cls-4" d="m206.29,303.18c-1.33,4.72-2.5,9.74-1.22,14.48s5.83,8.94,10.66,8.13c6.04-1.02,8.42-9.57,4.98-14.64s-10.42-6.65-14.42-7.97Z"/>
  <path class="cls-4" d="m264.78,267.2c-3.84,2.08-4.89,7.94-2.02,11.23,2.87,3.29,8.82,3.04,11.4-.48,2.72-3.71,1.24-9.31-2.18-12.38s-8.19-4.12-7.2,1.63Z"/>
  <path class="cls-4" d="m326.29,229.13c-.98,5.96,1.58,13.03,7.31,14.97s12.9-4.63,9.97-9.91c-3.67-6.62-14.58-2.16-17.28-5.06Z"/>
  <path class="cls-4" d="m393.72,198.54c-1.44,5.61-2.87,11.53-1.29,17.1,1.59,5.57,7.39,10.37,12.93,8.71,6.82-2.05,7.75-12.39,2.96-17.66-4.79-5.27-12.6-6.43-14.6-8.15Z"/>
  <path class="cls-4" d="m440.63,192.15c.82,3.48,1.7,7.08,3.9,9.9,2.2,2.82,6.13,4.62,9.44,3.26,4.12-1.7,5.1-7.74,2.52-11.37-2.58-3.64-7.53-4.96-11.95-4.4-4.42.56-8.48,2.68-3.9,2.61Z"/>
  <path class="cls-5" d="m161.99,290.07c-4.99,10.31-9.99,20.62-14.98,30.92-1.45,3-2.88,6.67-1.08,9.47,2.21,3.43,7.88,2.6,10.49-.53s3.03-7.48,3.39-11.54c.35-4.06.89-8.43,3.64-11.43-.81,3.26-1.63,6.7-.77,9.95.86,3.25,4.01,6.16,7.31,5.51,4.29-.85,5.53-6.57,4.43-10.81s-3.57-8.26-3.19-12.62c2.33,5.85,8.62,9.88,14.91,9.55.45-11.8-13.06-21.78-24.17-18.48Z"/>
  <path class="cls-5" d="m218.47,253.89c-5.16,10.27-3.75,23.49,3.46,32.44,3.05-8.23,4.07-17.21,2.97-25.92.83,6.82,7.44,12.43,14.3,12.13,1.23-6.62-1.39-13.81-6.59-18.08,1.48,3.8,3.17,7.72,6.34,10.28s8.25,3.22,11.16.36c3.68-3.62,1.36-10.45-3.14-12.99s-10.04-2-15.14-1.2c-5.1.8-10.47,1.78-13.35,2.98Z"/>
  <path class="cls-5" d="m267.58,232.48c3.1,5.94,6.2,11.87,9.3,17.81,5.7-3.08,7.17-11.88,2.78-16.65,1.81,6.22,6.6,11.51,12.62,13.93,3.63-6.18,2.12-14.9-3.39-19.49,3.05,5.95,9.72,9.84,16.4,9.56,4.07-4.59.19-12.44-5.53-14.64-5.72-2.19-12.11-.65-18.12.55-6.01,1.2-12.77,1.91-17.81-1.58.82,3.29,1.68,6.57,3.74,10.51Z"/>
  <path class="cls-5" d="m328.13,205.31c1.18,7.91,6.6,15.07,13.89,18.35,5.38-5.08,5.18-14.86-.41-19.71.06,5.4,4.49,10.41,9.83,11.13s10.95-2.94,12.43-8.13c-4.14-1.55-8.28-3.1-12.42-4.65,6.63,3.93,15,4.79,22.29,2.31-13.15-13.89-38.31-13.51-45.62.7Z"/>
  <path class="cls-5" d="m387.45,186.39c5.11,1.86,10.21,3.73,15.32,5.59,1.71.62,3.66,1.23,5.27.38,2.82-1.49,1.7-6.27-1.18-7.65s-6.28-.5-9.35.41c5.55,2.31,11.78,2.99,17.7,1.91-7.37-9.16-23.86-8.25-27.75-.64Z"/>
  <path class="cls-5" d="m130.63,316.25c-5.44,7.91-7.29,18.2-4.95,27.51,8.95-3.48,11-17.6,4.95-27.51Z"/>
</svg>