<?xml version="1.0" encoding="UTF-8"?>
<svg xmlns="http://www.w3.org/2000/svg" xmlns:xlink="http://www.w3.org/1999/xlink" viewBox="0 0 1920 1080">
  <defs>
    <style>
      .cls-1 {
        fill: url(#linear-gradient);
      }

      .cls-2, .cls-3, .cls-4, .cls-5, .cls-6, .cls-7, .cls-8, .cls-9, .cls-10, .cls-11 {
        stroke-miterlimit: 10;
      }

      .cls-2, .cls-6, .cls-7, .cls-8 {
        stroke: #000;
      }

      .cls-12 {
        fill: #fa9078;
      }

      .cls-13 {
        fill: #f7a128;
      }

      .cls-14 {
        fill: #fa3434;
      }

      .cls-15 {
        fill: #f7cbc3;
      }

      .cls-16 {
        fill: #0069e9;
      }

      .cls-17 {
        fill: blue;
      }

      .cls-18 {
        fill: #ed64a1;
      }

      .cls-19 {
        fill: #ed9197;
      }

      .cls-20 {
        fill: #eba99d;
      }

      .cls-21 {
        fill: #f72c1e;
      }

      .cls-22 {
        fill: #f5f5f5;
      }

      .cls-23 {
        fill: #ff3c2e;
      }

      .cls-24 {
        fill: #ff4a4a;
      }

      .cls-25 {
        fill: #e63427;
      }

      .cls-26 {
        fill: #e6478c;
      }

      .cls-27 {
        fill: #ffad7a;
      }

      .cls-28 {
        fill: #ffafa4;
      }

      .cls-29, .cls-30 {
        fill: #fff;
      }

      .cls-31 {
        fill: #f73b3b;
      }

      .cls-32 {
        fill: #ff9f73;
      }

      .cls-33 {
        fill: #eb2617;
      }

      .cls-34 {
        fill: #f44081;
      }

      .cls-35 {
        fill: #f2cf3d;
      }

      .cls-36 {
        fill: #f2b63d;
      }

      .cls-37 {
        fill: #fc5;
      }

      .cls-38 {
        fill: #fcca65;
      }

      .cls-39 {
        fill: #ffbf96;
      }

      .cls-40 {
        fill: #ffa673;
      }

      .cls-41 {
        fill: #ffb88b;
      }

      .cls-42 {
        fill: #ffb587;
      }

      .cls-43 {
        fill: #ffa973;
      }

      .cls-44 {
        fill: #fcc372;
      }

      .cls-45 {
        fill: #fadbd4;
      }

      .cls-46 {
        fill: #ff456a;
      }

      .cls-47 {
        fill: #ff935c;
      }

      .cls-48 {
        fill: #ff9373;
      }

      .cls-49 {
        fill: #ff8a5c;
      }

      .cls-50 {
        fill: #ff2e12;
      }

      .cls-51 {
        fill: #82452e;
      }

      .cls-52 {
        fill: #80573d;
      }

      .cls-53 {
        fill: #00a29b;
      }

      .cls-54 {
        fill: #8b4600;
      }

      .cls-55 {
        fill: #8c0500;
      }

      .cls-56 {
        fill: #8c1700;
      }

      .cls-57 {
        fill: #8c0005;
      }

      .cls-58 {
        fill: #b8170b;
      }

      .cls-59 {
        fill: #c4352b;
      }

      .cls-60 {
        fill: #c1c8d4;
      }

      .cls-61 {
        fill: #667185;
      }

      .cls-62 {
        fill: #8f522f;
      }

      .cls-63 {
        fill: #8f4f29;
      }

      .cls-64 {
        fill: #cf3e34;
      }

      .cls-65 {
        fill: #d9a050;
      }

      .cls-66 {
        fill: #a66946;
      }

      .cls-67 {
        fill: #c92216;
      }

      .cls-68 {
        fill: #dea85d;
      }

      .cls-69 {
        fill: #c47037;
      }

      .cls-70 {
        fill: #c48937;
      }

      .cls-71 {
        fill: #d61c22;
      }

      .cls-72 {
        fill: #ad7958;
      }

      .cls-73 {
        fill: #d92818;
      }

      .cls-74 {
        fill: #e3492d;
      }

      .cls-75 {
        fill: #40badb;
      }

      .cls-76 {
        fill: #6e4025;
      }

      .cls-77 {
        fill: #9c5e56;
      }

      .cls-78 {
        fill: #5c2c00;
      }

      .cls-79 {
        fill: #5c2100;
      }

      .cls-80 {
        fill: #733700;
      }

      .cls-3 {
        stroke: #663426;
      }

      .cls-3, .cls-4 {
        stroke-width: 5.01px;
      }

      .cls-3, .cls-4, .cls-5, .cls-9, .cls-10, .cls-11 {
        fill: none;
      }

      .cls-4 {
        stroke: #db7458;
      }

      .cls-5 {
        stroke: #ffb1a2;
        stroke-width: 5px;
      }

      .cls-6, .cls-7 {
        fill: #121111;
      }

      .cls-6, .cls-8, .cls-10, .cls-11 {
        stroke-width: 1px;
      }

      .cls-9, .cls-11 {
        stroke: #c77946;
      }

      .cls-81 {
        fill: #4ae3ff;
      }

      .cls-81, .cls-82 {
        opacity: .61;
      }

      .cls-82 {
        fill: #aadeff;
      }

      .cls-10 {
        stroke: #663c20;
      }

      .cls-30 {
        opacity: .65;
      }
    </style>
    <linearGradient id="linear-gradient" x1="991.89" y1="245.83" x2="990.42" y2="707.6" gradientUnits="userSpaceOnUse">
      <stop offset="0" stop-color="#fffdaa"/>
      <stop offset=".09" stop-color="#fff3ad"/>
      <stop offset=".23" stop-color="#ffdab7"/>
      <stop offset=".41" stop-color="#ffb0c7"/>
      <stop offset=".62" stop-color="#f7d"/>
      <stop offset=".67" stop-color="#ff6ae3"/>
    </linearGradient>
  </defs>
  <g id="Layer_3" data-name="Layer 3">
    <rect class="cls-1" x="-86.54" y="-113.62" width="2155" height="1307"/>
    <circle class="cls-37" cx="1329.46" cy="96.38" r="132"/>
    <polygon class="cls-30" points="1941.06 116.38 1939.46 183.46 -49.57 183.46 -47.97 116.38 1941.06 116.38"/>
    <path class="cls-82" d="m-65.05,261.84l-83.53-88.46H1957.05l-76.67,81.7c-59.55,63.45-159.26,66.61-222.71,7.06l-37.11-34.84c-33.18-31.14-83.99-33.82-120.26-6.34l-80.24,60.8c-62.32,47.22-149.83,41.59-205.59-13.22l-50.21-49.35c-26.94-26.48-69.02-29.73-99.71-7.72l-113.55,81.47c-62.11,44.55-147.23,38.1-201.92-15.3l-37.13-36.27c-37.98-37.08-99.19-35.08-134.66,4.4-31.21,34.74-74.18,52.26-117.22,52.26-40.46,0-80.99-15.48-111.89-46.66l-16.74-16.9c-34.21-34.52-89.18-37.02-126.38-5.74l-54.17,45.54c-63.91,53.72-158.62,48.27-215.94-12.43Z"/>
    <rect class="cls-17" x="-114" y="815.1" width="2174" height="487.09"/>
    <path class="cls-81" d="m1920.69,123.11H-68.34L.73,49.5C60.28-13.95,159.99-17.11,223.44,42.45l37.11,34.83c33.18,31.15,83.99,33.82,120.26,6.34l80.24-60.8c62.32-47.21,149.83-41.58,205.59,13.22l50.21,49.36c26.94,26.47,69.02,29.73,99.71,7.71l113.55-81.46c62.1-44.56,147.23-38.11,201.92,15.3l37.13,36.26c37.97,37.09,99.19,35.09,134.66-4.39,31.21-34.74,74.18-52.26,117.22-52.26,40.46,0,80.99,15.48,111.89,46.66l16.74,16.89c34.21,34.52,89.18,37.02,126.38,5.75l54.17-45.55c63.91-53.72,158.62-48.27,215.94,12.43l83.53,88.47h-116.6l7.6-8.1Z"/>
    <path class="cls-38" d="m393.07,217.94c-21.29-11.55-39.34-2.88-56.51,5.67-17.17,8.55-30.46,25.27-31.76,43.89-.62,8.86,1.38,17.77.54,26.62-.87,9.11-4.83,17.92-11.14,24.75-5.11,5.53-11.65,9.74-16.47,15.5-7.97,9.54-10.39,22.28-11.45,34.5-1.08,12.5-.56,26.35,8.05,35.74,8.69,9.47,24.85,13.68,27.29,26.12,1.51,7.7-3.26,15.15-4.44,22.9-1,6.58.74,13.5,4.73,18.92,2.51,3.4,6.01,6.27,10.2,7.28,8.46,2.04,16.61-3.77,23.27-9.2,8.21-6.7,16.42-13.39,24.62-20.09,3.05-2.49,6.16-5.04,8.24-8.35,2.05-3.26,2.95-7.06,4.59-10.53,4.29-9.1,13.96-15.61,24.29-16.35,10.33-.74,20.88,4.32,26.52,12.71,3.6,5.36,5.19,11.71,7.83,17.56,8.78,19.49,30.35,32.92,52.35,32.59,7.6-.11,15.66-1.99,20.83-7.38,6.65-6.93,6.73-17.64,4.69-26.88s-5.79-18.32-5.42-27.77c.52-13.49,9.23-25.2,14.27-37.79,1.98-4.95,3.43-10.25,2.91-15.53-.45-4.58-2.35-8.92-4.7-12.93-8.4-14.3-22.9-25.64-26.68-41.67-2.62-11.1.4-22.66.16-34.04-.47-21.61-13.75-42.53-33.48-52.72-19.73-10.19-40.79,12.52-59.52.7-1.61-1.01-1.83-3.14-3.8-4.21Z"/>
    <path class="cls-36" d="m439.2,416.64c5.79,1.99,8.46,6.94,8.8,11.54.34,4.6-1.1,9.19-1,13.8.19,9.02,6.33,17.58,14.87,24.19,8.54,6.61,19.34,11.47,30.37,15.76-22.39-8.79-37.35-26.61-37.72-44.95-.1-4.72.54-9.88-3.26-13.73-2.94-2.99-7.93-4.5-12.07-6.62Z"/>
    <path class="cls-36" d="m457.76,357.19c4.55.49,8.12,4.24,9.78,8.36,1.66,4.12,1.83,8.63,2.28,13.03,1.16,11.43,4.35,22.66,9.39,33.05,2.76,5.69,6.73,11.62,13.03,13.15-1.11-5.52-5.27-9.92-8.18-14.8-3.92-6.56-5.63-14.21-5.8-21.78-.15-6.76.87-13.64-.77-20.21s-7-13-13.99-13.1c-3.45-.05-6.75,1.45-5.75,2.3Z"/>
    <path class="cls-36" d="m295.7,393.32c-2.85-3.46-2.64-8.54-.8-12.59,1.84-4.05,5.02-7.35,7.93-10.77,7.54-8.87,13.51-18.99,17.55-29.79,2.21-5.91,3.75-12.81.41-18.2-3.26,4.67-3.54,10.61-5.05,16.05-2.03,7.32-6.42,13.89-11.84,19.36-4.84,4.88-10.6,9.05-14.25,14.81-3.65,5.77-4.57,13.97.31,18.82,2.4,2.39,5.83,3.59,5.75,2.3Z"/>
    <path class="cls-36" d="m346.98,393.14c-10.56,6.75-5.67,21.1-7.46,29.15-2.15,9.67-14.9,27.35-23.96,35.9,8.68-3.05,15.08-10.08,21.1-16.84,3.18-3.58,6.42-7.24,8.32-11.59,1.81-4.15,2.31-8.71,2.6-13.2.51-8.01.41-16.06-.6-23.42Z"/>
    <path class="cls-15" d="m372.47,824.03c1.1.4,2.03,1.19,2.47,2.37,1.08-.39,2.27-.26,3.32.22,1.55-1.25,3.47-1.93,5.95-1.56.87.13,1.59.61,2.15,1.24.86-1.16,1.98-2.02,3.64-2.58,1.42-.48,2.8-.07,3.92.72.89-6.33,1.84-12.66,2.88-18.97,1.05-6.38,1.78-12.8,2.85-19.18,1.01-6.08,3.1-12.22,3.65-18.34.05-.58.19-1.1.4-1.57-.48-5.43-.22-10.9-.57-16.36-.5-7.68-1.44-15.55,1.52-22.91.07-.16.15-.31.23-.46-.23-.34-.44-.69-.63-1.08-1.54-3.27-.95-7.31-.95-10.82,0-4.67,6.44-6.17,8.91-2.33,1.96,3.05,4.47,4.64,5.56,8.27.19.62.35,1.25.51,1.87,1.22-.02,2.45.38,3.38,1.28,2.54-.17,5.26,1.46,5.25,4.49,0,2.28-.13,4.53-.3,6.78.89,2.58,1.74,5.2,2.49,7.84,2.64,7.39,5.15,14.81,7.3,22.34.61.71,1.02,1.59,1.06,2.64.02.46.04.93.05,1.39,3.34,13.12,4.24,26.7,8.99,39.51,1.5,4.05-2.91,6.42-6.24,5.33.3,3.26.63,6.51.98,9.77.56-1.44,1.21-2.84,2.09-4.13,1.22-1.79,3.2-2.56,5.38-2.11,2.39.49,3.8,2.03,4.66,3.98,2.31-2.86,8.44-1.07,8.55,3.14.09,3.76.95,7.37,1.38,11.09.02-.06.04-.12.06-.18.4-4.16,1.08-8.3,2.39-12.13.71-2.08,2.64-3.33,4.63-3.34.24-.24.49-.48.75-.7,1.55-1.27,3.66-1.64,5.37-.91-.6-2.9-.84-6.07-.47-9.78.03-.33.06-.68.1-1.02-.07-.81-.12-1.63-.13-2.45-.02-.8.17-1.49.48-2.09,1.29-20.34.2-49.86,8.61-66.44,11.97-23.63,24.41-66.15,8.28-85.94-13.07-16.04-28.94-30.43-47.77-67.35-6.22-12.2-3.48-26.01-7.97-38.9-4.5-12.89-17.49-25.84-30.94-29.89-12.13-3.65-25.84,1.16-34.72,9.92-8.88,8.76-15.67,21.84-10.81,29.35,13.24,20.43,4.49,47.35-7.68,68.39-12.17,21.04-27.96,41.9-28.32,65.99-.38,24.89,15.78,46.73,29.48,67.82,13.25,20.39,25.07,45.06,17.81,67.8Z"/>
    <path class="cls-36" d="m503.33,375.08c.36-12.71-14.87-16.51-20.76-22.48-7.08-7.18-14.85-27.8-16.93-40.23-2.45,9.06-.14,18.4,2.18,27.25,1.22,4.69,2.48,9.46,5.12,13.48,2.52,3.84,6.15,6.79,9.86,9.52,6.61,4.87,13.6,9.25,20.53,12.46Z"/>
    <path class="cls-36" d="m339.52,370.82c-8.07-8.5-11.99,20.1-15.68,25.97-2.35,3.73-9.04,10.08-11.49,13.48-1.77,2.46-4.65,6.66-7.55,9.03-.37.31.03.89.47.67,2.7-1.36,5.54-4.31,7.74-5.51,15.04-8.21,37.3-32.28,26.51-43.64Z"/>
    <path class="cls-15" d="m416.31,421.84c.34,32.73,17.84,64.87,45.57,83.68,1.16,2.8,2.91,3.64,4.65,4.48-7.58,2.69-15.95,1.62-23.97.71-35.65-4.05-71.78-4.16-107.45-.34,19.7-21.7,34.92-54.69,36.87-84.7"/>
    <path class="cls-28" d="m367.86,427.34l3.13,16.54c3.72,6.21,10.43,10.45,18.14,11.48l7.61,1.01,8.45-5.69c2.97-2,5.47-4.53,7.33-7.43l6.72-16.11-51.37.2Z"/>
    <path class="cls-15" d="m318.46,338.04c1.82-117.53,141.21-148.97,155.68-.42.03.28-.03.57.03.84,27.15,125.15-173.86,135.58-155.71-.42Z"/>
    <path class="cls-45" d="m391.26,243.17c-10.63,6.59-19.27,15.82-26.68,25.71-8.3,11.09-15.11,27-18.87,36.54s-9.71,26.04-9.46,39.62c.32,17.03,4.51,45.47,12.71,58.1,6.44,9.92,29.74,29.16,29.74,29.16,0,0-19.34-3.92-24.79-7.52-28.64-18.94-42.34-38.95-45.25-69.36-2.24-23.37,12.5-62.45,22.76-77.26,10.87-15.69,38.44-34.62,59.85-34.98Z"/>
    <ellipse class="cls-7" cx="428.95" cy="324.47" rx="15.83" ry="13.22"/>
    <path class="cls-19" d="m426.43,350.73c-10.94-9.51-33.2,14.79-58.84.48s2.89,29.71,10.82,32.51c4.93,1.74,26.94.9,32.94-3.59,6.47-4.85,21.4-23.92,15.08-29.4Z"/>
    <path class="cls-5" d="m385.63,337.06c4.34,1.7,9.78-.2,12.58-3.51s3.41-7.65,3.05-11.73c-.73-8.27-4.99-16-6.88-24.14-1.89-8.14-.68-17.81,7.06-22.79"/>
    <ellipse class="cls-2" cx="363.38" cy="324.47" rx="16.26" ry="13.64"/>
    <polyline class="cls-2" points="343.14 307.29 357.92 313.41 350.74 321.98"/>
    <polygon class="cls-2" points="436.5 315.86 449.18 309.33 442.84 325.65 436.5 315.86"/>
    <path class="cls-18" d="m349.23,343.87c-.5-2.47-5.2-6.28-7.77-6.69-2.75-.45-9.37,0-10.92,2.23-1.34,1.94-.79,7.44.63,9.33,1.73,2.3,8.08,5.02,10.92,4.26s7.7-6.32,7.14-9.13Z"/>
    <path class="cls-18" d="m440.36,345.09c-.85,1.94,1.9,6.49,3.76,7.58,2.27,1.33,8.04,1.49,10.58.74,2.49-.73,6.51-4.94,7.05-7.4.41-1.85-2.02-5.77-3.76-6.66-4.12-2.09-15.82,1.59-17.63,5.73Z"/>
    <ellipse class="cls-75" cx="365.23" cy="320.98" rx="5.13" ry="3.49"/>
    <ellipse class="cls-75" cx="427.69" cy="320.38" rx="4.71" ry="2.89"/>
    <path class="cls-36" d="m360.98,236.1c-9.39,3.09-18.83,7.8-24.05,15.96-5.21,8.16-4.45,20.44,3.82,25.74,4.9,3.14,11.41,3.26,16.96,1.39,5.55-1.87,10.28-5.51,14.48-9.49,4.89-4.64,10.47-10.31,17.26-9.34,3.95.56,7.24,3.36,11.18,4.01,5.22.86,10.16-2.17,14.76-4.71s10.35-4.72,15-2.27c2.65,1.4,4.7,4.2,7.72,4.29,1.87.05,3.57-1.01,4.94-2.23,4.47-3.98,6.66-10.21,5.64-16s-5.23-10.96-10.81-13.29c-11.11-4.63-23.72,2.04-35.81,1.55-7.79-.32-15.14-3.62-22.89-4.38-7.75-.76-17.07,2.34-18.19,8.79Z"/>
    <path class="cls-9" d="m375.25,418.51c3.67-7.5,12.19-12.53,20.77-12.25,8.58.27,16.74,5.83,19.34,13.76"/>
    <path class="cls-9" d="m430.08,289.72c7.81,1.19,14.84,6.43,18,13.44"/>
    <path class="cls-9" d="m360.74,292.05c-9.4,1.3-18.19,6.33-23.9,13.67"/>
    <path class="cls-15" d="m332.96,498.47c-15.19,11.12-21.55,32.73-14.29,50.06,7.27,17.33,27.8,28.44,46.38,24.62,18.58-3.82,32.74-22.53,30.64-41.13-1.4,13.97,6.61,28.28,19,35.39,12.39,7.11,28.42,7.07,41.1.69,11.04-5.56,19.69-15.99,21.8-28.04,2.82-16.04-5.95-32.24-17.75-43.78-17.45-17.05-42.15-26.68-66.63-25.96-24.48.71-43.85,16.13-60.25,28.15Z"/>
    <path class="cls-20" d="m390.7,564.62c9.23-6.86,10.41-20.64,5.25-30.73-5.16-10.08-15.17-17.02-25.48-22.26-3.14-1.6-6.45-3.11-10-3.29s-7.39,1.24-9.06,4.26c-1.65,3-.82,6.66.04,9.95,2.6,9.88,5.2,19.75,7.8,29.63,1.38,5.23,2.94,10.77,7.06,14.4,4.29,3.79,10.79,4.71,16.36,3.12,5.57-1.59,10.25-5.43,8.01-5.08Z"/>
    <path class="cls-15" d="m416.86,461.59c19.96,8.72,40.39,17.41,62.16,19.81,21.77,2.4,45.47-2.4,60.88-17.44,13.66-13.32,19.02-32.6,21.29-51.22,3.92-32.15.13-65.16-10.64-95.79-.16,0-.33,0-.73-.39-4.04,2.05-9.23.59-12.61-2.36-3.38-2.95-5.34-7.1-7.09-11.17-1.27-2.95-2.5-6-2.57-9.2s1.23-6.6,4.04-8.29c3.75-2.25,8.93-.66,11.96,2.45,3.02,3.11,4.41,7.34,7.27,11.17-8.48-13.11-10.38-29.99-5.03-44.55,2.86-7.79,8.91-15.63,17.44-16.26,8.45-.62,15.84,6.44,18.27,14.28,2.42,7.84,1.07,16.25-.29,24.33-2.73,16.13-5.46,32.27-5.75,48.49,4.73,26.63,9.48,53.53,7.91,80.5s-10.05,54.42-28.8,74.47c-18.75,20.04-48.97,31.2-75.72,23.35-22.55-6.62-41.02-25.55-64.26-26.14-.48-6.44.73-13,2.27-16.02Z"/>
    <path class="cls-20" d="m435.09,478.64c24.94,14.01,54.74,24.53,82.33,16.39,29.14-8.6,48.53-36.57,54.93-65.34,6.41-28.78,2.18-58.64-1.85-87.82-4.03-29.18-7.81-59.17-.54-87.76,1.55-6.11-.05-14.36,5.67-10.9,2.63,1.59,7.52,11,8.04,15.25,1.1,8.93-2.86,21.44-3.92,35.79-1.91,25.98,1.77,52,3.65,77.98,1.89,25.98,1.89,52.7-7.01,77.29-8.89,24.59-28.61,43.26-54,54.16-27.64,11.87-57.22-3.9-82.28-20.26,19.25,6.36,35.75,22.28,36.97,43.72-11.14-24.67-32.26-31.45-42.01-48.5Z"/>
    <path class="cls-15" d="m382.59,466.57c-22.81,8.81-46.16,17.58-71.04,20-24.88,2.42-51.96-2.43-69.58-17.61-15.61-13.45-21.73-32.92-24.33-51.72-4.48-32.47-.15-65.8,12.16-96.74.19,0,.38,0,.83-.4,4.61,2.07,10.54.6,14.41-2.39,3.87-2.98,6.1-7.17,8.1-11.28,1.45-2.98,2.85-6.06,2.94-9.29s-1.4-6.67-4.61-8.37c-4.29-2.27-10.21-.66-13.67,2.47-3.46,3.14-5.04,7.41-8.31,11.28,9.69-13.24,11.86-30.28,5.75-44.99-3.27-7.87-10.18-15.79-19.93-16.42-9.65-.63-18.11,6.5-20.88,14.42-2.77,7.92-1.23,16.41.33,24.57,3.12,16.29,6.24,32.58,6.57,48.97-5.41,26.89-10.83,54.06-9.04,81.3,1.8,27.24,11.48,54.96,32.91,75.2,21.43,20.24,55.96,31.51,86.54,23.58,25.78-6.69,46.88-25.8,73.44-26.4.55-6.51-.83-13.13-2.6-16.17Z"/>
    <path class="cls-26" d="m316.83,544.97c5.38-25.68,28.44-33.83,42.83-50.66,5.71,25.79,31.93,79.59,31.93,79.59,0,0-38.67.88-45.08-1.64-7.26-2.86-14.68-5.8-20.56-10.82-5.88-5.02-9.94-12.56-9.12-16.47Z"/>
    <path class="cls-26" d="m356.39,503.06c-.28-9.63-2.11-19.22-5.39-28.33,3.24-1.56,6.48-3.13,9.73-4.69.14,8.65.28,17.3.41,25.94.02,1.57.03,3.21-.76,4.58-.79,1.37-2.66,2.29-4,2.49Z"/>
    <path class="cls-26" d="m430.4,498.63c-3.82-11.79-4.82-24.43-2.9-36.65,3.15,1.23,6.3,2.46,9.45,3.7-3.67,11.43-5.48,23.41-6.55,32.96Z"/>
    <path class="cls-15" d="m372.72,907.28c2.34.43,3.79,3.28,2.7,5.31-.58,1.08-2.23,1.81-3.08.92-.38-.39-.46-.96-.49-1.49-.14-2.23.26-4.48.87-4.73Z"/>
    <path class="cls-15" d="m385.84,902.25c.03-.24.05-.49.09-.73,0-.16.02-.33.05-.49,0-.05,0-.09,0-.14-.02-.3.01-.57.07-.83-1.92-67.69,51.76-199.78-6.4-223.47-12.5-5.09,12.34,68.91,5.1,82.67-26.98,51.26-30.84,89.04-32.72,137.64-.15,3.83-2.54,7.73-.75,11.14,2.89,5.49,11.13,5.1,17.19,3.16,5.1-1.63,10.91-3.7,15.76-2.23.35-1.83.79-3.29,1.35-5.57.09-.38.18-.77.27-1.16Z"/>
    <path class="cls-26" d="m377.74,569.9c16.95,4.2,36.1,2.98,51.9-3.31-1.24-2.62-5.21-3.97-8.86-3.96-3.65,0-7.14,1.06-10.64,1.86-11.81,2.69-24.71,2.51-36.38-.51-1.29,2.45-.07,5.53,2.79,7.02,2.86,1.49,7.06,1.26,1.18-1.1Z"/>
    <path class="cls-15" d="m380.97,921.17c-2.1,22.41-4.21,44.82-6.31,67.24-.41,4.38-1.11,9.22-5.61,12.18-4.5,2.96-13.88,1.64-14.43-3.68-.03-3.13-.07-6.25-.1-9.38-6.87-.66-12.05-5.17-13.89-9.99-1.84-4.82-1.01-9.93-.17-14.89,1.56-9.24,3.13-18.48,4.69-27.71.76-4.49,1.67-9.24,5.61-12.76,3.89-3.47,10.03-5.13,15.02-7.77,4.99-2.64,16.59-8.11,15.19,6.77Z"/>
    <path class="cls-20" d="m409.26,716.6c-1.36-8.04-3.84-6.79-12.27-7,16.29,69.47-37.92,220.41-27.95,290.99,4.83-1.48,13.38-83.69,14.35-88.08.92-4.17,1.78-8.23,2.6-12.19.02-.21.06-.41.12-.6,12.46-60.33,14.24-97.41,23.8-149.96,1.55-8.5.7-25.12-.66-33.15Z"/>
    <path class="cls-15" d="m436.95,661.63c-54.24,46.32,6.29,185.27,20.04,253.93.76,3.79,1.83,8.02,5.27,9.98,3.84,2.18,9.05.29,11.82-3.09,2.76-3.38,3.65-7.8,4.33-12.05,6.14-38.72,1.31-79.02-10.59-115.84,7.93-22.46,6.82-47.78-3.06-69.51-4.44-9.76-12.47-19.87-23.51-19.88-8.96,0,1.76-48.71-4.29-43.54Z"/>
    <path class="cls-20" d="m443.63,510.21c-5.78-3.22-7.66-7.44-13.26-3.93-2.88,1.81-9.92,6-11.22,9.07-2.64,6.27-4.7,12.78-6.14,19.4-1.23,5.66-1.95,11.82.71,17.01,1.91,3.72,3.72,8.25,7.05,10.88,4.25,3.36,11.12,5.14,16.36,3.56,5.78-1.75,7.75-8.59,8.37-14.41,1.52-14.35.29-28.97-1.87-41.57Z"/>
    <path class="cls-20" d="m477.6,923.02c1.82-54.76-21.25-110.03-8.14-163.44,4.12-16.77,11.7-32.65,16.27-49.32,4.58-16.67,5.92-35.03-2.13-50.51-2.15-4.14-16.02-29.26-12.08-32.03,3.94-2.77,20.69,20.51,23.48,24.3,13.02,17.7,16.96,40.95,10.42,61.53-6.49,20.42-14.8,39.02-21.46,59.39-8.6,26.33-4.69,51.57-3.18,79.97,1.46,27.52,7.2,57.53-3.18,70.12Z"/>
    <path class="cls-26" d="m409.36,716.59c18.28-3.03,29.13-28.58,42.37-41.32,14.71-14.15,20.87-48.24,20.87-48.24,0,0-27.47,17.63-37.65,21.5-5.42,2.06-22.77,4.83-22.77,4.83,0,0-18.02-4.3-24-5.82-10.12-2.57-42.37-12.33-42.37-12.33,0,0,24.8,65.18,63.45,81.4,2.45,1.03-2.61.43.1-.02Z"/>
    <path class="cls-26" d="m427.61,489.76c3.03,29.28-4.63,81.21-4.63,81.21,0,0,39.18,3.14,48.53-4.42,8.97-7.25,9.85-34.14,3.14-45.09-5.28-8.62-15.22-12.18-24.33-15.52-9.11-3.35-18.95-7.86-22.72-16.17Z"/>
    <path class="cls-20" d="m439.84,802.05c-2.16,5.02,2.51,11.47,8.13,11.22,5.62-.25,9.67-7.07,7.3-12.31-4.19,3.67-10.77,4.52-15.42,1.09Z"/>
    <path class="cls-20" d="m379.39,798.02c1,3.05,2,6.11,3,9.16,6.08.14,11.52-5.75,10.68-11.57-3.26,4.28-10.14,5.46-13.69,2.41Z"/>
    <path class="cls-20" d="m410.22,610.14c-3.61,6.86-3.46,15.44.39,22.17,5.76-6.7,5.51-17.5-.39-22.17Z"/>
    <path class="cls-20" d="m200.37,445.88c-.03-.52.75-.63.86-.12,4.37,19.05,22.61,36.64,46.64,48.55,26.91,13.35,61.13,17.35,87.23,2.59-3.67,10.11-16.05,10.54-26.86,12.93-10.58,2.34-21.55,2.74-32.2.68-23.64-4.58-34.18-8.8-50.84-24.94-13.57-13.14-24.07-26.31-24.84-39.69Z"/>
    <path class="cls-20" d="m218.29,356.01c2.34-12.81,4.67-25.63,7.01-38.44,14.64-.7,27.68-13.09,28.67-27.21,5.79,5.79.22,18.67-5.76,24.27-5.98,5.61-11.16,7.87-19.29,6.01-1.62,12.17-5.06,24.12-10.63,35.37Z"/>
    <path class="cls-20" d="m382.41,435.01c26.93,5.91,47.23-2.72,68.59-17.31,23.91-16.33,25.29-39.43,26.36-61.57,1.55-32.11-5.33-44.08-13.84-64.67-5.29-12.78-11.9-25.65-23.09-34.17,25.75,32.21,29.49,77.22,18.09,116.4-4.79,16.47-12.45,32.83-25.92,43.93-13.48,11.1-59.87,20.78-69.08,12.55,2.39,1.62,18.9,4.83,18.9,4.83Z"/>
    <path class="cls-45" d="m348.03,652.86c-15.34,18.04-17.25,45.62-4.53,65.47,7.45,11.64,19,20.26,27.52,31.19,8.52,10.93,13.74,26.38,6.51,38.14,5.93-15.19,4.36-32.94-4.16-46.94-5.34-8.77-13.13-15.98-18.26-24.87-10.9-18.92-8.15-42.12-7.08-62.99Z"/>
    <path class="cls-45" d="m207.15,252.01c3.43,28.2,3.23,56.81-.58,84.96-3.39,25.02-9.62,49.86-9.19,75.09.44,25.23,8.74,51.87,29.13,67.65-19.28-18.74-25.14-47.07-23.83-73.46,1.31-26.39,8.79-52.12,12.22-78.33s2.36-54.35-7.76-75.91Z"/>
    <path class="cls-45" d="m360.51,631.83c12.86-12.79,18.93-31.64,15.83-49.22"/>
    <path class="cls-15" d="m462.46,913.17c1.78,25.19,3.55,50.37,5.33,75.56.35,4.92.94,10.36,4.74,13.69,3.8,3.33,11.73,1.85,12.19-4.14.03-3.51.06-7.02.08-10.54,5.8-.75,10.18-5.81,11.73-11.23,1.55-5.41.85-11.16.14-16.73-1.32-10.38-2.64-20.76-3.96-31.14-.64-5.05-1.41-10.39-4.74-14.34-3.28-3.9-8.47-5.76-12.69-8.73-4.22-2.97-14.01-9.11-12.83,7.61Z"/>
    <path class="cls-15" d="m375.75,894.67c-1.5,13.72-2.99,27.44-4.49,41.15-.49,4.49-1.6,9.82-5.97,11.52-3.82,1.48-8.32-.92-10.39-4.34s-2.3-7.54-2.41-11.49c-1.01-36.84,4.34-73.84,15.79-109.03"/>
    <path class="cls-15" d="m372.94,913.37c.25-1.98.5-3.96.75-5.93-.39,2.87-.78,5.74-1.17,8.61.96-3.56,1.92-7.12,2.88-10.68-.5,2.59-1,5.17-1.5,7.76.64-2.09,1.28-4.18,1.92-6.26-.65,2.52-1.31,5.05-1.96,7.57.45-1.75.89-3.5,1.34-5.25l-.19,3.59c.19-1.13.38-2.26-2.07.6Z"/>
    <path class="cls-15" d="m374,912.97c.26-2.28.52-4.56.77-6.85-.07,2.27-.14,4.53-.21,6.8.77-2.6.94-5.36.48-8.03-.89.71-1.46,1.76-1.04,8.07Z"/>
    <path class="cls-20" d="m496.29,973.49c2.26-5.49-.16-11.67-3.01-16.89-2.85-5.23-6.26-10.6-6.03-16.49.12-3.06,1.23-6,1.79-9.02,1.25-6.84-.53-14.15-4.81-19.75,3.11.94,5.44,3.53,6.76,6.39,1.32,2.86,1.78,6,2.22,9.1,1.87,13.18,3.75,26.37,5.62,39.55.25,1.73.49,3.55-.13,5.2s-2.37,3.05-4.15,2.7c.18-.6.36-1.2,1.74-.78Z"/>
    <path class="cls-35" d="m337.4,249.14l-2.54,3.08c-.45.54-.54,1.24-.43,1.92.06.38-.07.78-.39,1.07-4.05,3.64.2,21.94,27.7-1.4,15.71-13.33,23.89-9.9,43.33-6.69,40.93,6.75,16.18-13.53,10.29-16.84l-12.33-1.37c-.28-.16-.58-.27-.89-.33l-11.32-2.17c-7.29-1.39-14.82-1.04-21.92,1.05l-6.69,1.96c-4.92,1.44-9.37,4.08-12.91,7.66l-11.73,11.87c-.06.06-.12.12-.17.19Z"/>
    <path class="cls-64" d="m1606.67,268.85c-24.14-15.9-48.09-2.81-65.69,13.2-17.6,16-27.9,38.3-37.75,59.95-7.65,16.83-15.48,35.35-10.82,53.24,3.12,11.97,11.63,22.37,12.74,34.69,1.23,13.61-6.84,26.59-6.59,40.25.27,14.63,9.86,27.21,15.02,40.91,11.07,29.37-.8,65.66-27.07,82.82-6.71,4.38-15.3,9.63-14.32,17.58.56,4.54,4.52,8.14,8.93,9.36s9.14.42,13.47-1.04c31.72-10.7,43.22-52.09,73.33-66.71,26.58-12.9,60.55-1.42,86.41-15.69,9.82-5.42,17.43-14.06,26.61-20.49,17.91-12.54,43.15-18.19,51.67-38.32,8.58-20.26-5.21-42.79-5.57-64.78-.25-14.93,5.74-30.3.99-44.46-4.34-12.94-16.61-21.53-23.28-33.44-7.49-13.39-7.36-29.95-14.47-43.55-9.3-17.8-31.52-27.74-50.98-22.81-6.55,1.66-12.7,4.78-19.35,5.96s-7.71-2.99-13.29-6.66Z"/>
    <path class="cls-74" d="m1652.66,306.17c-8.05,8.3,21.88,9.4,28.28,12.32,4.07,1.86,11.24,7.54,14.98,9.52,2.71,1.44,7.31,3.75,10.02,6.24.35.32.92-.11.65-.5-1.66-2.4-4.96-4.79-6.4-6.73-9.86-13.31-36.77-31.95-47.54-20.86Z"/>
    <path class="cls-33" d="m1504.66,387.09c13.65-4.56,12.76-21.05,17.21-29.18,5.35-9.76,24.8-25.4,37.37-32.25-10.44,1.08-19.64,6.97-28.33,12.68-4.6,3.02-9.27,6.11-12.7,10.27-3.27,3.97-5.23,8.7-6.94,13.41-3.05,8.4-5.44,17-6.61,25.08Z"/>
    <path class="cls-50" d="m1726.9,380.66c-4.37,1.28-9.22-.7-12.49-3.73s-5.33-6.98-7.6-10.72c-5.89-9.72-13.57-18.49-22.58-25.82-4.93-4.01-11.07-7.79-17.49-6.75,3.36,4.49,9.02,6.83,13.74,10.06,6.36,4.35,11.16,10.5,14.52,17.17,3,5.95,4.98,12.45,9.25,17.68,4.28,5.22,11.9,8.91,18.35,6.34,3.18-1.26,5.56-3.84,4.28-4.22Z"/>
    <path class="cls-67" d="m1587.02,480.64c.72,4.26-2.06,8.49-5.72,11.1-3.66,2.61-8.11,3.96-12.37,5.54-11.07,4.09-21.4,9.98-30.4,17.33-4.93,4.02-9.78,9.2-9.62,15.33,5.2-2.48,8.48-7.42,12.56-11.36,5.49-5.3,12.64-8.89,20.14-11.06,6.69-1.94,13.81-2.84,19.91-6.08,6.11-3.24,11.08-9.81,9.32-16.19-.87-3.14-3.23-5.74-3.82-4.6Z"/>
    <path class="cls-73" d="m1656.48,464.52c5.76,1.94,17.96,3.45,18.3,7.95.34,4.5-6.62,15.69-6.53,20.2.19,8.82-6.46-6.46,2.05,0,8.5,6.46,12.53,8.91,23.52,13.11-22.3-8.59-33.34.91-33.71-17.02-.1-4.62,12.17-14,8.39-17.77-2.93-2.92-7.9-4.4-12.02-6.47Z"/>
    <path class="cls-25" d="m1674.97,406.39c4.53.48,8.08,4.15,9.74,8.17,1.66,4.03,1.82,8.44,2.27,12.74,1.15,11.17,4.33,22.15,9.36,32.32,2.75,5.56,6.7,11.37,12.98,12.85-1.11-5.4-5.24-9.7-8.14-14.47-3.9-6.42-5.61-13.89-5.78-21.3-.15-6.61.87-13.33-.76-19.76-1.63-6.43-6.97-12.71-13.94-12.81-3.44-.05-6.72,1.41-5.72,2.25Z"/>
    <path class="cls-71" d="m1513.57,441.72c-2.84-3.38-2.62-8.35-.79-12.31,1.83-3.96,5-7.19,7.9-10.53,7.51-8.67,13.45-18.57,17.48-29.13,2.2-5.77,3.74-12.53.4-17.79-3.24,4.56-3.53,10.38-5.03,15.69-2.03,7.15-6.39,13.58-11.79,18.93-4.82,4.77-10.55,8.85-14.19,14.49-3.64,5.64-4.55,13.66.31,18.4,2.39,2.34,5.81,3.51,5.72,2.25Z"/>
    <path class="cls-23" d="m1564.64,441.54c-10.52,6.6-5.65,20.63-7.43,28.51-2.14,9.45-14.84,26.74-23.86,35.1,8.64-2.98,15.02-9.86,21.01-16.47,3.17-3.5,6.39-7.08,8.28-11.33,1.8-4.06,2.3-8.52,2.59-12.91.51-7.84.41-15.71-.6-22.9Z"/>
    <path class="cls-62" d="m1590.02,862.87c1.1.39,2.02,1.16,2.46,2.32,1.08-.38,2.26-.26,3.31.22,1.54-1.22,3.46-1.89,5.93-1.53.86.13,1.58.6,2.15,1.22.85-1.14,1.97-1.97,3.62-2.53,1.41-.47,2.79-.07,3.91.7.89-6.19,1.83-12.38,2.87-18.55,1.05-6.24,1.78-12.52,2.83-18.76,1.01-5.95,3.09-11.95,3.64-17.94.05-.57.19-1.07.4-1.53-.48-5.31-.22-10.66-.57-16-.49-7.51-1.44-15.21,1.51-22.4.07-.16.15-.3.23-.45-.23-.33-.44-.68-.62-1.05-1.53-3.2-.94-7.15-.94-10.58,0-4.56,6.42-6.04,8.87-2.28,1.95,2.98,4.46,4.54,5.54,8.09.18.61.35,1.22.51,1.83,1.21-.02,2.44.38,3.37,1.25,2.53-.16,5.24,1.43,5.23,4.39,0,2.23-.13,4.43-.3,6.63.89,2.53,1.73,5.08,2.48,7.67,2.63,7.22,5.13,14.48,7.27,21.85.61.7,1.01,1.56,1.05,2.58.02.45.04.91.05,1.36,3.33,12.83,4.22,26.11,8.95,38.63,1.5,3.96-2.89,6.28-6.21,5.21.3,3.19.63,6.37.98,9.55.55-1.41,1.21-2.77,2.08-4.04,1.21-1.75,3.19-2.5,5.36-2.07,2.38.48,3.79,1.99,4.64,3.89,2.3-2.8,8.41-1.05,8.51,3.07.09,3.68.95,7.21,1.37,10.84.02-.06.04-.12.06-.17.4-4.07,1.08-8.11,2.38-11.86.7-2.03,2.62-3.25,4.61-3.27.24-.24.49-.47.75-.69,1.54-1.24,3.64-1.6,5.35-.89-.6-2.84-.84-5.94-.47-9.57.03-.33.06-.67.09-1-.06-.79-.12-1.59-.13-2.39-.02-.78.17-1.46.48-2.04,1.29-19.88.2-48.75,8.57-64.97,11.92-23.1,24.31-64.68,8.25-84.04-13.01-15.68-28.83-29.75-47.57-65.85-6.2-11.93-3.46-25.43-7.94-38.04-4.48-12.6-17.42-25.27-30.81-29.22-12.08-3.57-25.73,1.13-34.58,9.7-8.85,8.57-15.61,21.35-10.76,28.69,13.18,19.97,4.47,46.3-7.65,66.87-12.12,20.57-27.84,40.97-28.21,64.53-.38,24.34,15.72,45.69,29.36,66.31,13.2,19.94,24.97,44.06,17.73,66.29Z"/>
    <path class="cls-21" d="m1720.35,423.88c.36-12.43-14.81-16.14-20.68-21.98-7.05-7.02-14.79-27.19-16.86-39.34-2.44,8.86-.13,17.99,2.17,26.65,1.22,4.58,2.47,9.25,5.1,13.18,2.51,3.75,6.13,6.64,9.82,9.31,6.58,4.76,13.55,9.04,20.45,12.18Z"/>
    <path class="cls-58" d="m1557.21,419.72c-8.04-8.31-11.94,19.66-15.62,25.39-2.34,3.65-9,9.85-11.44,13.18-1.77,2.41-4.63,6.51-7.51,8.83-.37.3.03.87.46.66,2.69-1.33,5.52-4.21,7.7-5.39,14.98-8.03,37.15-31.56,26.4-42.67Z"/>
    <path class="cls-62" d="m1589.52,473.34c-1.94,29.35-17.09,61.61-36.71,82.82,35.53-3.74,71.51-3.62,107.01.33,7.98.89,16.32,1.94,23.87-.69-1.73-.82-3.47-1.64-4.63-4.38-27.62-18.39-45.05-49.82-45.38-81.83"/>
    <path class="cls-63" d="m1587.22,477.43l3.11,16.15c3.7,6.06,10.38,10.21,18.04,11.21l7.57.99,8.4-5.55c2.96-1.95,5.44-4.42,7.29-7.26l6.68-15.73-51.1.19Z"/>
    <path class="cls-62" d="m1536.23,387.66c1.81-114.92,140.63-145.67,155.04-.41.03.27-.03.56.03.82,27.04,122.37-173.15,132.57-155.07-.42Z"/>
    <path class="cls-66" d="m1608.73,294.9c-10.59,6.45-19.19,15.47-26.57,25.14-8.27,10.85-15.05,26.4-18.79,35.73-3.73,9.29-9.67,25.46-9.42,38.74.32,16.65,4.49,44.46,12.65,56.81,6.41,9.7,29.62,28.51,29.62,28.51,0,0-19.26-3.83-24.69-7.36-28.52-18.52-42.17-38.09-45.06-67.82-2.23-22.85,12.44-61.07,22.66-75.55,10.82-15.34,38.28-33.85,59.61-34.21Z"/>
    <ellipse class="cls-6" cx="1646.27" cy="374.4" rx="15.76" ry="12.93"/>
    <path class="cls-19" d="m1643.75,392.17c-11.44-8.61-32.12,16.45-58.46,4.05-26.34-12.4,4.64,28.82,12.69,31.07,5,1.4,26.83-.76,32.53-5.51,6.14-5.12,19.84-24.64,13.24-29.62Z"/>
    <path class="cls-3" d="m1603.13,386.71c4.33,1.67,9.74-.19,12.53-3.43,2.79-3.24,3.4-7.48,3.04-11.47-.73-8.09-4.97-15.65-6.85-23.61s-.68-17.41,7.03-22.29"/>
    <ellipse class="cls-8" cx="1580.97" cy="374.4" rx="16.19" ry="13.33"/>
    <polyline class="cls-8" points="1560.81 357.59 1575.54 363.58 1568.38 371.96"/>
    <polygon class="cls-8" points="1653.79 365.97 1666.42 359.59 1660.1 375.55 1653.79 365.97"/>
    <path class="cls-18" d="m1566.88,393.36c-.49-2.41-5.18-6.14-7.74-6.55-2.74-.44-9.33,0-10.87,2.18-1.34,1.9-.78,7.27.63,9.12,1.72,2.25,8.05,4.91,10.87,4.17,2.84-.75,7.67-6.18,7.11-8.93Z"/>
    <path class="cls-18" d="m1657.64,394.55c-.84,1.89,1.89,6.34,3.75,7.41,2.26,1.3,8.01,1.45,10.53.72,2.48-.72,6.48-4.83,7.02-7.23.41-1.81-2.02-5.65-3.75-6.51-4.1-2.04-15.75,1.56-17.56,5.6Z"/>
    <ellipse class="cls-75" cx="1582.81" cy="370.98" rx="5.11" ry="3.41"/>
    <ellipse class="cls-75" cx="1645.02" cy="370.4" rx="4.69" ry="2.83"/>
    <path class="cls-62" d="m1634.23,508.47c19.88,8.53,40.22,17.02,61.9,19.37,21.68,2.34,45.28-2.35,60.63-17.06,13.6-13.02,18.94-31.88,21.2-50.08,3.9-31.44.13-63.71-10.59-93.67-.16,0-.33,0-.72-.38-4.02,2.01-9.19.58-12.56-2.31s-5.32-6.95-7.06-10.92c-1.26-2.88-2.49-5.87-2.56-8.99-.07-3.12,1.22-6.45,4.02-8.1,3.73-2.2,8.9-.64,11.91,2.39,3.01,3.04,4.39,7.18,7.24,10.92-8.44-12.82-10.34-29.32-5.01-43.56,2.85-7.62,8.88-15.28,17.37-15.9,8.41-.61,15.78,6.29,18.19,13.96,2.41,7.67,1.07,15.89-.29,23.79-2.72,15.77-5.44,31.55-5.72,47.41,4.71,26.04,9.44,52.34,7.88,78.72-1.56,26.38-10.01,53.21-28.68,72.81-18.67,19.6-48.77,30.51-75.41,22.83-22.46-6.48-40.85-24.98-64-25.56-.48-6.3.73-12.71,2.26-15.66Z"/>
    <path class="cls-59" d="m1578.58,287.99c-9.36,3.03-18.76,7.63-23.95,15.61-5.19,7.98-4.43,19.98,3.8,25.17,4.88,3.07,11.36,3.19,16.89,1.36,5.53-1.83,10.24-5.39,14.42-9.28,4.87-4.54,10.43-10.08,17.18-9.14,3.93.55,7.21,3.28,11.13,3.92,5.2.84,10.12-2.12,14.7-4.61,4.58-2.49,10.3-4.62,14.93-2.22,2.64,1.36,4.69,4.11,7.69,4.19,1.86.05,3.56-.99,4.92-2.18,4.45-3.9,6.64-9.99,5.62-15.65s-5.21-10.72-10.77-13c-11.06-4.53-23.62,2-35.66,1.52-7.75-.31-15.08-3.54-22.8-4.28-7.72-.74-17,2.29-18.12,8.59Z"/>
    <path class="cls-10" d="m1592.79,466.34c3.65-7.33,12.14-12.25,20.69-11.98,8.55.27,16.67,5.7,19.26,13.46"/>
    <path class="cls-11" d="m1651.38,340.61c7.78,1.16,14.78,6.29,17.92,13.14"/>
    <path class="cls-11" d="m1577.34,340.9c-9.36,1.28-18.12,6.19-23.8,13.37"/>
    <path class="cls-62" d="m1550.67,544.54c-15.12,10.88-21.47,32.01-14.23,48.95,7.24,16.94,27.69,27.81,46.19,24.07,18.5-3.74,32.61-22.03,30.51-40.21-1.4,13.66,6.59,27.65,18.92,34.6,12.34,6.95,28.3,6.92,40.93.67,11-5.43,19.61-15.64,21.71-27.41,2.8-15.68-5.93-31.53-17.68-42.8-17.37-16.67-41.98-26.09-66.36-25.39-24.38.7-43.67,15.77-60.01,27.52Z"/>
    <path class="cls-76" d="m1608.17,609.22c9.19-6.7,10.37-20.18,5.23-30.04-5.14-9.86-15.11-16.64-25.37-21.77-3.13-1.56-6.43-3.04-9.95-3.22-3.53-.18-7.36,1.21-9.02,4.17-1.65,2.93-.82,6.51.04,9.73,2.59,9.66,5.18,19.31,7.77,28.97,1.37,5.11,2.93,10.53,7.04,14.08,4.28,3.7,10.75,4.61,16.3,3.05s10.21-5.31,7.98-4.97Z"/>
    <path class="cls-76" d="m1652.38,525.14c24.84,13.7,54.52,23.99,82,16.03,29.02-8.41,48.33-35.76,54.71-63.89,6.38-28.14,2.17-57.34-1.85-85.87s-7.77-57.86-.54-85.81c1.55-5.97-.05-14.04,5.65-10.66,2.62,1.55,7.49,10.75,8.01,14.91,1.1,8.74-2.85,20.96-3.9,35-1.9,25.4,1.76,50.84,3.64,76.25,1.88,25.41,1.88,51.53-6.98,75.57-8.86,24.04-28.5,42.3-53.78,52.96-27.53,11.61-56.98-3.81-81.94-19.81,19.17,6.22,35.6,21.78,36.82,42.75-11.09-24.13-32.12-30.75-41.83-47.42Z"/>
    <path class="cls-62" d="m1600.1,513.34c-22.72,8.61-45.97,17.19-70.74,19.56-24.78,2.37-51.74-2.37-69.29-17.22-15.54-13.15-21.64-32.19-24.23-50.57-4.46-31.75-.15-64.34,12.11-94.59.19,0,.37,0,.83-.39,4.59,2.03,10.5.58,14.35-2.33,3.85-2.92,6.08-7.01,8.07-11.03,1.45-2.91,2.84-5.93,2.93-9.08.08-3.15-1.4-6.52-4.59-8.18-4.27-2.22-10.17-.65-13.61,2.42-3.44,3.07-5.02,7.25-8.27,11.03,9.65-12.94,11.82-29.61,5.72-43.99-3.26-7.69-10.14-15.43-19.85-16.05-9.61-.61-18.03,6.35-20.79,14.1-2.76,7.74-1.22,16.05.33,24.02,3.11,15.93,6.21,31.86,6.54,47.88-5.39,26.29-10.79,52.86-9,79.49,1.79,26.64,11.43,53.74,32.77,73.53,21.34,19.79,55.73,30.81,86.18,23.05,25.67-6.54,46.69-25.23,73.14-25.82.55-6.36-.83-12.84-2.59-15.81Z"/>
    <path class="cls-13" d="m1534.6,590c5.36-25.11,28.32-33.08,42.65-49.53,5.68,25.22,31.8,77.83,31.8,77.83,0,0-38.51.86-44.9-1.6-7.23-2.79-14.62-5.68-20.47-10.58-5.85-4.91-9.9-12.28-9.08-16.11Z"/>
    <path class="cls-13" d="m1574,549.02c-.28-9.42-2.1-18.8-5.36-27.7,3.23-1.53,6.46-3.06,9.69-4.59.14,8.46.27,16.91.41,25.37.02,1.53.03,3.14-.75,4.48-.78,1.34-2.65,2.24-3.98,2.43Z"/>
    <path class="cls-13" d="m1647.72,544.69c-3.81-11.53-4.8-23.89-2.89-35.84,3.14,1.2,6.27,2.41,9.41,3.61-3.65,11.17-5.46,22.89-6.52,32.22Z"/>
    <path class="cls-15" d="m1590.27,944.27c2.33.42,3.77,3.21,2.69,5.19-.58,1.05-2.22,1.77-3.07.9-.37-.38-.46-.94-.49-1.46-.14-2.18.26-4.38.87-4.62Z"/>
    <path class="cls-62" d="m1603.34,939.35c.03-.24.05-.48.09-.71,0-.16.02-.32.05-.48,0-.05,0-.09,0-.14-.02-.29.01-.56.06-.81-1.92-66.19,51.54-195.34-6.38-218.5-12.45-4.98,12.29,67.38,5.08,80.84-26.87,50.12-30.72,87.07-32.59,134.58-.15,3.74-2.53,7.56-.74,10.89,2.88,5.37,11.09,4.99,17.12,3.09,5.08-1.6,10.86-3.62,15.7-2.18.35-1.79.79-3.21,1.35-5.44.09-.37.18-.75.27-1.13Z"/>
    <path class="cls-13" d="m1603.14,613.36c19.57,4.11,41.67,2.91,59.91-3.24-1.43-2.56-6.02-3.88-10.23-3.87-4.22,0-8.24,1.04-12.28,1.82-13.63,2.63-28.52,2.45-41.99-.5-1.49,2.4-.08,5.4,3.22,6.87,3.3,1.46,8.15,1.23,1.37-1.07Z"/>
    <path class="cls-62" d="m1598.49,957.85c-2.09,21.91-4.19,43.83-6.28,65.74-.41,4.28-1.11,9.02-5.59,11.91-4.48,2.89-13.83,1.61-14.37-3.6-.03-3.06-.07-6.11-.1-9.17-6.84-.65-12-5.06-13.83-9.77-1.83-4.71-1.01-9.71-.17-14.56,1.56-9.03,3.12-18.07,4.67-27.1.76-4.39,1.66-9.04,5.59-12.48,3.87-3.4,9.99-5.01,14.96-7.59,4.97-2.58,16.52-7.93,15.13,6.62Z"/>
    <path class="cls-76" d="m1626.66,757.82c-1.36-7.86-3.82-6.64-12.22-6.85,16.22,67.93-37.77,215.52-27.83,284.53,4.81-1.44,13.33-81.83,14.29-86.12.91-4.08,1.78-8.05,2.59-11.92.02-.21.06-.4.12-.59,12.41-58.99,14.18-95.25,23.71-146.63,1.54-8.31.7-24.56-.66-32.42Z"/>
    <path class="cls-62" d="m1654.23,704.07c-54.02,45.29,6.27,181.15,19.96,248.29.75,3.7,1.82,7.85,5.25,9.76,3.82,2.13,9.02.28,11.77-3.02,2.75-3.3,3.64-7.63,4.31-11.79,6.12-37.86,1.3-77.26-10.54-113.26,7.9-21.96,6.79-46.72-3.05-67.97-4.42-9.55-12.42-19.43-23.42-19.44-8.92,0,1.75-47.62-4.27-42.57Z"/>
    <path class="cls-76" d="m1660.89,556.01c-5.76-3.14-7.63-7.28-13.2-3.84-2.87,1.77-9.88,5.86-11.17,8.87-2.63,6.13-4.68,12.49-6.11,18.97-1.23,5.54-1.94,11.56.71,16.63,1.9,3.63,3.71,8.07,7.02,10.64,4.23,3.28,11.07,5.03,16.29,3.48,5.76-1.71,7.72-8.4,8.33-14.09,1.51-14.03.29-28.32-1.86-40.65Z"/>
    <path class="cls-76" d="m1694.72,959.66c1.82-53.55-21.17-107.59-8.11-159.81,4.1-16.4,11.65-31.93,16.21-48.23,4.56-16.3,5.9-34.25-2.12-49.39-2.14-4.05-15.95-28.61-12.03-31.32,3.92-2.71,20.61,20.05,23.39,23.76,12.97,17.3,16.89,40.04,10.38,60.16-6.46,19.97-14.74,38.16-21.37,58.07-8.57,25.75-4.67,50.43-3.17,78.19,1.45,26.91,7.17,56.25-3.17,68.57Z"/>
    <path class="cls-13" d="m1626.76,757.81c18.2-2.97,29.01-27.95,42.2-40.4,14.64-13.83,20.79-47.17,20.79-47.17,0,0-27.36,17.24-37.49,21.02-5.4,2.02-22.67,4.72-22.67,4.72,0,0-17.95-4.2-23.9-5.69-10.08-2.52-42.2-12.06-42.2-12.06,0,0,24.7,63.73,63.18,79.59,2.44,1-2.6.42.1-.01Z"/>
    <path class="cls-13" d="m1644.94,536.02c3.02,28.63-4.61,79.4-4.61,79.4,0,0,39.02,3.07,48.33-4.32,8.94-7.09,9.81-33.38,3.13-44.09-5.26-8.43-15.16-11.91-24.23-15.18-9.07-3.27-18.87-7.69-22.62-15.81Z"/>
    <path class="cls-51" d="m1657.11,841.37c-2.15,4.91,2.5,11.21,8.1,10.97,5.6-.24,9.63-6.92,7.27-12.04-4.17,3.59-10.73,4.42-15.36,1.07Z"/>
    <path class="cls-51" d="m1595.95,837c1,2.99,1.99,5.97,2.99,8.96,6.06.14,11.48-5.62,10.64-11.31-3.25,4.19-10.1,5.34-13.63,2.36Z"/>
    <path class="cls-77" d="m1627.62,653.72c-3.6,6.7-3.45,15.09.39,21.68,5.73-6.55,5.49-17.12-.39-21.68Z"/>
    <path class="cls-76" d="m1418.62,493.11c-.03-.51.74-.62.86-.12,4.35,18.62,22.52,35.82,46.45,47.48,26.8,13.05,60.88,16.96,86.88,2.53-3.65,9.88-15.99,10.3-26.75,12.64-10.54,2.29-21.46,2.68-32.06.66-23.54-4.47-34.04-8.61-50.63-24.38-13.52-12.85-23.97-25.73-24.74-38.81Z"/>
    <path class="cls-76" d="m1436.47,405.24c2.33-12.53,4.65-25.06,6.98-37.59,14.58-.69,27.57-12.8,28.56-26.61,5.77,5.66.22,18.25-5.73,23.73-5.95,5.48-11.12,7.69-19.21,5.88-1.61,11.9-5.04,23.58-10.59,34.58Z"/>
    <path class="cls-76" d="m1599.95,482.49c21.8,7.54,50.76-3.03,68.31-16.92,22.37-17.71,25.19-38.55,26.25-60.21,1.54-31.4-5.31-43.1-13.79-63.23-5.27-12.5-9.26-22.99-20.41-31.32,25.64,31.5,26.78,73.41,15.43,111.72-4.77,16.11-12.4,32.1-25.82,42.96-13.42,10.85-51.6,19.12-67.11,11.16,2.38,1.58,14.99,5.09,17.14,5.84Z"/>
    <path class="cls-66" d="m1565.69,695.5c-15.27,17.64-17.18,44.6-4.51,64.01,7.42,11.38,18.93,19.81,27.41,30.5,8.49,10.69,13.69,25.8,6.48,37.3,5.91-14.85,4.34-32.21-4.14-45.89-5.32-8.58-13.08-15.63-18.18-24.32-10.86-18.5-8.12-41.19-7.06-61.6Z"/>
    <path class="cls-66" d="m1425.38,303.54c3.41,27.57,3.22,55.55-.57,83.08-3.37,24.47-9.58,48.75-9.15,73.43.43,24.67,8.71,50.72,29.01,66.15-19.2-18.33-25.04-46.02-23.73-71.83,1.31-25.81,8.76-50.96,12.17-76.6,3.41-25.63,2.35-53.14-7.73-74.23Z"/>
    <path class="cls-66" d="m1578.11,674.93c12.81-12.5,18.85-30.94,15.76-48.13"/>
    <path class="cls-62" d="m1679.64,950.03c1.77,24.63,3.54,49.25,5.31,73.88.35,4.81.94,10.13,4.72,13.38s11.68,1.81,12.14-4.05c.03-3.43.06-6.87.08-10.3,5.78-.73,10.14-5.69,11.68-10.98,1.55-5.29.85-10.91.14-16.36-1.32-10.15-2.63-20.3-3.95-30.45-.64-4.94-1.4-10.16-4.72-14.03-3.27-3.82-8.44-5.63-12.63-8.53-4.2-2.9-13.96-8.91-12.78,7.44Z"/>
    <path class="cls-62" d="m1596.09,928.92c-1.49,13.41-4.3,28.57-7.26,43.26-.87,4.33-1.6,9.61-5.94,11.26-3.8,1.45-8.28-.9-10.35-4.24s-2.29-7.38-2.4-11.24c-1.01-36.03,4.33-72.2,15.73-106.61"/>
    <path class="cls-76" d="m1713.34,1009.01c2.25-5.37-.16-11.41-2.99-16.52-2.84-5.11-6.23-10.36-6-16.13.12-2.99,1.23-5.87,1.78-8.82,1.25-6.69-.53-13.84-4.79-19.31,3.1.92,5.42,3.45,6.73,6.24,1.32,2.79,1.77,5.87,2.21,8.9,1.87,12.89,3.73,25.78,5.6,38.67.25,1.7.48,3.47-.13,5.08-.61,1.61-2.36,2.98-4.14,2.64.18-.59.36-1.17,1.73-.76Z"/>
    <path class="cls-57" d="m1632.42,284.26s-25.02-.6-31.58,5.87c-6.56,6.47-12.19,19.17-12.19,19.17l27.08-17.85,16.69-7.19Z"/>
    <path class="cls-55" d="m1653.58,284.02s-25.02-.6-31.58,5.87c-6.56,6.47-5.84,14.4-5.84,14.4l27.08-17.85,10.34-2.41Z"/>
    <path class="cls-56" d="m1600.63,285.5s-25.02-.6-31.58,5.87c-6.56,6.47-12.19,19.17-12.19,19.17l27.08-17.85,16.69-7.19Z"/>
  </g>
  <g id="Layer_5" data-name="Layer 5">
    <path class="cls-34" d="m554.55,93.31c-9.17-5.26-20.11-6.41-30.68-6.53-4.46-.05-9.27.18-12.78,2.93-6.39,5-4.66,15.73,1.02,21.52s13.84,8.2,21.33,11.32c19.64,8.21,36.53,22.84,47.44,41.11-.89-14.37,6.97-27.6,11.79-41.17,4.53-12.74,6.45-26.4,5.62-39.9-.21-3.45-.62-6.95-2.04-10.1-3.26-7.27-11.05-11.19-18.27-14.56-2.71-1.26-5.59-2.56-8.56-2.27-5.53.54-9.03,6.14-10.97,11.35-3.45,9.27-4.77,19.33-3.84,29.17"/>
    <path class="cls-34" d="m393.32,52.95c7.66-4.04,16.79-4.92,25.61-5.01,3.72-.04,7.74.14,10.67,2.25,5.33,3.84,3.89,12.08-.85,16.53s-11.56,6.3-17.8,8.7c-16.39,6.3-30.49,17.55-39.61,31.58.75-11.04-5.82-21.2-9.84-31.63-3.78-9.79-5.39-20.28-4.69-30.65.18-2.65.52-5.34,1.7-7.76,2.72-5.58,9.23-8.6,15.25-11.19,2.26-.97,4.66-1.97,7.15-1.74,4.62.41,7.54,4.72,9.16,8.72,2.88,7.12,3.99,14.84,3.2,22.41"/>
    <path class="cls-34" d="m194.78,133.63c-10.16-2.92-21.05-1.44-31.35.96-4.34,1.01-8.96,2.39-11.72,5.89-5.01,6.38-.79,16.39,6.11,20.66s15.39,4.67,23.41,5.92c21.03,3.3,40.91,13.49,55.86,28.64-4.29-13.75.2-28.47,1.65-42.79,1.37-13.45-.02-27.18-4.04-40.09-1.03-3.3-2.26-6.6-4.38-9.33-4.9-6.28-13.4-8.24-21.21-9.8-2.93-.58-6.03-1.16-8.86-.17-5.25,1.84-7.31,8.12-7.95,13.64-1.15,9.82-.04,19.91,3.22,29.25"/>
    <path class="cls-34" d="m1456.79,185.61c-9.17-5.26-20.11-6.41-30.68-6.53-4.46-.05-9.27.18-12.78,2.93-6.39,5-4.66,15.73,1.02,21.52,5.68,5.79,13.84,8.2,21.33,11.32,19.64,8.21,36.53,22.84,47.44,41.11-.89-14.37,6.97-27.6,11.79-41.17,4.53-12.74,6.45-26.4,5.62-39.9-.21-3.45-.62-6.95-2.04-10.1-3.26-7.27-11.05-11.19-18.27-14.56-2.71-1.26-5.59-2.56-8.56-2.27-5.53.54-9.03,6.14-10.97,11.35-3.45,9.27-4.77,19.33-3.84,29.17"/>
    <path class="cls-34" d="m1680.48,108.2c-.85-10.54-6.09-20.21-11.98-28.99-2.48-3.71-5.4-7.54-9.65-8.88-7.74-2.43-15.61,5.05-17.17,13.01-1.56,7.96,1.07,16.05,2.73,23.99,4.34,20.84,1.83,43.04-7.06,62.38,11.35-8.87,26.7-9.87,40.62-13.57,13.07-3.48,25.42-9.62,36.08-17.94,2.72-2.13,5.38-4.45,7.18-7.4,4.15-6.8,2.98-15.45,1.67-23.3-.49-2.95-1.05-6.05-2.97-8.34-3.57-4.26-10.18-3.97-15.57-2.62-9.6,2.4-18.64,7-26.22,13.34"/>
    <path class="cls-34" d="m1820.91,209.61c7.35-5.26,16.11-6.41,24.58-6.53,3.57-.05,7.43.18,10.24,2.93,5.12,5,3.74,15.73-.81,21.52s-11.09,8.2-17.09,11.32c-15.74,8.21-29.27,22.84-38.02,41.11.72-14.37-5.58-27.6-9.45-41.17-3.63-12.74-5.17-26.4-4.5-39.9.17-3.45.5-6.95,1.63-10.1,2.61-7.27,8.86-11.19,14.64-14.56,2.17-1.26,4.48-2.56,6.86-2.27,4.43.54,7.24,6.14,8.79,11.35,2.77,9.27,3.83,19.33,3.07,29.17"/>
    <path class="cls-34" d="m70.79,329.61c-9.17-5.26-20.11-6.41-30.68-6.53-4.46-.05-9.27.18-12.78,2.93-6.39,5-4.66,15.73,1.02,21.52,5.68,5.79,13.84,8.2,21.33,11.32,19.64,8.21,36.53,22.84,47.44,41.11-.89-14.37,6.97-27.6,11.79-41.17,4.53-12.74,6.45-26.4,5.62-39.9-.21-3.45-.62-6.95-2.04-10.1-3.26-7.27-11.05-11.19-18.27-14.56-2.71-1.26-5.59-2.56-8.56-2.27-5.53.54-9.03,6.14-10.97,11.35-3.45,9.27-4.77,19.33-3.84,29.17"/>
    <path class="cls-34" d="m575.27,555.61c9.45-5.26,20.72-6.41,31.61-6.53,4.6-.05,9.56.18,13.17,2.93,6.58,5,4.81,15.73-1.05,21.52-5.85,5.79-14.26,8.2-21.98,11.32-20.24,8.21-37.64,22.84-48.89,41.11.92-14.37-7.18-27.6-12.15-41.17-4.67-12.74-6.65-26.4-5.79-39.9.22-3.45.64-6.95,2.1-10.1,3.36-7.27,11.39-11.19,18.83-14.56,2.79-1.26,5.76-2.56,8.82-2.27,5.7.54,9.31,6.14,11.31,11.35,3.56,9.27,4.92,19.33,3.95,29.17"/>
  </g>
  <g id="Layer_1" data-name="Layer 1">
    <path class="cls-52" d="m860.24,380.86c1.69,0,1.7-2.62.01-2.62s-1.7,2.62-.01,2.62h0Z"/>
    <path class="cls-68" d="m897.26,212.33c-10.65,3.81-23.16-3.82-26.79-14.54-3.62-10.72.38-22.96,7.91-31.4,7.53-8.44,18.09-13.6,28.82-17.19-11.49-11.84-4.64-33.64,9.75-41.71,14.39-8.06,32.46-5.54,47.9.26-5.09.17-10.37.39-14.91,2.7-4.54,2.31-8.13,7.33-7.09,12.32,1.62,7.75,11.68,9.5,19.57,10.11,20.37,1.57,41.21,7.1,56.66,20.47,15.44,13.37,24.11,35.9,16.91,55.02s-32.85,30.27-49.87,18.96c-7.8-5.19-12.71-13.79-20.08-19.58-10.71-8.42-25.58-9.95-38.92-7.2-13.34,2.74-25.17,10.1-29.87,11.78Z"/>
    <path class="cls-39" d="m887.51,215.35c-15.33,41.31-30.67,82.61-46,123.92-5.57,15-10.83,32.93-1.6,46.01,9.78,13.86,29.88,14.07,46.79,12.86,19.96-1.42,39.92-2.85,59.88-4.27,10.72-.76,22.68-2.15,29.5-10.45,5.3-6.46,5.99-15.42,6.44-23.77,1.96-35.69,3.92-71.38,5.87-107.06.73-13.33,1.29-27.45-5.08-39.18-9.18-16.87-30.95-23.86-49.88-20.6-18.93,3.25-35.39,14.75-45.92,22.55Z"/>
    <path class="cls-39" d="m904.86,401.36c1.69,0,1.7-2.62.01-2.62s-1.7,2.62-.01,2.62h0Z"/>
    <path class="cls-39" d="m781.77,358.3c14.06,6.44,32.71-1.24,38.45-15.6,5.73-14.37-2.24-32.57-16.58-38.39-14.33-5.81-32.53,1.45-39.21,15.4-5.84,12.19-3.27,26.57-5.27,39.94-2.03,13.52-8.72,25.81-15.3,37.79-17.8,32.38-35.6,64.77-53.39,97.15-2.31,4.2-4.51,9.76-1.37,13.38,2.47,2.85,6.85,2.71,10.59,2.33,48.09-4.8,96.17-9.6,144.26-14.4-1.16.31-2.32.62-3.48.94-11.5,34.63-23.01,69.25-34.51,103.88-3.35,10.09-6.75,20.57-5.6,31.13s8.2,21.28,19.01,24c1.66,7.33,7.88,12.96,14.82,15.85s14.59,3.46,22.1,3.89c45.4,2.61,91.02,1.27,136.19-3.99,4.24-.49,8.8-1.17,11.89-4.11,5.39-5.13,3.6-13.95,1.7-21.15-4.82-18.28-7.66-37.08-8.48-55.97-1.72-39.94,5.61-79.66,12.91-118.96,8.74-1.45,17.49-2.91,26.22-3.63,23.67-.29,47.32-3.02,70.43-8.13-35.75,38.42-66.57,81.42-91.47,127.61-4.16,7.71-8.27,16.46-5.96,24.92,1.72,6.28,6.76,11.16,12.33,14.53,12.39,7.52,28.81,8.71,41.46,1.62,12.64-7.09,20.31-22.79,16.68-36.83-3.63-14.03-19.22-24.26-33.26-20.67,44.33-47.34,82.92-100.06,112.6-160.89-63.86,7.83-127.72,15.66-191.58,23.48-5.74.7-11.66,1.39-17.21-.22-10.71-3.11-17.44-14.32-18.73-25.39-1.3-11.07,1.75-22.14,4.77-32.88-13.59,4.56-28.29,5.78-42.45,3.52.47,14.98.94,29.96,1.41,44.94.18,5.62.26,11.61-2.71,16.39-4.92,7.92-15.83,9.17-25.15,8.72-9.31-.44-19.62-1.45-27.02,4.22,8.87-10.73,7.76-28.3-2.38-37.84-10.14-9.53-27.75-9.55-37.91-.04-10.16,9.51-11.3,27.08-2.46,37.83-19.39.2-38.74,4.33-56.53,12.05,15.18-36.4,30.35-72.79,40.2-106.43Z"/>
    <path class="cls-39" d="m808.78,889.95c16.05,68.29,27.31,137.7,33.21,207.61,20.89-7.82,44.07-9.41,65.83-4.51-25.22-86.04-38.13-175.68-38.21-265.34-23.84,3.19-47.37,8.64-70.26,16.03"/>
    <path class="cls-39" d="m879.61,817.26c8.82,93.92,26.92,186.97,53.94,277.35,25.86-6.91,53.14-8.5,79.63-4.63-7.15-88.32-7.92-177.15-2.3-265.57.32-5.06.36-10.9-3.45-14.24-3.39-2.97-8.44-2.72-12.93-2.29-38.9,3.71-77.8,7.41-114.9,9.38Z"/>
    <path class="cls-39" d="m1026.36,449.92c-9.26,6.25-12.27,19.79-7.55,29.95,4.71,10.17,16.03,16.46,27.18,16.34s21.82-6.12,28.86-14.81c4.55-5.62,7.81-12.78,6.98-19.98-.9-7.81-6.42-14.37-12.71-19.05-7.32-5.45-16.54-9.1-25.49-7.45-8.95,1.64-16.99,9.81-17.26,15.01Z"/>
    <path class="cls-44" d="m921.08,197.39c-9.71-3.34-20.95-8.37-22.7-18.5-1.16-6.74,2.69-13.56,8.04-17.83s12-6.49,18.5-8.63c-8.07-8.76-10.14-22.55-5-33.29s17.18-17.78,29.07-16.99c-11.6,4.7-18.8,17.54-18.48,30.05.32,12.51,7.35,24.27,17.16,32.03-3.6-5.29-11.92-5.87-17.05-2.05-5.13,3.82-7.13,10.86-6.19,17.19.94,6.33,4.41,12.01,8.49,16.94-4.6,1.34-8.93,2.09-11.84,1.09Z"/>
    <path class="cls-39" d="m983.85,287.25c1.28-6.11,2.67-12.46,6.52-17.37,3.86-4.91,10.96-7.87,16.53-5.04,4.61,2.35,6.79,8.01,6.43,13.18-.36,5.17-2.8,9.94-5.43,14.41-7.91,13.45-18.03,25.59-29.83,35.81-2.67-15.32,3.59-30.52,5.78-40.98Z"/>
    <path class="cls-43" d="m1016.64,470.83c-5.27,14.51,23.84,30.84,39.53,27.83,15.68-3.01,27.84-20.56,25.78-34.42-16.25,15.23-44.81,21.32-65.31,6.59Z"/>
    <path class="cls-27" d="m840.83,452.07c2.77-8.62-4.16-24.33-11.15-30.09-6.99-5.76-17.65-10.03-25.59-5.66,4.12-7.23,12.23-9.13,20.5-8.15s18.38,8.96,20.7,16.95,1.32,21.88-4.46,26.95Z"/>
    <path class="cls-42" d="m798.76,452.68c-20.86-2.45-39.42.85-57.19,12.05,14.47-28.32,19.2-48.16,29.9-75.09,5.03-12.66,9.16-29.43,13.39-42.38,3.59,4.58,10.36,6.06,15.81,4.03s9.45-7.15,10.82-12.8c1.86-7.64-2.05-17.13-9.73-18.79-4.91-1.06-10.06,1.27-13.61,4.82s-5.78,8.18-7.84,12.76c-8.62,19.13-15.5,39-22.36,58.83-9,26-17.99,52-26.99,77.99,23.33-12.35,50.28-17.73,76.56-15.28-3.59-2.43-7.19-4.86-8.75-6.13Z"/>
    <path class="cls-43" d="m913.5,1100.01c-28.83-126.96-37.9-146.25-41.57-259.97,0-.01,0-.02,0-.03,0-.05-.01-.11-.02-.16-.06-.28-.14-.56-.15-.85-.01-.26.12-.48.32-.63-3.76-.09-7.55.9-10.77,2.84,5.38,83.08,19.22,176.16,37.65,257.34,7.91.87,9.11-4.34,14.56,1.46Z"/>
    <path class="cls-43" d="m928.75,396.15c-8.19,7.8-6.24,25.38.64,34.36s18.49,13.26,29.77,13.98c11.28.72,22.5-1.65,33.63-3.67,49.76-9.04,100.48-11.17,151.01-13.28-8.88,24.72-25.99,45.48-42.78,65.69-13.62,16.4-27.24,32.79-40.86,49.19-6.95,8.37-14.01,16.9-18.17,26.96-4.16,10.05-5.07,22.03.22,31.54s17.87,15.17,27.71,10.54c9.84-4.63,12.58-20.57,3.6-26.7-6.77-4.62-18.7-4.64-19.57-12.79-.4-3.71,2.14-7.01,4.51-9.89,35.63-43.14,71.25-90.22,96.99-139.9,1.39-2.68,4.12-12.7,4.12-12.7,0,0-117.34,12.09-119.34,12.41-48.7,7.87-8.83,3.24-76.09,11.51-3.32.41-24.22-8.62-26.43-10.63-4.87-4.44-5.51-27.91-5.51-27.91"/>
    <path class="cls-43" d="m945.55,395.32s30.9-4.12,35.03-13.79c8.59-20.09,2.23-43.53,10.82-63.62,3.74-8.74,10.86-15.49,16.36-23.24s9.47-17.89,5.77-26.65c-3.7-8.75-18.05-12.01-22.56-3.65,6.31-12.51,3.77-29.88-1.3-42.94-6.05-15.58-15.98-21.84-35.77-28.25,17.37,5.31,27.41,25.2,31.05,42.99,3.64,17.79,3,23.52.33,43.79-1.04,9.34.54,4.68-.83,15.11-2.38,18.13,1.16,4.51-3.86,24.1-4.48,17.48-14.41,11.19-3.54,26.73,6.75,9.64,1.96,24.91-5.27,34.2-6.99,8.99-31.33,6.91-39.58,14.76"/>
    <path class="cls-43" d="m1012.72,473.15c.95-3.89,6.78-.26,3.92-2.33-2.5-1.81-8.22-5.15-11.03-3.87-19.11,60.69-21.78,117.35-9.63,179.77-10.61,3.49-40.77,7.37-44.91,17.7-1.07,2.67,13.97,1.58,16.77.97,15.06-3.24,27.09-7.61,40.43-11.11-19.66-63.67-9.71-123.18,4.44-181.13Z"/>
    <path class="cls-24" d="m871.22,806.24c1.56,12.06,4.17,23.94,7.86,35.4,43.32-8.03,88.17-5.62,130.8,7.05,11.17-31.7,21.34-64.33,24.19-98.43,2.68-32.01-1.61-65.75-16.29-93.18-.35-.55-.71-1.1-1.06-1.65-.6-.95-1.29-1.83-1.8-2.83-.13-.25-.21-.51-.25-.78-63.24,23.47-132.07,27.31-197.32,11.08-19.04,57.85-27.26,119.79-26.74,181.74,27.11-1.2,54.21-2.4,81.32-3.6-.6-11.59-.83-23.2-.72-34.8Z"/>
    <path class="cls-48" d="m918.47,259.77c-13.53,20.83-31.57,40.09-33.4,64.86,4.88-7.25,25.39-4.86,33.07-.7-2.13-20.55-2.02-41.34.33-64.16Z"/>
    <path class="cls-61" d="m909.31,270.08c-19.95-13.8-42.2-24.26-65.55-30.83,5.69,5.03,8.8,12.85,8.1,20.41-.69,7.57-5.16,14.69-11.67,18.61,16.7,5.26,32.86,12.2,48.18,20.69,6.54-9.44,13.09-18.88,20.94-28.88Z"/>
    <path class="cls-61" d="m920.71,270.62c6.67,10.13,11.68,21.34,14.79,33.06,17.89-11.45,38.62-18.42,59.93-21.67-6.84-3.6-11.97-10.29-13.66-17.83-1.69-7.54.09-15.79,4.73-21.96-23.47,6.48-45.87,16.82-65.79,28.4Z"/>
    <path class="cls-61" d="m985.19,270.6c11.63-11.33,23.27-22.67,34.9-34-2.67-.65-5.08-2.29-6.68-4.53-11.87,11.98-23.75,23.95-35.62,35.93,2.33,1.88,4.65,3.76,6.98,5.64,1.79-2.26,3.58-4.51.43-3.04Z"/>
    <path class="cls-61" d="m893.11,276.84c11.21-8.3,28.88-5.91,35.95,5.71-1.8-8.7-9.78-15.74-18.64-16.45s-17.85,4.99-17.31,10.74Z"/>
    <path class="cls-22" d="m846.34,326.24c21.45,3.81,40.83,5.64,62.56,7.16,25.01,1.75,43.46-12.39,55.35-30.64-8.82,22.08-21.55,44.33-42.74,55.11-13.27,6.75-28.7,8.3-43.53,6.92-14.83-1.37-27.6-3.49-41.91-7.61,2.01-15.6,8.15-25.21,10.27-30.95Z"/>
    <path class="cls-60" d="m359.45,329.39c2.58,0,2.6-4,.02-4s-2.6,4-.02,4h0Z"/>
    <path class="cls-60" d="m839.6,342.49c20.21,3.05,40.41,6.45,60.83,7.81,4.91.33,10,.83,14.91.36s8.52-2.5,12.21-5.44c6.79-5.4,13.37-11.14,19.43-17.35,7.15-7.33,13.55-15.44,18.41-24.47.8-1.48-1.47-2.79-2.28-1.3-8.27,15.36-20.89,27.62-34.2,38.64-3.4,2.82-6.83,5.93-11.26,6.93s-9.71.44-14.4.18c-9.89-.56-19.73-1.65-29.55-2.95-11.16-1.48-22.29-3.26-33.42-4.95-1.65-.25-2.35,2.28-.68,2.53h0Z"/>
    <path class="cls-43" d="m844.99,327.34c9.67,1.78,19.39,3.14,29.17,4.1,8.39.83,16.8,1.88,25.23,2.24,7.5.32,15.15.6,22.64-.1,3.32-.31,6.46-1.27,9.59-2.4,4.34-1.56,8.74-3.36,12.6-5.91,2.33-1.54,4.42-3.48,6.49-5.34s3.98-3.7,5.82-5.7c3.34-3.64,6.16-7.7,8.83-11.84.92-1.42-1.36-2.72-2.28-1.3-2.31,3.58-4.72,7.1-7.53,10.31-3.28,3.74-7,7.06-10.82,10.24-3.34,2.78-7.53,4.6-11.54,6.17-3.23,1.26-6.66,2.6-10.12,3.04-3.28.42-6.63.44-9.94.47-3.92.03-7.84-.04-11.75-.18-7.98-.28-15.9-1.23-23.84-1.99-10.69-1.03-21.3-2.4-31.87-4.34-1.65-.3-2.34,2.23-.68,2.53h0Z"/>
    <path class="cls-29" d="m929.82,271.92c17.1-5.7,33.49-13.55,48.64-23.31.38,9.63.76,19.25,1.14,28.88-3.97-6.73-6.19-14.49-6.38-22.31-13.49,9.56-28.95,16.31-43.4,16.74Z"/>
    <path class="cls-29" d="m855.15,247.48c13.66,9.84,29.19,17.08,45.51,21.22-5.8,7.34-9.19,16.56-9.52,25.9-.25-7.5-.5-15-.76-22.51-13.68-4.86-25.95-13.59-35.24-24.62Z"/>
    <path class="cls-12" d="m869.66,503.83c3.78-.03,6.75,3.79,5.24,6.74-1.51,2.95-6.85,3.78-9.43,1.46-2.58-2.32-1.52-8.15,4.19-8.2Z"/>
    <path class="cls-12" d="m943.6,501.12c3.2,0,5.75,4.11,4.49,7.26s-5.78,3.99-7.99,1.49-1.34-8.75,3.5-8.75Z"/>
    <path class="cls-69" d="m893.6,493.39c1.69,0,1.7-2.62.01-2.62s-1.7,2.62-.01,2.62h0Z"/>
    <path class="cls-69" d="m894.04,492.68c-2.59-8.12-6.36-15.81-11.23-22.81-.96-1.38-3.24-.08-2.27,1.31,4.73,6.81,8.44,14.26,10.96,22.16.51,1.6,3.05.95,2.54-.66h0Z"/>
    <path class="cls-69" d="m907.63,490.43c-1.88-9.12-3.76-18.25-5.63-27.37-.34-1.66-2.88-.99-2.54.66,1.88,9.12,3.76,18.25,5.63,27.37.34,1.66,2.88.99,2.54-.66h0Z"/>
    <path class="cls-69" d="m917.86,488.59c-.09-7.99.68-15.95,2.33-23.76.35-1.65-2.18-2.33-2.53-.68-1.69,8.03-2.51,16.22-2.42,24.43.02,1.69,2.64,1.7,2.62.01h0Z"/>
    <path class="cls-69" d="m926.71,492.46c5.61-7.51,11.22-15.03,16.83-22.54,1.01-1.35-1.28-2.64-2.28-1.3-5.61,7.51-11.22,15.03-16.83,22.54-1.01,1.35,1.28,2.64,2.28,1.3h0Z"/>
    <path class="cls-69" d="m898.08,477.86c-2.06-5.82-4.58-11.46-7.56-16.86-.82-1.48-3.09-.17-2.27,1.31,2.87,5.2,5.32,10.61,7.3,16.21.56,1.58,3.1.93,2.54-.66h0Z"/>
    <path class="cls-69" d="m914.44,469.39c-.07-5.64-.63-11.27-1.67-16.81-.31-1.66-2.85-.99-2.54.66,1,5.33,1.52,10.72,1.58,16.14.02,1.69,2.64,1.7,2.62.01h0Z"/>
    <path class="cls-69" d="m932.61,471.25c2.53-4.43,5.05-8.85,7.58-13.28.84-1.46-1.44-2.77-2.28-1.3-2.53,4.43-5.05,8.85-7.58,13.28-.84,1.46,1.44,2.77,2.28,1.3h0Z"/>
    <path class="cls-69" d="m902.51,500.12c-.08-4.38-1.2-8.67-3.28-12.52-.8-1.49-3.07-.17-2.27,1.31,1.86,3.44,2.86,7.28,2.93,11.19.03,1.69,2.65,1.7,2.62.01h0Z"/>
    <path class="cls-69" d="m911.58,488.71c-.33,4.13-.02,8.28.87,12.33.36,1.65,2.9.98,2.54-.66-.84-3.83-1.1-7.74-.79-11.65.06-.71-.63-1.31-1.3-1.32-.75,0-1.26.6-1.32,1.3h0Z"/>
    <path class="cls-69" d="m922.53,487.09c-.85,4.3-1.7,8.6-2.55,12.91-.14.69.21,1.41.93,1.61.65.17,1.47-.23,1.61-.93.85-4.3,1.7-8.6,2.55-12.91.14-.69-.21-1.41-.93-1.61-.65-.17-1.47.23-1.61.93h0Z"/>
    <path class="cls-43" d="m975.06,840.7c7.93,85.72,21.49,163.16,29.42,248.88,4.89.4,9.79.81,14.68,1.21-12.28-84.76-16.75-162.35-7.41-247.48-10.73,4.64-18.51,0-36.69-2.62Z"/>
    <path class="cls-42" d="m855.13,603.57c6.03,6.65,15.32,9.76,23.83,7.98,8.51-1.78,15.96-8.39,17.79-17.26.59,8.94,6.36,17.3,14.22,20.6s17.42,1.39,23.6-4.65l-3.62-.89c1.76,1.97,5.17,1.05,6.53-1.23s1.1-5.28.23-7.83c-2.4-7.06-9.36-12.08-16.42-11.84-3.72.13-7.38,1.56-11.08,1.1-6.23-.77-11.31-6.72-17.58-6.6-7.59.14-12.63,8.96-20.04,10.73-3,.71-6.12.2-9.19.17s-6.41.55-8.51,2.92-2.04,6.95.24,6.8Z"/>
    <path class="cls-32" d="m895.17,595.01c-.59-1.02-1.15-1.31-2.16-.84-3.14,1.47-3.55,7.24-2.84,10.92.16.84.4,1.69.9,2.36s1.31,1.11,2.07.92c1.13-.28,1.64-1.71,1.97-2.94.49-1.85.98-3.73,1.02-5.66s.08-2.97-.97-4.76Z"/>
    <path class="cls-42" d="m884.19,557.49c-1.95,3.48-5.91,5.75-10.07,6.39s-8.46.32-12.57,1.25c-4.1.93-8.24,3.61-8.9,7.59-.92,5.54,5.32,9.92,11.14,10.56,6.41.7,12.88-1.37,18.39-4.61s10.18-7.59,14.8-11.9c6.12,6.79,14.93,11.28,24.24,12.37,6.24.73,14.02-1.07,15.77-6.86,1.2-3.96-1.16-8.27-4.58-10.77s-7.71-3.58-11.88-4.61c-5.96-1.47-11.92-2.93-17.88-4.4-4.29-1.05-3.31-3.64-7.61-2.6-4.3,1.04-8.94,4.16-10.85,7.58Z"/>
    <path class="cls-42" d="m908.26,621.8c-2.3-5.9-7.5-8.99-12.44-9.24s-3.98,5.62-8.64,7.68c-4.33,1.91-13.17,2.12-17.49,4.02-2.54,1.12-6.43.24-8.13,2.98-3.18,5.13-1.28,13.74,2.92,17.53,4.2,3.79,9.77,3.61,14.53,1.57,7.05-3.01,13.63-9.76,21.02-8.4,4.36.8,8.15,4.35,12.19,6.74,5.14,3.03,10.85,4.22,16.38,3.4,3.79-.56,8.24-3.25,8.31-8.37.08-5.42-4.67-8.42-8.57-9.97-7.11-2.84-14.22-5.68-20.07-7.93Z"/>
    <path class="cls-14" d="m976.6,834.16c20.11-30.13,34-61.36,32.93-97.57-.5-17.09-8.59-33.13-10.23-50.15-.68-7.08,0-14.85,4.69-20.2,4.68-5.35,14.42-6.48,18.53-.68,1.23,1.74,5.53,16.74,6.08,18.8,12.69,47.54,7.41,97.21-11.9,148.38-1.87,4.94-2.64,8.77-4.94,10.56-3.23,2.52-9.25,2.41-16.32,1.28-5.51-.88-14.48-1.79-20.38-3.9-.81,1.41,1.13-5.92,1.54-6.54Z"/>
    <path class="cls-14" d="m953.92,683.34c40.23,5.39,55.08,20.25,55.08,20.25l.27-20.19-6.75-19.66-48.61,19.6Z"/>
    <path class="cls-14" d="m871.41,807.8c1.08-8.22,2.16-16.44,3.24-24.65,1.51,10.66,3.06,21.44,7.14,31.41s11.03,19.17,20.78,23.75c-8.17.23-16.28,2.12-23.71,5.51-2.92-12.65-5.83-25.3-7.45-36.01Z"/>
    <path class="cls-14" d="m861.5,841.39c-2.13-21.41,3.34-42.96,14.69-61.23-2.08,20.21-4.91,35.88-4.1,60.88-.67.07-1.55.03-2.22.1,1.04-.07-5.03-.05-8.36.26Z"/>
    <path class="cls-31" d="m818.36,678.4c25.49,7.28,51.97,11.04,78.48,11.26,26.36.22,52.77-3.02,78.27-9.68,14.39-3.75,28.47-8.62,42.12-14.51,1.55-.67.22-2.93-1.31-2.27-24,10.36-49.41,17.37-75.29,20.99-25.88,3.62-52.26,3.8-78.19.56-14.67-1.84-29.19-4.82-43.4-8.88-1.63-.46-2.3,2.07-.68,2.53h0Z"/>
    <path class="cls-31" d="m822.51,671.82c25.1,6.18,50.98,9.16,76.83,8.94,25.68-.23,51.36-3.6,76.22-10.06,13.81-3.59,27.34-8.15,40.52-13.6,1.55-.64.23-2.91-1.31-2.27-23.36,9.67-47.95,16.37-72.96,20.04s-50.67,4.28-75.91,1.78c-14.39-1.42-28.67-3.89-42.71-7.35-1.64-.4-2.32,2.13-.68,2.53h0Z"/>
    <path class="cls-31" d="m817.18,675.66c.65-3,1.31-6,1.96-9.01l-1.61.93c25.51,7.1,51.96,10.76,78.44,10.98,26.4.22,52.85-2.96,78.43-9.49,14.4-3.67,28.5-8.43,42.2-14.19l-1.92-.81c1.07,3.24,2.13,6.47,3.2,9.71l.94-1.6c-22.47,7.43-45.6,12.86-69.04,16.2-23.47,3.35-47.25,4.58-70.94,3.72-13.43-.49-26.83-1.65-40.14-3.51-1.65-.23-2.35,2.3-.68,2.53,23.71,3.3,47.7,4.5,71.62,3.53,23.84-.97,47.6-4.05,70.89-9.2,13.15-2.91,26.15-6.5,38.94-10.73.64-.21,1.17-.89.94-1.6-1.07-3.24-2.13-6.47-3.2-9.71-.29-.89-1.11-1.15-1.92-.81-24.2,10.17-49.77,17.05-75.77,20.58-25.86,3.51-52.2,3.67-78.11.49-14.59-1.79-29.04-4.69-43.21-8.63-.66-.18-1.46.24-1.61.93-.65,3-1.31,6-1.96,9.01-.36,1.65,2.17,2.33,2.53.68h0Z"/>
    <path class="cls-72" d="m814.06,861.44l-1.35,2.94c-.15.32-.22.63-.13.98.08.31.32.66.62.81s.65.23.98.13.66-.3.81-.62l1.35-2.94c.15-.32.22-.63.13-.98-.08-.31-.32-.66-.62-.81s-.65-.23-.98-.13-.66.3-.81.62h0Z"/>
    <path class="cls-72" d="m819.31,872.78l-.51,6.54c-.05.69.63,1.34,1.3,1.32.75-.03,1.26-.57,1.32-1.3l.51-6.54c.05-.69-.63-1.34-1.3-1.32-.75.03-1.26.57-1.32,1.3h0Z"/>
    <path class="cls-72" d="m832.94,866.94l-.65,2.19c-.09.32-.03.71.13.99s.48.54.8.61.7.06.99-.13.51-.45.61-.8l.65-2.19c.09-.32.03-.71-.13-.99s-.48-.54-.8-.61-.7-.06-.99.13-.51.45-.61.8h0Z"/>
    <path class="cls-72" d="m847.55,871.49l.79,2.15c.04.18.12.33.24.46.09.15.22.26.38.34.27.16.67.22.98.13.33-.1.65-.3.81-.62.15-.29.25-.66.13-.98l-.79-2.15c-.04-.18-.12-.33-.24-.46-.09-.15-.22-.26-.38-.34-.27-.16-.67-.22-.98-.13-.33.1-.65.3-.81.62-.15.29-.25.66-.13.98h0Z"/>
    <path class="cls-72" d="m823.17,901.3l-1.26,5.84c-.14.67.21,1.45.93,1.61.67.15,1.45-.21,1.61-.93l1.26-5.84c.14-.67-.21-1.45-.93-1.61-.67-.15-1.45.21-1.61.93h0Z"/>
    <path class="cls-72" d="m833.52,892.52c1.69,0,1.7-2.62.01-2.62s-1.7,2.62-.01,2.62h0Z"/>
    <path class="cls-72" d="m837,904.81c-.18,1.94-.36,3.88-.54,5.81-.06.69.64,1.34,1.3,1.32.76-.03,1.25-.57,1.32-1.3l.54-5.81c.06-.69-.64-1.34-1.3-1.32-.76.03-1.25.57-1.32,1.3h0Z"/>
    <path class="cls-72" d="m831.11,930.36c.09,3.38.19,6.76.28,10.13.02.71.58,1.31,1.3,1.32s1.34-.59,1.32-1.3c-.09-3.38-.19-6.76-.28-10.13-.02-.71-.58-1.31-1.3-1.32s-1.34.59-1.32,1.3h0Z"/>
    <path class="cls-72" d="m843.01,933.21l1.61,5.02c.21.65.9,1.16,1.6.94.65-.2,1.16-.9.94-1.6l-1.61-5.02c-.21-.65-.9-1.16-1.6-.94-.65.2-1.16.9-.94,1.6h0Z"/>
    <path class="cls-72" d="m855.72,923.77l.19,5.79c.02.69.58,1.35,1.3,1.32.69-.03,1.34-.57,1.32-1.3l-.19-5.79c-.02-.69-.58-1.35-1.3-1.32-.69.03-1.34.57-1.32,1.3h0Z"/>
    <path class="cls-72" d="m921.08,873.14l.19,5.79c.02.69.58,1.35,1.3,1.32.69-.03,1.34-.57,1.32-1.3l-.19-5.79c-.02-.69-.58-1.35-1.3-1.32-.69.03-1.34.57-1.32,1.3h0Z"/>
    <path class="cls-72" d="m832.26,892.65l.05,1.45c.01.35.14.69.39.94.12.13.26.22.43.27.15.08.31.11.49.11.34-.01.7-.13.94-.39.22-.25.39-.57.38-.91l-.05-1.45c-.01-.35-.14-.69-.39-.94-.12-.13-.26-.22-.43-.27-.15-.08-.31-.11-.49-.11-.34.01-.7.13-.94.39-.22.25-.39.57-.38.91h0Z"/>
    <path class="cls-72" d="m848.07,896.26l1.4,4.11c.12.34.3.63.62.81.27.16.67.22.98.13.64-.2,1.18-.91.94-1.6l-1.4-4.11c-.12-.34-.3-.63-.62-.81-.27-.16-.67-.22-.98-.13-.64.2-1.18.91-.94,1.6h0Z"/>
    <path class="cls-72" d="m902.98,862.65c-.33,4.21-.66,8.41-.99,12.62-.06.71.63,1.31,1.3,1.32.75,0,1.26-.6,1.32-1.3.33-4.21.66-8.41.99-12.62.06-.71-.63-1.31-1.3-1.32-.75,0-1.26.6-1.32,1.3h0Z"/>
    <path class="cls-72" d="m906.72,893.3c-.32,4.67-.63,9.34-.95,14.01-.11,1.69,2.51,1.69,2.62.01.32-4.67.63-9.34.95-14.01.11-1.69-2.51-1.69-2.62-.01h0Z"/>
    <path class="cls-72" d="m934.05,860.59c.53,1.85,1.05,3.7,1.58,5.54.19.66.91,1.15,1.6.94s1.14-.89.94-1.6c-.53-1.85-1.05-3.7-1.58-5.54-.19-.66-.91-1.15-1.6-.94s-1.14.89-.94,1.6h0Z"/>
    <path class="cls-72" d="m955.06,866.6l.27,8.38c.02.69.58,1.35,1.3,1.32.69-.03,1.34-.57,1.32-1.3l-.27-8.38c-.02-.69-.58-1.35-1.3-1.32-.69.03-1.34.57-1.32,1.3h0Z"/>
    <path class="cls-72" d="m937.61,889.53c-.35,3.74-.69,7.48-1.04,11.22-.07.71.64,1.31,1.3,1.32.76,0,1.25-.6,1.32-1.3.35-3.74.69-7.48,1.04-11.22.07-.71-.64-1.31-1.3-1.32-.76,0-1.25.6-1.32,1.3h0Z"/>
    <path class="cls-72" d="m960.36,905.97c.5,1.85,1.01,3.71,1.51,5.56.18.66.92,1.15,1.6.94s1.13-.89.94-1.6c-.5-1.85-1.01-3.71-1.51-5.56-.18-.66-.92-1.15-1.6-.94s-1.13.89-.94,1.6h0Z"/>
    <path class="cls-72" d="m925.85,915.08l-1.04,11.22c-.07.71.64,1.31,1.3,1.32.76,0,1.25-.6,1.32-1.3l1.04-11.22c.07-.71-.64-1.31-1.3-1.32-.76,0-1.25.6-1.32,1.3h0Z"/>
    <path class="cls-72" d="m944.27,921.82c.54,2.31,1.08,4.63,1.62,6.94.16.67.93,1.14,1.6.94s1.11-.88.94-1.6c-.54-2.31-1.08-4.63-1.62-6.94-.16-.67-.93-1.14-1.6-.94s-1.11.88-.94,1.6h0Z"/>
    <path class="cls-72" d="m912.95,948c.54,2.31,1.08,4.63,1.62,6.94.16.67.93,1.14,1.6.94s1.11-.88.94-1.6c-.54-2.31-1.08-4.63-1.62-6.94-.16-.67-.93-1.14-1.6-.94s-1.11.88-.94,1.6h0Z"/>
    <path class="cls-72" d="m922.17,894.38l.2,6.27c.02.69.58,1.35,1.3,1.32.69-.03,1.34-.57,1.32-1.3l-.2-6.27c-.02-.69-.58-1.35-1.3-1.32-.69.03-1.34.57-1.32,1.3h0Z"/>
    <path class="cls-72" d="m967.99,885.93c1.16,3.45,2.31,6.9,3.47,10.36.22.67.88,1.13,1.6.94.65-.17,1.16-.92.94-1.6-1.16-3.45-2.31-6.9-3.47-10.36-.22-.67-.88-1.13-1.6-.94-.65.17-1.16.92-.94,1.6h0Z"/>
    <path class="cls-72" d="m936.33,946.63c.4,1.73.79,3.47,1.19,5.2.15.67.94,1.14,1.6.94.7-.21,1.1-.88.94-1.6-.4-1.73-.79-3.47-1.19-5.2-.15-.67-.94-1.14-1.6-.94-.7.21-1.1.88-.94,1.6h0Z"/>
    <path class="cls-72" d="m845.14,1055.17c.53,3.5,1.06,7.01,1.58,10.51.11.7.97,1.1,1.6.94.75-.19,1.04-.9.94-1.6-.53-3.5-1.06-7.01-1.58-10.51-.11-.7-.97-1.1-1.6-.94-.75.19-1.04.9-.94,1.6h0Z"/>
    <path class="cls-72" d="m857.4,1061.35c.57,3.94,1.13,7.88,1.7,11.82.1.7.97,1.1,1.6.94.75-.2,1.04-.9.94-1.6-.57-3.94-1.13-7.88-1.7-11.82-.1-.7-.97-1.1-1.6-.94-.75.2-1.04.9-.94,1.6h0Z"/>
    <path class="cls-72" d="m839.71,1019.36c.14,4.39.27,8.79.41,13.18.05,1.69,2.67,1.7,2.62.01-.14-4.39-.27-8.79-.41-13.18-.05-1.69-2.67-1.7-2.62-.01h0Z"/>
    <path class="cls-72" d="m868.33,1031.98l1.44,3.91c.13.34.29.62.62.81.27.16.67.22.98.13.33-.1.65-.3.81-.62.15-.29.25-.66.13-.98l-1.44-3.91c-.13-.34-.29-.62-.62-.81-.27-.16-.67-.22-.98-.13-.33.1-.65.3-.81.62-.15.29-.25.66-.13.98h0Z"/>
    <path class="cls-72" d="m856.91,1019.04c-.11,1.39-.23,2.77-.34,4.16-.03.32.17.72.39.94s.59.39.91.38c.76-.03,1.26-.57,1.32-1.3.11-1.39.23-2.77.34-4.16.03-.32-.17-.72-.39-.94s-.59-.39-.91-.38c-.76.03-1.26.57-1.32,1.3h0Z"/>
    <path class="cls-72" d="m839.39,992.66c-.38,1.77-.77,3.54-1.15,5.31-.14.67.21,1.45.93,1.61.67.15,1.45-.21,1.61-.93.38-1.77.77-3.54,1.15-5.31.14-.67-.21-1.45-.93-1.61-.67-.15-1.45.21-1.61.93h0Z"/>
    <path class="cls-72" d="m855.41,1000.39l.21,6.59c.02.69.58,1.35,1.3,1.32.69-.03,1.34-.57,1.32-1.3l-.21-6.59c-.02-.69-.58-1.35-1.3-1.32-.69.03-1.34.57-1.32,1.3h0Z"/>
    <path class="cls-72" d="m939.56,1008.08c.48,2.14.96,4.29,1.45,6.43.15.67.94,1.14,1.6.94.7-.22,1.1-.88.94-1.6-.48-2.14-.96-4.29-1.45-6.43-.15-.67-.94-1.14-1.6-.94-.7.22-1.1.88-.94,1.6h0Z"/>
    <path class="cls-72" d="m979.35,1016.32c.48,2.14.96,4.29,1.45,6.43.15.67.94,1.14,1.6.94.7-.22,1.1-.88.94-1.6-.48-2.14-.96-4.29-1.45-6.43-.15-.67-.94-1.14-1.6-.94-.7.22-1.1.88-.94,1.6h0Z"/>
    <path class="cls-72" d="m868.64,996.67c.93,1.73,1.87,3.46,2.8,5.19.33.6,1.21.85,1.79.48s.83-1.14.48-1.79c-.93-1.73-1.87-3.46-2.8-5.19-.33-.6-1.21-.85-1.79-.48s-.83,1.14-.48,1.79h0Z"/>
    <path class="cls-72" d="m928.92,1029.7c.04,1.32.08,2.64.13,3.95.02.69.58,1.35,1.3,1.32.69-.03,1.34-.57,1.32-1.3-.04-1.32-.08-2.64-.13-3.95-.02-.69-.58-1.35-1.3-1.32-.69.03-1.34.57-1.32,1.3h0Z"/>
    <path class="cls-72" d="m946.13,1031.78c-.31,3.97-.63,7.94-.94,11.9-.06.71.63,1.31,1.3,1.32.75,0,1.26-.6,1.32-1.3.31-3.97.63-7.94.94-11.9.06-.71-.63-1.31-1.3-1.32-.75,0-1.26.6-1.32,1.3h0Z"/>
    <path class="cls-72" d="m963.33,930.32l-.94,11.9c-.06.71.63,1.31,1.3,1.32.75,0,1.26-.6,1.32-1.3.31-3.97.63-7.94.94-11.9.06-.71-.63-1.31-1.3-1.32-.75,0-1.26.6-1.32,1.3h0Z"/>
    <path class="cls-72" d="m963.87,1045.08c.95,2.17,1.9,4.34,2.85,6.51.28.63,1.24.83,1.79.48.65-.42.78-1.12.48-1.79-.95-2.17-1.9-4.34-2.85-6.51-.28-.63-1.24-.83-1.79-.48-.65.42-.78,1.12-.48,1.79h0Z"/>
    <path class="cls-72" d="m854.11,1036.87c-.44,2.33-.88,4.65-1.32,6.98-.13.67.2,1.44.93,1.61.65.14,1.47-.21,1.61-.93.44-2.33.88-4.65,1.32-6.98.13-.67-.2-1.44-.93-1.61-.65-.14-1.47.21-1.61.93h0Z"/>
    <path class="cls-72" d="m874.25,1059.85l2.85,6.51c.28.63,1.24.83,1.79.48.65-.42.78-1.12.48-1.79l-2.85-6.51c-.28-.63-1.24-.83-1.79-.48-.65.42-.78,1.12-.48,1.79h0Z"/>
    <path class="cls-72" d="m978.02,1037.7c1.46,4.35,2.92,8.7,4.38,13.05.22.67.88,1.13,1.6.94.65-.17,1.16-.92.94-1.6-1.46-4.35-2.92-8.7-4.38-13.05-.22-.67-.88-1.13-1.6-.94-.65.17-1.16.92-.94,1.6h0Z"/>
    <path class="cls-72" d="m944.77,1070.43c.58,4.38,1.16,8.76,1.74,13.14.09.7.97,1.1,1.6.94.76-.2,1.03-.89.94-1.6-.58-4.38-1.16-8.76-1.74-13.14-.09-.7-.97-1.1-1.6-.94-.76.2-1.03.89-.94,1.6h0Z"/>
    <path class="cls-72" d="m965.98,1073.7c.54,3.06,1.08,6.12,1.61,9.18.12.7.95,1.11,1.6.94.73-.19,1.06-.9.94-1.6-.54-3.06-1.08-6.12-1.61-9.18-.12-.7-.95-1.11-1.6-.94-.73.19-1.06.9-.94,1.6h0Z"/>
    <path class="cls-72" d="m985.97,1076.03l1.4,2.59c.16.29.48.53.8.61s.72.04.99-.13.53-.45.61-.8.04-.68-.13-.99l-1.4-2.59c-.16-.29-.48-.53-.8-.61s-.72-.04-.99.13-.53.45-.61.8-.04.68.13.99h0Z"/>
    <path class="cls-72" d="m959.76,1003.05c1.38,2.61,2.76,5.21,4.13,7.82.32.61,1.21.85,1.79.48.62-.39.82-1.14.48-1.79-1.38-2.61-2.76-5.21-4.13-7.82-.32-.61-1.21-.85-1.79-.48-.62.39-.82,1.14-.48,1.79h0Z"/>
    <path class="cls-72" d="m974.84,979.75l1.53,6.55c.16.67.93,1.14,1.6.94s1.11-.88.94-1.6l-1.53-6.55c-.16-.67-.93-1.14-1.6-.94s-1.11.88-.94,1.6h0Z"/>
    <path class="cls-72" d="m976.81,954.95c.47.86.93,1.73,1.4,2.59.16.29.48.53.8.61s.72.04.99-.13.53-.45.61-.8.04-.68-.13-.99c-.47-.86-.93-1.73-1.4-2.59-.16-.29-.48-.53-.8-.61s-.72-.04-.99.13-.53.45-.61.8-.04.68.13.99h0Z"/>
    <path class="cls-72" d="m918.72,999.68c.07,2.2.14,4.39.21,6.59.02.69.58,1.35,1.3,1.32.69-.03,1.34-.57,1.32-1.3-.07-2.2-.14-4.39-.21-6.59-.02-.69-.58-1.35-1.3-1.32-.69.03-1.34.57-1.32,1.3h0Z"/>
    <path class="cls-72" d="m850.87,977.45l1.4,2.59c.16.29.48.53.8.61s.72.04.99-.13.53-.45.61-.8.04-.68-.13-.99l-1.4-2.59c-.16-.29-.48-.53-.8-.61s-.72-.04-.99.13-.53.45-.61.8-.04.68.13.99h0Z"/>
    <path class="cls-43" d="m924,972.57c-1.7,9.63,3.45,20.07,12.12,24.6,8.67,4.52,20.18,2.76,27.1-4.14,6.93-6.9,8.72-18.41,4.22-27.09-1.84,9.15-10.63,16.04-19.92,16.86-9.29.82-18.59-3.82-23.52-10.23Z"/>
    <path class="cls-43" d="m833.48,962.92c1.37,6.18,4.25,12.36,9.48,15.93,5.23,3.57,13.15,3.61,17.33-1.14,4.27-4.87,3.24-12.27,1.96-18.62-2.06,5.9-7.87,10.29-14.1,10.66s-12.52-3.3-14.66-6.83Z"/>
    <path class="cls-43" d="m845.81,372.46c-2.45,5.08-1.79,11.15,2.47,15.08s10.57,4.74,16.16,3.61c3.98-.81,9.98-3.3,9.81-8.25-.15-4.1-5.19-5.73-8.52-6.18-3.75-.51-10.23-.16-11.28,4.49-.37,1.64,2.16,2.33,2.53.68.61-2.71,4.96-2.82,7.12-2.7s6.56.81,7.42,3.24c1.14,3.25-4.33,5.33-6.54,5.91-4.4,1.16-9.43,1.01-13.35-1.5-4.47-2.87-5.81-8.35-3.53-13.07.73-1.51-1.54-2.82-2.28-1.3h0Z"/>
    <path class="cls-65" d="m938.97,242.49c10.17-7.26,20.33-14.52,30.5-21.78,1.15-.82,1.72-2.27.96-3.58-.66-1.14-2.42-1.79-3.58-.96-10.17,7.26-20.33,14.52-30.5,21.78-1.15.82-1.72,2.27-.96,3.58.66,1.14,2.42,1.79,3.58.96h0Z"/>
    <path class="cls-65" d="m910.71,238.47c-10.13-8.21-20.26-16.42-30.39-24.63-1.1-.89-2.64-1.05-3.71.03-.92.93-1.08,2.81.03,3.71,10.13,8.21,20.26,16.42,30.39,24.63,1.1.89,2.64,1.05,3.71-.03.92-.93,1.08-2.81-.03-3.71h0Z"/>
    <path class="cls-29" d="m916.71,799.17c-.19,6.92-.38,13.83-.57,20.75-.02.67.61,1.36,1.3,1.32,5.34-.35,10.68-.7,16.01-1.05,1.68-.11,1.7-2.73.01-2.62-5.34.35-10.68.7-16.01,1.05l1.3,1.32c.19-6.92.38-13.83.57-20.75.05-1.69-2.58-1.7-2.62-.01h0Z"/>
    <path class="cls-29" d="m951.27,795.95c-7.76.7-12.64,9.29-10.97,16.56.84,3.66,3.5,6.6,7.06,7.8s7.6.52,10.85-1.24c3.74-2.02,6.49-5.65,6.69-9.97.03-.66-.62-1.38-1.3-1.32-4,.38-8,.75-12,1.13-1.67.16-1.69,2.78-.01,2.62,4-.38,8-.75,12-1.13l-1.3-1.32c-.29,6.05-7.31,10.12-12.91,9.03-2.86-.55-5.3-2.46-6.25-5.26s-.57-6,.74-8.64c1.44-2.9,4.05-5.35,7.39-5.65,1.67-.15,1.69-2.77.01-2.62h0Z"/>
    <path class="cls-29" d="m903.38,799.97c-4.57-2.86-8.48,4.47-5.94,8.07,1.63,2.32,4.94,2.65,7.43,1.74,3.05-1.12,5.2-3.51,6.4-6.48,1.39-3.44,1.52-7.18,2.56-10.71.81-2.76,2.48-5.95,5.41-6.88,3.36-1.07,6.61,1.39,9.28,3.08,2.47,1.57,4.95,2.77,7.95,2.7,2.63-.06,5.51-1.12,6.48-3.78,1.2-3.31-2.89-5.8-5.67-4.11-1.44.88-.13,3.15,1.31,2.27.4-.25.81-.3,1.26-.12.23.09.44.25.6.43.11.12.2.39.17.09.1.79-.78,1.59-1.37,1.93-1.66.94-3.88.79-5.65.27-2.44-.72-4.5-2.54-6.69-3.78s-4.84-2.23-7.5-1.74c-4.92.89-7.49,6.03-8.48,10.45-1.11,4.94-1.28,12.22-7.17,13.98-1.89.57-4.69.06-4.52-2.41.09-1.32,1.25-3.75,2.86-2.74,1.43.9,2.73-1.38,1.3-2.28h0Z"/>
    <path class="cls-70" d="m994.25,223.73c12.96-3.5,28.77-8.45,32.44-23.17,1.42-5.7.71-12.2-3.4-16.65-5.16-5.6-13.23-5.12-19.69-8.15-3.01-1.41-6.77-4.12-6.52-7.89.18-2.71,3-6.62,6.07-5.09,1.5.75,2.81-1.52,1.3-2.28-6.02-3-11.59,4.87-9.51,10.32,2.69,7.06,10.89,8.55,17.32,10.24,3.57.94,7.18,2.24,9.6,5.17,1.85,2.24,2.75,5.17,2.87,8.05.3,6.59-2.81,12.69-7.79,16.88-6.57,5.53-15.24,7.83-23.35,10.03-1.63.44-.97,2.98.66,2.54h0Z"/>
    <g>
      <path class="cls-16" d="m765.17,128.17c-11.87-6.52-23.74-13.05-35.62-19.57-21.81-5.75-45.06-10.39-69.7-13.79,3.27-2.07,6.56-4.1,9.88-6.08,11.28,2.09,22.26,4.43,32.94,7.02,8.77,2.13,15.57,4.02,23.07,6.37.06-.03.11-.06.17-.09-3.76-3.94-7.04-8.13-10.66-13.06-4.33-6.04-8.31-12.24-11.93-18.58,3.42-1.7,6.86-3.35,10.32-4.96,5.92,13.81,13.57,26.98,22.9,39.35,11.45,6.83,22.9,13.67,34.35,20.5-1.91.95-3.82,1.92-5.71,2.92Z"/>
      <path class="cls-16" d="m806.57,70.47c15.25,22.3,14.15,36.33,3.11,40.04-11.43,3.77-34.09-3.64-56.03-19.64-23.02-16.71-23.68-34.54-3.6-41.98,20.51-7.51,43.37,2.43,56.52,21.58Zm-45.13,16.82c14.61,11.75,32.98,20.04,42.41,16.85,9.51-3.2,5.82-16.55-5.22-30.93-9.64-12.53-27.35-23.54-42.84-17.91-15.34,5.71-9.33,19.97,5.65,31.99Z"/>
      <path class="cls-16" d="m810.19,32.33c7.2,13.24,14.4,26.48,21.6,39.72,8.37,14.98,16.7,20.34,23.19,19.3,7.22-1.17,9.66-8.57,4.74-24.16-4.57-13.86-9.13-27.73-13.7-41.59,3.29-.49,6.59-.95,9.89-1.37,3.78,13.79,7.56,27.58,11.34,41.37,5.54,21.88.5,31.47-9.31,33.03-9.29,1.45-21.03-4.69-33.86-25.06-7.88-12.97-15.75-25.94-23.63-38.9,3.24-.81,6.49-1.58,9.74-2.32Z"/>
      <path class="cls-16" d="m905.51,20.47c3.29-.08,6.57-.13,9.86-.14-.86,21.84-1.72,43.67-2.58,65.51,7.22.14,14.43.53,21.63,1.16-.55,2.66-1.1,5.32-1.65,7.98-8.79-.81-17.61-1.23-26.44-1.27-.27-24.41-.55-48.83-.82-73.24Z"/>
      <path class="cls-16" d="m1002.04,66.87c-15.85,24.29-33.34,34.7-44.63,32.68-11.67-2.15-16.76-18.01-12.04-40.34,4.91-23.35,23.78-37.73,44.8-34.62,21.44,3.27,25.51,21.4,11.87,42.28Zm-48.12-7.03c-4.3,15.73-2.59,30.4,7.08,32.11,9.75,1.74,23.03-10.32,32.46-26.53,8.26-14.13,9.17-30.73-6.99-33.23-16.06-2.36-28.11,11.55-32.55,27.65Z"/>
      <path class="cls-16" d="m996.95,94.68c1.16,3.32,3.68,6.59,7.95,7.99,6.27,2.06,14.31-1.19,20.7-7.9,5.84-6.21,6.35-10.86,1.41-16.92-6.21-6.95-8.43-14.49-1.52-24.36,7.49-10.9,22.94-16.63,37.63-12.05,7.62,2.39,11.61,5.88,13.17,8.68-3.14,2.01-6.25,4.03-9.33,6.07-1.11-1.96-3.97-5.58-10.44-7.62-9.83-3.06-17.89,1.62-21.47,6.31-4.98,6.47-3.36,10.73,1.99,17.09,6.58,7.83,5.93,15.1-3.84,24.69-10.45,10.08-24.4,16.65-34.75,13.18-4.33-1.44-7.64-4.83-8.46-8.03,2.29-2.38,4.6-4.75,6.96-7.11Z"/>
      <path class="cls-16" d="m1103.38,67.99c-6.95-3.07-13.96-5.97-21.02-8.68,2.55-2.36,5.09-4.72,7.64-7.08,17.94,6.86,35.57,14.83,52.81,23.9-3.3,2.06-6.59,4.12-9.89,6.19-6.81-3.6-13.69-7.03-20.62-10.27-24.24,17.81-48.48,35.61-72.72,53.42-1.89-.95-3.79-1.88-5.7-2.78,23.17-18.23,46.33-36.46,69.49-54.69Z"/>
      <path class="cls-16" d="m1065.69,131.74c4.99-2.92,10.34-4.02,12.7-2.59,2.5,1.51.26,4.51-5.02,7.28-5.14,2.7-10.49,3.89-12.68,2.53-2.13-1.31.14-4.38,4.99-7.22Zm21.76-10.49c22.17-13.03,44.2-26.13,66.1-39.29,3.28,1.84,6.55,3.71,9.8,5.63-23.76,12.15-47.39,24.37-70.89,36.66-1.66-1.01-3.33-2.01-5.01-3Z"/>
    </g>
  </g>
  <g id="Layer_7" data-name="Layer 7">
    <path class="cls-80" d="m167.79,425.5c-20.65-11.21-38.16-2.79-54.82,5.5-16.66,8.29-45.24,24.41-46.5,42.47-.6,8.6-19.46,4.35-20.27,12.93-.84,8.84,10.13,22.59,4.01,29.22-4.96,5.36-10.32,17.64-14.99,23.23-7.73,9.26,10.61,21.21,9.58,33.07-1.05,12.13-17.93,19.72-9.58,28.83,8.43,9.19-5.88,10.49-3.52,22.56,1.46,7.47,26.28,2.62,25.15,10.14-.97,6.38,20.63,9.01,9.63,21.95-6.37,7.49,22.07,5.87,26.13,6.85,8.21,1.98,20.28,7.52,26.75,2.24,7.96-6.5,36.77-11.8,44.74-18.3,2.96-2.42-22.35,6.31-8.88-1.15,5.56-3.08-3.25-11.74-7.04-12.23-10.02-1.29,13.54-15.15,23.56-15.86,10.02-.72,20.26,4.19,25.72,12.34,3.49,5.2-24.1,3.74-21.54,9.43,8.52,18.91,58.71,11.54,80.06,11.22,7.38-.11,9.65-11.26,14.66-16.49,6.45-6.73,22.19-6.21,20.21-15.18s-4.46-12.95-4.11-22.11c.5-13.09-2.45-2.83,2.44-15.05,1.92-4.8,3.32-9.94,2.82-15.07-.44-4.44-2.28-8.66-4.56-12.54-8.15-13.88,9.45-29.63,5.78-45.19-2.54-10.77-20.4-16.53-20.64-27.57-.45-20.96-24.21-41.95-43.35-51.84-19.14-9.89-39.57,12.15-57.75.68-1.56-.98-1.78-3.05-3.69-4.08Z"/>
    <path class="cls-79" d="m208.83,461.16c-7.84,8.23,21.31,9.32,27.55,12.23,3.96,1.85,10.95,7.48,14.59,9.45,2.64,1.43,7.12,3.72,9.76,6.19.34.32.89-.11.63-.49-1.61-2.38-4.83-4.75-6.24-6.68-9.61-13.21-35.82-31.7-46.31-20.7Z"/>
    <path class="cls-79" d="m68.68,508.02c12.86-.21,16.04-14.53,21.83-20.27,6.95-6.89,27.46-15,39.93-17.47-9.26-1.89-18.6.67-27.44,3.19-4.69,1.34-9.45,2.72-13.41,5.34-3.77,2.5-6.59,6.01-9.19,9.57-4.64,6.35-8.76,13.04-11.71,19.62Z"/>
    <path class="cls-79" d="m281.15,535.06c-4.26,1.27-8.98-.69-12.16-3.7s-5.19-6.93-7.4-10.64c-5.74-9.64-13.22-18.35-22-25.62-4.8-3.98-10.79-7.73-17.04-6.7,3.27,4.45,8.78,6.77,13.39,9.98,6.2,4.32,10.88,10.41,14.15,17.03,2.92,5.9,4.85,12.36,9.02,17.54,4.17,5.18,11.6,8.84,17.87,6.29,3.1-1.25,5.42-3.81,4.17-4.19Z"/>
    <path class="cls-79" d="m50.07,547.14c-.67-4.23,2.06-8.41,5.64-10.98s7.92-3.88,12.08-5.41c10.8-3.99,20.9-9.77,29.72-17,4.82-3.96,9.59-9.06,9.47-15.14-5.08,2.43-8.31,7.31-12.3,11.19-5.38,5.23-12.37,8.74-19.69,10.85-6.53,1.88-13.47,2.73-19.44,5.91s-10.86,9.66-9.18,16c.83,3.12,3.11,5.71,3.69,4.59Z"/>
    <path class="cls-79" d="m212.55,618.27c5.61,1.93,8.21,6.73,8.54,11.2.33,4.46-1.06,8.91-.97,13.38.18,8.75-2.39-3.07,5.9,3.34s12.21-4.17,22.91,0c-21.72-8.53-21.14,9.6-21.51-8.19-.09-4.58.52-9.58-3.16-13.32-2.86-2.9-7.69-4.37-11.71-6.42Z"/>
    <path class="cls-79" d="m230.56,560.59c4.41.48,7.87,4.11,9.49,8.11,1.61,4,1.78,8.37,2.21,12.64,1.12,11.08,4.22,21.98,9.11,32.06,2.68,5.52,6.53,11.28,12.64,12.75-1.08-5.36-5.11-9.63-7.93-14.36-3.8-6.37-5.46-13.78-5.63-21.13-.15-6.56.84-13.23-.74-19.61-1.59-6.38-6.79-12.61-13.58-12.71-3.35-.05-6.55,1.4-5.58,2.23Z"/>
    <path class="cls-79" d="m73.33,595.64c-2.77-3.35-2.56-8.29-.77-12.22s4.87-7.13,7.69-10.45c7.32-8.6,13.1-18.42,17.02-28.9,2.14-5.73,3.64-12.43.39-17.65-3.16,4.53-3.43,10.3-4.9,15.57-1.97,7.1-6.22,13.48-11.49,18.78-4.7,4.74-10.28,8.78-13.83,14.37-3.54,5.59-4.43,13.55.3,18.26,2.33,2.32,5.66,3.48,5.58,2.23Z"/>
    <path class="cls-79" d="m123.09,595.46c-10.24,6.55-5.5,20.47-7.24,28.28-2.08,9.38-14.46,26.53-23.24,34.83,8.42-2.95,14.63-9.78,20.47-16.34,3.09-3.47,6.23-7.02,8.07-11.24,1.76-4.02,2.24-8.45,2.52-12.81.5-7.77.4-15.58-.58-22.72Z"/>
    <path class="cls-40" d="m147.81,1013.49c1.07.38,1.97,1.15,2.4,2.3,1.05-.37,2.2-.26,3.22.22,1.5-1.21,3.37-1.87,5.78-1.51.84.13,1.54.6,2.09,1.21.83-1.13,1.92-1.96,3.53-2.51,1.37-.47,2.72-.07,3.8.7.86-6.14,1.79-12.28,2.8-18.4,1.02-6.19,1.73-12.42,2.76-18.61.98-5.9,3.01-11.86,3.54-17.8.05-.56.19-1.07.39-1.52-.46-5.27-.21-10.58-.55-15.87-.48-7.45-1.4-15.09,1.47-22.23.06-.16.15-.3.22-.44-.22-.33-.43-.67-.61-1.04-1.49-3.18-.92-7.09-.92-10.5,0-4.53,6.25-5.99,8.64-2.26,1.9,2.96,4.34,4.51,5.39,8.02.18.6.34,1.21.5,1.82,1.18-.02,2.37.37,3.28,1.24,2.47-.16,5.1,1.42,5.1,4.35,0,2.21-.13,4.4-.3,6.58.87,2.51,1.69,5.04,2.41,7.61,2.56,7.17,5,14.37,7.09,21.68.59.69.99,1.55,1.02,2.56.02.45.04.9.05,1.35,3.24,12.73,4.11,25.91,8.72,38.33,1.46,3.93-2.82,6.23-6.05,5.17.29,3.16.61,6.32.95,9.48.54-1.4,1.18-2.75,2.03-4,1.18-1.74,3.11-2.48,5.22-2.05,2.32.48,3.69,1.97,4.52,3.86,2.24-2.77,8.19-1.04,8.29,3.05.09,3.65.92,7.15,1.34,10.75.02-.06.04-.11.06-.17.38-4.03,1.05-8.05,2.32-11.77.69-2.02,2.56-3.23,4.49-3.24.23-.24.47-.47.73-.68,1.5-1.23,3.55-1.59,5.21-.89-.59-2.82-.82-5.89-.45-9.49.03-.32.06-.66.09-.99-.06-.79-.11-1.58-.13-2.38-.01-.77.16-1.45.47-2.03,1.25-19.73.19-48.37,8.35-64.46,11.62-22.92,23.68-64.18,8.04-83.38-12.68-15.56-28.08-29.52-46.34-65.34-6.04-11.84-3.37-25.24-7.74-37.74-4.36-12.5-16.97-25.07-30.02-28.99-11.76-3.54-25.07,1.12-33.69,9.62s-15.21,21.19-10.49,28.47c12.84,19.82,4.36,45.94-7.45,66.35-11.81,20.41-27.12,40.65-27.48,64.03-.37,24.15,15.31,45.33,28.6,65.79,12.85,19.78,24.33,43.72,17.27,65.78Z"/>
    <path class="cls-79" d="m274.76,577.94c.35-12.33-14.43-16.01-20.14-21.81-6.87-6.96-14.41-26.97-16.42-39.03-2.38,8.79-.13,17.85,2.11,26.44,1.19,4.55,2.41,9.18,4.97,13.08,2.44,3.72,5.97,6.58,9.57,9.23,6.41,4.73,13.2,8.97,19.92,12.09Z"/>
    <path class="cls-79" d="m115.85,573.81c-7.83-8.24-11.63,19.5-15.21,25.2-2.28,3.62-8.77,9.77-11.14,13.07-1.72,2.39-4.51,6.46-7.32,8.76-.36.3.03.86.45.65,2.62-1.32,5.37-4.18,7.51-5.34,14.59-7.97,36.19-31.32,25.72-42.33Z"/>
    <path class="cls-40" d="m147.32,627.02c-1.89,29.12-16.65,61.12-35.76,82.17,34.61-3.71,69.66-3.59,104.25.33,7.78.88,15.9,1.92,23.25-.69-1.69-.82-3.38-1.63-4.51-4.34-26.9-18.25-43.88-49.43-44.21-81.19"/>
    <path class="cls-47" d="m145.08,631.07l3.03,16.03c3.61,6.01,10.11,10.13,17.58,11.12l7.37.98,8.18-5.51c2.88-1.94,5.3-4.39,7.11-7.2l6.51-15.61-49.78.19Z"/>
    <path class="cls-40" d="m95.41,542.01c1.76-114.02,136.99-144.53,151.03-.4.03.27-.03.55.03.82,26.34,121.41-168.67,131.53-151.06-.41Z"/>
    <path class="cls-41" d="m166.04,449.97c-10.32,6.4-18.7,15.35-25.88,24.94-8.06,10.76-14.66,26.19-18.31,35.45-3.63,9.22-9.42,25.26-9.18,38.43.31,16.52,4.37,44.11,12.33,56.37,6.25,9.62,28.85,28.29,28.85,28.29,0,0-18.76-3.8-24.05-7.3-27.78-18.37-41.08-37.79-43.9-67.29-2.17-22.67,12.12-60.59,22.08-74.96,10.54-15.22,37.29-33.59,58.07-33.94Z"/>
    <ellipse class="cls-6" cx="202.61" cy="528.85" rx="15.36" ry="12.83"/>
    <path class="cls-46" d="m200.18,546.61c-11.13-8.59-31.32,16.2-56.96,3.8-25.64-12.4,4.48,28.61,12.31,30.88,4.87,1.41,26.14-.65,31.7-5.34,5.99-5.06,19.37-24.37,12.94-29.33Z"/>
    <path class="cls-4" d="m160.58,541.06c4.21,1.65,9.48-.19,12.2-3.41,2.72-3.21,3.31-7.42,2.96-11.38-.71-8.03-4.84-15.53-6.67-23.42-1.83-7.9-.66-17.28,6.85-22.11"/>
    <ellipse class="cls-8" cx="139" cy="528.85" rx="15.77" ry="13.23"/>
    <polyline class="cls-8" points="119.35 512.18 133.7 518.11 126.73 526.43"/>
    <polygon class="cls-8" points="209.93 520.49 222.23 514.16 216.08 529.99 209.93 520.49"/>
    <path class="cls-18" d="m125.26,547.67c-.48-2.39-5.05-6.09-7.54-6.49-2.67-.43-9.09,0-10.59,2.16-1.3,1.89-.76,7.21.61,9.05,1.67,2.24,7.84,4.87,10.59,4.13s7.47-6.13,6.93-8.86Z"/>
    <path class="cls-18" d="m213.68,548.85c-.82,1.88,1.85,6.29,3.65,7.35,2.2,1.29,7.8,1.44,10.26.72s6.32-4.79,6.84-7.17c.39-1.8-1.96-5.6-3.65-6.46-3.99-2.03-15.35,1.55-17.1,5.56Z"/>
    <ellipse class="cls-75" cx="140.78" cy="525.46" rx="4.98" ry="3.39"/>
    <ellipse class="cls-75" cx="201.38" cy="524.88" rx="4.57" ry="2.81"/>
    <path class="cls-40" d="m190.87,661.87c19.37,8.46,39.18,16.89,60.3,19.22,21.12,2.33,44.11-2.33,59.07-16.92,13.25-12.92,18.45-31.63,20.65-49.69,3.8-31.19.12-63.21-10.32-92.93-.16,0-.32,0-.7-.38-3.92,1.99-8.95.57-12.23-2.29-3.28-2.87-5.18-6.89-6.88-10.84-1.23-2.86-2.42-5.82-2.49-8.92-.07-3.1,1.19-6.4,3.92-8.04,3.64-2.18,8.67-.64,11.6,2.38,2.93,3.01,4.28,7.12,7.05,10.84-8.22-12.72-10.07-29.09-4.88-43.22,2.78-7.56,8.65-15.16,16.92-15.77,8.19-.6,15.37,6.24,17.72,13.85,2.35,7.61,1.04,15.77-.28,23.6-2.65,15.65-5.3,31.3-5.57,47.04,4.59,25.83,9.2,51.93,7.67,78.1-1.52,26.17-9.75,52.8-27.94,72.24-18.19,19.45-47.5,30.27-73.46,22.65-21.88-6.43-39.8-24.79-62.34-25.36-.47-6.25.71-12.61,2.21-15.54Z"/>
    <path class="cls-78" d="m136.66,443.11c-9.11,3-18.27,7.57-23.33,15.49-5.06,7.92-4.32,19.83,3.7,24.97,4.75,3.05,11.07,3.16,16.46,1.35,5.39-1.82,9.98-5.35,14.05-9.21,4.75-4.5,10.16-10,16.74-9.06,3.83.54,7.03,3.26,10.84,3.89,5.06.84,9.86-2.1,14.32-4.57s10.04-4.58,14.55-2.2c2.57,1.35,4.56,4.08,7.49,4.16,1.81.05,3.47-.98,4.8-2.17,4.33-3.87,6.47-9.91,5.47-15.52-.99-5.62-5.07-10.64-10.49-12.9-10.78-4.5-23.01,1.98-34.74,1.51-7.55-.31-14.69-3.51-22.21-4.25-7.52-.74-16.56,2.27-17.65,8.53Z"/>
    <path class="cls-11" d="m150.51,620.07c3.56-7.28,11.83-12.15,20.15-11.89,8.33.27,16.24,5.66,18.76,13.35"/>
    <path class="cls-11" d="m194.55,487.4c7.58,1.15,14.39,6.24,17.46,13.04"/>
    <path class="cls-11" d="m133.4,496.66c-9.12,1.27-17.65,6.14-23.18,13.26"/>
    <path class="cls-40" d="m109.48,697.66c-14.73,10.79-20.91,31.76-13.86,48.57,7.05,16.81,26.97,27.59,45,23.88,18.02-3.71,31.76-21.86,29.73-39.9-1.36,13.56,6.42,27.43,18.43,34.33,12.02,6.89,27.57,6.86,39.87.67,10.71-5.39,19.1-15.51,21.15-27.2,2.73-15.56-5.77-31.28-17.22-42.47-16.93-16.54-40.89-25.88-64.64-25.19-23.75.69-42.54,15.65-58.45,27.31Z"/>
    <path class="cls-49" d="m165.49,761.83c8.96-6.65,10.1-20.03,5.09-29.81-5.01-9.78-14.72-16.51-24.72-21.6-3.05-1.55-6.26-3.01-9.7-3.2s-7.17,1.2-8.79,4.14c-1.6,2.91-.8,6.46.04,9.65,2.52,9.58,5.05,19.16,7.57,28.74,1.34,5.07,2.85,10.44,6.85,13.97,4.17,3.67,10.47,4.57,15.88,3.03,5.41-1.55,9.95-5.27,7.77-4.93Z"/>
    <path class="cls-49" d="m208.56,678.41c24.2,13.59,53.11,23.8,79.88,15.9,28.27-8.34,47.08-35.48,53.29-63.39,6.21-27.92,2.11-56.89-1.8-85.2-3.91-28.3-7.57-57.41-.52-85.14,1.51-5.92-.05-13.93,5.51-10.58,2.56,1.54,7.29,10.67,7.8,14.79,1.07,8.67-2.78,20.8-3.8,34.72-1.85,25.21,1.71,50.44,3.54,75.65,1.83,25.21,1.83,51.13-6.8,74.98-8.63,23.85-27.76,41.97-52.39,52.54-26.82,11.52-55.51-3.78-79.83-19.65,18.67,6.17,34.68,21.61,35.87,42.41-10.8-23.94-31.29-30.51-40.75-47.05Z"/>
    <path class="cls-40" d="m157.63,666.71c-22.13,8.55-44.78,17.06-68.91,19.41-24.14,2.35-50.41-2.35-67.5-17.09-15.14-13.05-21.08-31.94-23.6-50.18-4.35-31.5-.14-63.84,11.79-93.85.18,0,.36,0,.81-.38,4.47,2.01,10.23.58,13.98-2.31,3.75-2.89,5.92-6.96,7.86-10.94,1.41-2.89,2.77-5.88,2.85-9.01.08-3.13-1.36-6.47-4.47-8.12-4.16-2.2-9.9-.65-13.26,2.4-3.35,3.04-4.89,7.19-8.06,10.94,9.4-12.84,11.51-29.38,5.58-43.65-3.17-7.63-9.88-15.31-19.34-15.93-9.37-.61-17.57,6.31-20.25,13.99-2.69,7.68-1.19,15.92.32,23.83,3.03,15.81,6.05,31.61,6.37,47.5-5.25,26.09-10.51,52.44-8.77,78.87,1.74,26.43,11.14,53.32,31.93,72.95,20.79,19.64,54.29,30.57,83.95,22.87,25.01-6.49,45.48-25.03,71.25-25.61.53-6.31-.81-12.73-2.52-15.69Z"/>
    <path class="cls-53" d="m93.83,742.76c5.22-24.91,27.59-32.82,41.55-49.14,5.53,25.02,30.97,77.22,30.97,77.22,0,0-37.51.86-43.74-1.59-7.05-2.77-14.24-5.63-19.94-10.5s-9.64-12.19-8.85-15.98Z"/>
    <path class="cls-53" d="m132.21,702.1c-.27-9.35-2.04-18.65-5.22-27.48,3.14-1.52,6.29-3.03,9.43-4.55.13,8.39.27,16.78.4,25.17.02,1.52.03,3.12-.73,4.45-.76,1.33-2.58,2.22-3.88,2.42Z"/>
    <path class="cls-53" d="m204.01,697.81c-3.71-11.44-4.68-23.7-2.82-35.56,3.06,1.2,6.11,2.39,9.17,3.59-3.56,11.09-5.32,22.71-6.35,31.97Z"/>
    <path class="cls-40" d="m160.78,1089.38c.03-.24.04-.47.08-.71,0-.16.02-.32.05-.48,0-.05,0-.09,0-.14-.02-.29.01-.55.06-.8-1.87-65.67,50.21-193.81-6.21-216.79-12.13-4.94,11.97,66.85,4.94,80.2-26.18,49.73-29.92,86.38-31.75,133.53-.14,3.71-2.47,7.5-.72,10.81,2.8,5.33,10.8,4.95,16.67,3.07,4.95-1.58,10.58-3.59,15.29-2.16.34-1.78.77-3.19,1.31-5.4.09-.36.18-.75.26-1.12Z"/>
    <path class="cls-53" d="m152.92,766.95c16.45,4.08,35.02,2.89,50.35-3.21-1.2-2.54-5.06-3.85-8.6-3.84-3.54,0-6.92,1.03-10.32,1.8-11.45,2.61-23.97,2.43-35.29-.5-1.25,2.38-.07,5.36,2.71,6.81,2.77,1.45,6.85,1.22,1.15-1.07Z"/>
    <path class="cls-49" d="m183.5,909.27c-1.32-7.8-3.72-6.59-11.9-6.79,15.8,67.4-36.79,213.83-27.11,282.3,4.69-1.43,12.98-81.19,13.92-85.45.89-4.05,1.73-7.98,2.53-11.83.02-.21.06-.4.12-.58,12.08-58.53,13.81-94.51,23.09-145.48,1.5-8.25.68-24.37-.64-32.16Z"/>
    <path class="cls-40" d="m210.36,855.94c-52.62,44.93,6.11,179.74,19.44,246.35.74,3.67,1.78,7.78,5.11,9.68,3.72,2.12,8.78.28,11.46-2.99,2.68-3.27,3.54-7.57,4.2-11.69,5.96-37.57,1.27-76.66-10.27-112.38,7.7-21.79,6.61-46.35-2.97-67.43-4.31-9.47-12.1-19.28-22.81-19.29-8.69,0,1.7-47.25-4.16-42.24Z"/>
    <path class="cls-49" d="m216.85,709.04c-5.61-3.12-7.43-7.22-12.86-3.81-2.79,1.75-9.63,5.82-10.88,8.8-2.56,6.09-4.56,12.4-5.96,18.83-1.19,5.49-1.89,11.47.69,16.5,1.85,3.6,3.61,8,6.84,10.55,4.12,3.26,10.79,4.99,15.87,3.45,5.61-1.69,7.52-8.34,8.12-13.98,1.47-13.92.28-28.1-1.81-40.33Z"/>
    <path class="cls-49" d="m249.8,1109.53c1.77-53.13-20.62-106.75-7.9-158.56,4-16.27,11.35-31.68,15.79-47.85,4.44-16.17,5.74-33.99-2.07-49.01-2.09-4.02-15.54-28.39-11.72-31.08,3.82-2.68,20.07,19.9,22.78,23.58,12.63,17.17,16.45,39.72,10.11,59.69-6.29,19.81-14.36,37.86-20.82,57.62-8.35,25.55-4.55,50.03-3.09,77.58,1.41,26.7,6.98,55.81-3.09,68.03Z"/>
    <path class="cls-53" d="m183.6,909.26c17.73-2.94,28.26-27.73,41.11-40.09,14.27-13.73,20.25-46.8,20.25-46.8,0,0-26.65,17.11-36.52,20.86-5.26,2-22.09,4.69-22.09,4.69,0,0-17.48-4.17-23.29-5.64-9.82-2.5-41.11-11.97-41.11-11.97,0,0,24.06,63.23,61.55,78.97,2.38,1-2.53.42.09-.01Z"/>
    <path class="cls-53" d="m201.31,689.2c2.94,28.4-4.49,78.78-4.49,78.78,0,0,38.01,3.04,47.08-4.28,8.7-7.03,9.55-33.12,3.05-43.75-5.12-8.36-14.77-11.82-23.6-15.06-8.83-3.25-18.39-7.63-22.04-15.69Z"/>
    <path class="cls-49" d="m213.17,992.17c-2.1,4.87,2.43,11.12,7.89,10.89,5.45-.24,9.38-6.86,7.08-11.94-4.06,3.56-10.45,4.38-14.96,1.06Z"/>
    <path class="cls-49" d="m154.53,988.26c.97,2.96,1.94,5.92,2.91,8.89,5.9.14,11.18-5.58,10.36-11.22-3.17,4.15-9.84,5.3-13.28,2.34Z"/>
    <path class="cls-49" d="m184.44,805.99c-3.51,6.65-3.36,14.98.38,21.51,5.58-6.5,5.34-16.98-.38-21.51Z"/>
    <path class="cls-20" d="m-19.16,646.63c-.03-.5.73-.61.84-.12,4.24,18.48,21.94,35.54,45.25,47.1,26.1,12.95,59.31,16.83,84.63,2.51-3.56,9.81-15.57,10.22-26.05,12.54-10.27,2.27-20.91,2.66-31.23.66-22.93-4.44-33.16-8.54-49.32-24.19-13.17-12.75-23.35-25.53-24.1-38.51Z"/>
    <path class="cls-20" d="m-1.77,559.45c2.27-12.43,4.53-24.86,6.8-37.29,14.2-.68,26.86-12.7,27.82-26.4,5.62,5.62.22,18.11-5.59,23.55-5.8,5.44-10.83,7.63-18.71,5.83-1.57,11.81-4.91,23.4-10.32,34.31Z"/>
    <path class="cls-49" d="m157.04,636c21.24,7.48,49.45-3.01,66.54-16.79,21.8-17.57,24.54-38.25,25.57-59.74,1.5-31.15-5.17-42.76-13.43-62.74-5.13-12.4-9.03-22.81-19.88-31.08,24.98,31.25,26.09,72.84,15.03,110.85-4.65,15.98-12.08,31.85-25.15,42.62-13.07,10.77-50.27,18.97-65.38,11.07,2.32,1.57,14.6,5.05,16.7,5.79Z"/>
    <path class="cls-41" d="m124.1,847.43c-14.88,17.5-16.73,44.26-4.4,63.51,7.23,11.29,18.44,19.66,26.7,30.26,8.27,10.6,13.33,25.59,6.31,37.01,5.76-14.74,4.23-31.96-4.03-45.54-5.18-8.51-12.74-15.51-17.71-24.13-10.58-18.35-7.91-40.87-6.87-61.11Z"/>
    <path class="cls-41" d="m-12.57,458.55c3.32,27.36,3.14,55.11-.56,82.43-3.28,24.28-9.34,48.37-8.91,72.85s8.48,50.32,28.26,65.63c-18.7-18.18-24.39-45.66-23.11-71.27,1.27-25.61,8.53-50.56,11.86-76,3.33-25.43,2.29-52.73-7.53-73.65Z"/>
    <path class="cls-41" d="m136.21,827.03c12.48-12.41,18.36-30.7,15.36-47.75"/>
    <path class="cls-40" d="m152.77,1081.63c-1.45,13.31-4.67,27.01-6.12,40.32-.48,4.36-1.55,9.53-5.79,11.17-3.71,1.44-8.07-.89-10.08-4.21-2.01-3.31-2.23-7.32-2.34-11.15-.98-35.74,4.21-71.64,15.32-105.77"/>
    <path class="cls-54" d="m189.12,439.42s-24.37-.6-30.76,5.82c-6.39,6.42-11.87,19.02-11.87,19.02l26.38-17.71,16.26-7.13Z"/>
    <path class="cls-54" d="m209.73,439.17s-24.37-.6-30.76,5.82c-6.39,6.42-5.69,14.28-5.69,14.28l26.38-17.71,10.08-2.39Z"/>
    <path class="cls-54" d="m158.14,440.64s-24.37-.6-30.76,5.82c-6.39,6.42-11.87,19.02-11.87,19.02l26.38-17.71,16.26-7.13Z"/>
  </g>
</svg>