<?xml version="1.0" encoding="UTF-8"?>
<svg xmlns="http://www.w3.org/2000/svg" viewBox="0 0 525.3 1029.47">
  <defs>
    <style>
      .cls-1 {
        fill: #fa9078;
      }

      .cls-2 {
        fill: #fa3434;
      }

      .cls-3 {
        fill: #f5f5f5;
      }

      .cls-4 {
        fill: #ff4a4a;
      }

      .cls-5 {
        fill: #ffad7a;
      }

      .cls-6 {
        fill: #fff;
      }

      .cls-7 {
        fill: #f73b3b;
      }

      .cls-8 {
        fill: #ff9f73;
      }

      .cls-9 {
        fill: #ffbf96;
      }

      .cls-10 {
        fill: #ffb587;
      }

      .cls-11 {
        fill: #ffa973;
      }

      .cls-12 {
        fill: #fcc372;
      }

      .cls-13 {
        fill: #ff9373;
      }

      .cls-14 {
        fill: #80573d;
      }

      .cls-15 {
        fill: #c1c8d4;
      }

      .cls-16 {
        fill: #667185;
      }

      .cls-17 {
        fill: #d9a050;
      }

      .cls-18 {
        fill: #dea85d;
      }

      .cls-19 {
        fill: #c47037;
      }

      .cls-20 {
        fill: #c48937;
      }

      .cls-21 {
        fill: #ad7958;
      }
    </style>
  </defs>
  <g id="Layer_1" data-name="Layer 1">
    <path class="cls-14" d="m206.29,289.66c1.69,0,1.7-2.62.01-2.62s-1.7,2.62-.01,2.62h0Z"/>
  </g>
  <g id="Layer_2" data-name="Layer 2">
    <path class="cls-18" d="m243.3,121.12c-10.65,3.81-23.16-3.82-26.79-14.54-3.62-10.72.38-22.96,7.91-31.4s18.09-13.6,28.82-17.19c-11.49-11.84-4.64-33.64,9.75-41.71,14.39-8.06,32.46-5.54,47.9.26-5.09.17-10.37.39-14.91,2.7s-8.13,7.33-7.09,12.32c1.62,7.75,11.68,9.5,19.57,10.11,20.37,1.57,41.21,7.1,56.66,20.47,15.44,13.37,24.11,35.9,16.91,55.02-7.19,19.12-32.85,30.27-49.87,18.96-7.8-5.19-12.71-13.79-20.08-19.58-10.71-8.42-25.58-9.95-38.92-7.2-13.34,2.74-25.17,10.1-29.87,11.78Z"/>
    <path class="cls-9" d="m233.56,124.14c-15.33,41.31-30.67,82.61-46,123.92-5.57,15-10.83,32.93-1.6,46.01,9.78,13.86,29.88,14.07,46.79,12.86,19.96-1.42,39.92-2.85,59.88-4.27,10.72-.76,22.68-2.15,29.5-10.45,5.3-6.46,5.99-15.42,6.44-23.77,1.96-35.69,3.92-71.38,5.87-107.06.73-13.33,1.29-27.45-5.08-39.18-9.18-16.87-30.95-23.86-49.88-20.6s-35.39,14.75-45.92,22.55Z"/>
    <path class="cls-9" d="m250.91,310.15c1.69,0,1.7-2.62.01-2.62s-1.7,2.62-.01,2.62h0Z"/>
    <path class="cls-9" d="m127.82,267.09c14.06,6.44,32.71-1.24,38.45-15.6,5.73-14.37-2.24-32.57-16.58-38.39-14.33-5.81-32.53,1.45-39.21,15.4-5.84,12.19-3.27,26.57-5.27,39.94-2.03,13.52-8.72,25.81-15.3,37.79-17.8,32.38-35.6,64.77-53.39,97.15-2.31,4.2-4.51,9.76-1.37,13.38,2.47,2.85,6.85,2.71,10.59,2.33,48.09-4.8,96.17-9.6,144.26-14.4-1.16.31-2.32.62-3.48.94-11.5,34.63-23.01,69.25-34.51,103.88-3.35,10.09-6.75,20.57-5.6,31.13s8.2,21.28,19.01,24c1.66,7.33,7.88,12.96,14.82,15.85s14.59,3.46,22.1,3.89c45.4,2.61,91.02,1.27,136.19-3.99,4.24-.49,8.8-1.17,11.89-4.11,5.39-5.13,3.6-13.95,1.7-21.15-4.82-18.28-7.66-37.08-8.48-55.97-1.72-39.94,5.61-79.66,12.91-118.96,8.74-1.45,17.49-2.91,26.22-3.63,23.67-.29,47.32-3.02,70.43-8.13-35.75,38.42-66.57,81.42-91.47,127.61-4.16,7.71-8.27,16.46-5.96,24.92,1.72,6.28,6.76,11.16,12.33,14.53,12.39,7.52,28.81,8.71,41.46,1.62s20.31-22.79,16.68-36.83c-3.63-14.03-19.22-24.26-33.26-20.67,44.33-47.34,82.92-100.06,112.6-160.89-63.86,7.83-127.72,15.66-191.58,23.48-5.74.7-11.66,1.39-17.21-.22-10.71-3.11-17.44-14.32-18.73-25.39-1.3-11.07,1.75-22.14,4.77-32.88-13.59,4.56-28.29,5.78-42.45,3.52.47,14.98.94,29.96,1.41,44.94.18,5.62.26,11.61-2.71,16.39-4.92,7.92-15.83,9.17-25.15,8.72-9.31-.44-19.62-1.45-27.02,4.22,8.87-10.73,7.76-28.3-2.38-37.84-10.14-9.53-27.75-9.55-37.91-.04-10.16,9.51-11.3,27.08-2.46,37.83-19.39.2-38.74,4.33-56.53,12.05,15.18-36.4,30.35-72.79,40.2-106.43Z"/>
    <path class="cls-9" d="m154.83,798.74c16.05,68.29,27.31,137.7,33.21,207.61,20.89-7.82,44.07-9.41,65.83-4.51-25.22-86.04-38.13-175.68-38.21-265.34-23.84,3.19-47.37,8.64-70.26,16.03"/>
    <path class="cls-9" d="m225.66,726.05c8.82,93.92,26.92,186.97,53.94,277.35,25.86-6.91,53.14-8.5,79.63-4.63-7.15-88.32-7.92-177.15-2.3-265.57.32-5.06.36-10.9-3.45-14.24-3.39-2.97-8.44-2.72-12.93-2.29-38.9,3.71-77.8,7.41-114.9,9.38Z"/>
    <path class="cls-9" d="m372.41,358.71c-9.26,6.25-12.27,19.79-7.55,29.95s16.03,16.46,27.18,16.34,21.82-6.12,28.86-14.81c4.55-5.62,7.81-12.78,6.98-19.98-.9-7.81-6.42-14.37-12.71-19.05-7.32-5.45-16.54-9.1-25.49-7.45-8.95,1.64-16.99,9.81-17.26,15.01Z"/>
    <path class="cls-12" d="m267.13,106.18c-9.71-3.34-20.95-8.37-22.7-18.5-1.16-6.74,2.69-13.56,8.04-17.83s12-6.49,18.5-8.63c-8.07-8.76-10.14-22.55-5-33.29,5.14-10.75,17.18-17.78,29.07-16.99-11.6,4.7-18.8,17.54-18.48,30.05.32,12.51,7.35,24.27,17.16,32.03-3.6-5.29-11.92-5.87-17.05-2.05-5.13,3.82-7.13,10.86-6.19,17.19.94,6.33,4.41,12.01,8.49,16.94-4.6,1.34-8.93,2.09-11.84,1.09Z"/>
    <path class="cls-9" d="m329.9,196.05c1.28-6.11,2.67-12.46,6.52-17.37s10.96-7.87,16.53-5.04c4.61,2.35,6.79,8.01,6.43,13.18-.36,5.17-2.8,9.94-5.43,14.41-7.91,13.45-18.03,25.59-29.83,35.81-2.67-15.32,3.59-30.52,5.78-40.98Z"/>
    <path class="cls-11" d="m362.69,379.62c-5.27,14.51,23.84,30.84,39.53,27.83,15.68-3.01,27.84-20.56,25.78-34.42-16.25,15.23-44.81,21.32-65.31,6.59Z"/>
    <path class="cls-5" d="m186.88,360.86c2.77-8.62-4.16-24.33-11.15-30.09-6.99-5.76-17.65-10.03-25.59-5.66,4.12-7.23,12.23-9.13,20.5-8.15s18.38,8.96,20.7,16.95,1.32,21.88-4.46,26.95Z"/>
    <path class="cls-10" d="m144.8,361.47c-20.86-2.45-39.42.85-57.19,12.05,14.47-28.32,19.2-48.16,29.9-75.09,5.03-12.66,9.16-29.43,13.39-42.38,3.59,4.58,10.36,6.06,15.81,4.03s9.45-7.15,10.82-12.8c1.86-7.64-2.05-17.13-9.73-18.79-4.91-1.06-10.06,1.27-13.61,4.82s-5.78,8.18-7.84,12.76c-8.62,19.13-15.5,39-22.36,58.83-9,26-17.99,52-26.99,77.99,23.33-12.35,50.28-17.73,76.56-15.28-3.59-2.43-7.19-4.86-8.75-6.13Z"/>
    <path class="cls-11" d="m259.54,1008.8c-28.83-126.96-37.9-146.25-41.57-259.97,0-.01,0-.02,0-.03,0-.05-.01-.11-.02-.16-.06-.28-.14-.56-.15-.85-.01-.26.12-.48.32-.63-3.76-.09-7.55.9-10.77,2.84,5.38,83.08,19.22,176.16,37.65,257.34,7.91.87,9.11-4.34,14.56,1.46Z"/>
    <path class="cls-11" d="m274.8,304.95c-8.19,7.8-6.24,25.38.64,34.36s18.49,13.26,29.77,13.98,22.5-1.65,33.63-3.67c49.76-9.04,100.48-11.17,151.01-13.28-8.88,24.72-25.99,45.48-42.78,65.69-13.62,16.4-27.24,32.79-40.86,49.19-6.95,8.37-14.01,16.9-18.17,26.96-4.16,10.05-5.07,22.03.22,31.54s17.87,15.17,27.71,10.54,12.58-20.57,3.6-26.7c-6.77-4.62-18.7-4.64-19.57-12.79-.4-3.71,2.14-7.01,4.51-9.89,35.63-43.14,71.25-90.22,96.99-139.9,1.39-2.68,4.12-12.7,4.12-12.7,0,0-117.34,12.09-119.34,12.41-48.7,7.87-8.83,3.24-76.09,11.51-3.32.41-24.22-8.62-26.43-10.63-4.87-4.44-5.51-27.91-5.51-27.91"/>
    <path class="cls-11" d="m291.6,304.11s30.9-4.12,35.03-13.79c8.59-20.09,2.23-43.53,10.82-63.62,3.74-8.74,10.86-15.49,16.36-23.24,5.5-7.75,9.47-17.89,5.77-26.65-3.7-8.75-18.05-12.01-22.56-3.65,6.31-12.51,3.77-29.88-1.3-42.94-6.05-15.58-15.98-21.84-35.77-28.25,17.37,5.31,27.41,25.2,31.05,42.99,3.64,17.79,3,23.52.33,43.79-1.04,9.34.54,4.68-.83,15.11-2.38,18.13,1.16,4.51-3.86,24.1-4.48,17.48-14.41,11.19-3.54,26.73,6.75,9.64,1.96,24.91-5.27,34.2-6.99,8.99-31.33,6.91-39.58,14.76"/>
    <path class="cls-11" d="m358.76,381.95c.95-3.89,6.78-.26,3.92-2.33-2.5-1.81-8.22-5.15-11.03-3.87-19.11,60.69-21.78,117.35-9.63,179.77-10.61,3.49-40.77,7.37-44.91,17.7-1.07,2.67,13.97,1.58,16.77.97,15.06-3.24,27.09-7.61,40.43-11.11-19.66-63.67-9.71-123.18,4.44-181.13Z"/>
    <path class="cls-4" d="m217.26,715.03c1.56,12.06,4.17,23.94,7.86,35.4,43.32-8.03,88.17-5.62,130.8,7.05,11.17-31.7,21.34-64.33,24.19-98.43,2.68-32.01-1.61-65.75-16.29-93.18-.35-.55-.71-1.1-1.06-1.65-.6-.95-1.29-1.83-1.8-2.83-.13-.25-.21-.51-.25-.78-63.24,23.47-132.07,27.31-197.32,11.08-19.04,57.85-27.26,119.79-26.74,181.74,27.11-1.2,54.21-2.4,81.32-3.6-.6-11.59-.83-23.2-.72-34.8Z"/>
    <path class="cls-13" d="m264.52,168.56c-13.53,20.83-31.57,40.09-33.4,64.86,4.88-7.25,25.39-4.86,33.07-.7-2.13-20.55-2.02-41.34.33-64.16Z"/>
    <path class="cls-16" d="m255.36,178.87c-19.95-13.8-42.2-24.26-65.55-30.83,5.69,5.03,8.8,12.85,8.1,20.41-.69,7.57-5.16,14.69-11.67,18.61,16.7,5.26,32.86,12.2,48.18,20.69,6.54-9.44,13.09-18.88,20.94-28.88Z"/>
    <path class="cls-16" d="m266.76,179.41c6.67,10.13,11.68,21.34,14.79,33.06,17.89-11.45,38.62-18.42,59.93-21.67-6.84-3.6-11.97-10.29-13.66-17.83-1.69-7.54.09-15.79,4.73-21.96-23.47,6.48-45.87,16.82-65.79,28.4Z"/>
    <path class="cls-16" d="m331.24,179.39c11.63-11.33,23.27-22.67,34.9-34-2.67-.65-5.08-2.29-6.68-4.53-11.87,11.98-23.75,23.95-35.62,35.93,2.33,1.88,4.65,3.76,6.98,5.64,1.79-2.26,3.58-4.51.43-3.04Z"/>
    <path class="cls-16" d="m239.16,185.63c11.21-8.3,28.88-5.91,35.95,5.71-1.8-8.7-9.78-15.74-18.64-16.45s-17.85,4.99-17.31,10.74Z"/>
    <path class="cls-3" d="m192.39,235.03c21.45,3.81,40.83,5.64,62.56,7.16,25.01,1.75,43.46-12.39,55.35-30.64-8.82,22.08-21.55,44.33-42.74,55.11-13.27,6.75-28.7,8.3-43.53,6.92s-27.6-3.49-41.91-7.61c2.01-15.6,8.15-25.21,10.27-30.95Z"/>
    <path class="cls-15" d="m185.65,251.28c20.21,3.05,40.41,6.45,60.83,7.81,4.91.33,10,.83,14.91.36s8.52-2.5,12.21-5.44c6.79-5.4,13.37-11.14,19.43-17.35,7.15-7.33,13.55-15.44,18.41-24.47.8-1.48-1.47-2.79-2.28-1.3-8.27,15.36-20.89,27.62-34.2,38.64-3.4,2.82-6.83,5.93-11.26,6.93s-9.71.44-14.4.18c-9.89-.56-19.73-1.65-29.55-2.95-11.16-1.48-22.29-3.26-33.42-4.95-1.65-.25-2.35,2.28-.68,2.53h0Z"/>
    <path class="cls-11" d="m191.04,236.13c9.67,1.78,19.39,3.14,29.17,4.1,8.39.83,16.8,1.88,25.23,2.24,7.5.32,15.15.6,22.64-.1,3.32-.31,6.46-1.27,9.59-2.4,4.34-1.56,8.74-3.36,12.6-5.91,2.33-1.54,4.42-3.48,6.49-5.34s3.98-3.7,5.82-5.7c3.34-3.64,6.16-7.7,8.83-11.84.92-1.42-1.36-2.72-2.28-1.3-2.31,3.58-4.72,7.1-7.53,10.31-3.28,3.74-7,7.06-10.82,10.24-3.34,2.78-7.53,4.6-11.54,6.17-3.23,1.26-6.66,2.6-10.12,3.04-3.28.42-6.63.44-9.94.47-3.92.03-7.84-.04-11.75-.18-7.98-.28-15.9-1.23-23.84-1.99-10.69-1.03-21.3-2.4-31.87-4.34-1.65-.3-2.34,2.23-.68,2.53h0Z"/>
    <path class="cls-6" d="m275.87,180.71c17.1-5.7,33.49-13.55,48.64-23.31.38,9.63.76,19.25,1.14,28.88-3.97-6.73-6.19-14.49-6.38-22.31-13.49,9.56-28.95,16.31-43.4,16.74Z"/>
    <path class="cls-6" d="m201.2,156.27c13.66,9.84,29.19,17.08,45.51,21.22-5.8,7.34-9.19,16.56-9.52,25.9-.25-7.5-.5-15-.76-22.51-13.68-4.86-25.95-13.59-35.24-24.62Z"/>
    <path class="cls-1" d="m215.71,412.63c3.78-.03,6.75,3.79,5.24,6.74-1.51,2.95-6.85,3.78-9.43,1.46-2.58-2.32-1.52-8.15,4.19-8.2Z"/>
    <path class="cls-1" d="m289.65,409.91c3.2,0,5.75,4.11,4.49,7.26s-5.78,3.99-7.99,1.49-1.34-8.75,3.5-8.75Z"/>
    <path class="cls-19" d="m239.64,402.18c1.69,0,1.7-2.62.01-2.62s-1.7,2.62-.01,2.62h0Z"/>
    <path class="cls-19" d="m240.09,401.47c-2.59-8.12-6.36-15.81-11.23-22.81-.96-1.38-3.24-.08-2.27,1.31,4.73,6.81,8.44,14.26,10.96,22.16.51,1.6,3.05.95,2.54-.66h0Z"/>
    <path class="cls-19" d="m253.68,399.22c-1.88-9.12-3.76-18.25-5.63-27.37-.34-1.66-2.88-.99-2.54.66,1.88,9.12,3.76,18.25,5.63,27.37.34,1.66,2.88.99,2.54-.66h0Z"/>
    <path class="cls-19" d="m263.91,397.39c-.09-7.99.68-15.95,2.33-23.76.35-1.65-2.18-2.33-2.53-.68-1.69,8.03-2.51,16.22-2.42,24.43.02,1.69,2.64,1.7,2.62.01h0Z"/>
    <path class="cls-19" d="m272.76,401.25l16.83-22.54c1.01-1.35-1.28-2.64-2.28-1.3-5.61,7.51-11.22,15.03-16.83,22.54-1.01,1.35,1.28,2.64,2.28,1.3h0Z"/>
    <path class="cls-19" d="m244.12,386.66c-2.06-5.82-4.58-11.46-7.56-16.86-.82-1.48-3.09-.17-2.27,1.31,2.87,5.2,5.32,10.61,7.3,16.21.56,1.58,3.1.93,2.54-.66h0Z"/>
    <path class="cls-19" d="m260.49,378.19c-.07-5.64-.63-11.27-1.67-16.81-.31-1.66-2.85-.99-2.54.66,1,5.33,1.52,10.72,1.58,16.14.02,1.69,2.64,1.7,2.62.01h0Z"/>
    <path class="cls-19" d="m278.66,380.05c2.53-4.43,5.05-8.85,7.58-13.28.84-1.46-1.44-2.77-2.28-1.3-2.53,4.43-5.05,8.85-7.58,13.28-.84,1.46,1.44,2.77,2.28,1.3h0Z"/>
    <path class="cls-19" d="m248.55,408.91c-.08-4.38-1.2-8.67-3.28-12.52-.8-1.49-3.07-.17-2.27,1.31,1.86,3.44,2.86,7.28,2.93,11.19.03,1.69,2.65,1.7,2.62.01h0Z"/>
    <path class="cls-19" d="m257.63,397.5c-.33,4.13-.02,8.28.87,12.33.36,1.65,2.9.98,2.54-.66-.84-3.83-1.1-7.74-.79-11.65.06-.71-.63-1.31-1.3-1.32-.75,0-1.26.6-1.32,1.3h0Z"/>
    <path class="cls-19" d="m268.58,395.89c-.85,4.3-1.7,8.6-2.55,12.91-.14.69.21,1.41.93,1.61.65.17,1.47-.23,1.61-.93.85-4.3,1.7-8.6,2.55-12.91.14-.69-.21-1.41-.93-1.61-.65-.17-1.47.23-1.61.93h0Z"/>
    <path class="cls-11" d="m321.11,749.49c7.93,85.72,21.49,163.16,29.42,248.88,4.89.4,9.79.81,14.68,1.21-12.28-84.76-16.75-162.35-7.41-247.48-10.73,4.64-18.51,0-36.69-2.62Z"/>
    <path class="cls-10" d="m201.18,512.36c6.03,6.65,15.32,9.76,23.83,7.98,8.51-1.78,15.96-8.39,17.79-17.26.59,8.94,6.36,17.3,14.22,20.6s17.42,1.39,23.6-4.65l-3.62-.89c1.76,1.97,5.17,1.05,6.53-1.23s1.1-5.28.23-7.83c-2.4-7.06-9.36-12.08-16.42-11.84-3.72.13-7.38,1.56-11.08,1.1-6.23-.77-11.31-6.72-17.58-6.6-7.59.14-12.63,8.96-20.04,10.73-3,.71-6.12.2-9.19.17s-6.41.55-8.51,2.92-2.04,6.95.24,6.8Z"/>
    <path class="cls-8" d="m241.22,503.8c-.59-1.02-1.15-1.31-2.16-.84-3.14,1.47-3.55,7.24-2.84,10.92.16.84.4,1.69.9,2.36s1.31,1.11,2.07.92c1.13-.28,1.64-1.71,1.97-2.94.49-1.85.98-3.73,1.02-5.66s.08-2.97-.97-4.76Z"/>
    <path class="cls-10" d="m230.24,466.28c-1.95,3.48-5.91,5.75-10.07,6.39s-8.46.32-12.57,1.25c-4.1.93-8.24,3.61-8.9,7.59-.92,5.54,5.32,9.92,11.14,10.56,6.41.7,12.88-1.37,18.39-4.61s10.18-7.59,14.8-11.9c6.12,6.79,14.93,11.28,24.24,12.37,6.24.73,14.02-1.07,15.77-6.86,1.2-3.96-1.16-8.27-4.58-10.77s-7.71-3.58-11.88-4.61c-5.96-1.47-11.92-2.93-17.88-4.4-4.29-1.05-3.31-3.64-7.61-2.6-4.3,1.04-8.94,4.16-10.85,7.58Z"/>
    <path class="cls-10" d="m254.31,530.59c-2.3-5.9-7.5-8.99-12.44-9.24s-3.98,5.62-8.64,7.68c-4.33,1.91-13.17,2.12-17.49,4.02-2.54,1.12-6.43.24-8.13,2.98-3.18,5.13-1.28,13.74,2.92,17.53,4.2,3.79,9.77,3.61,14.53,1.57,7.05-3.01,13.63-9.76,21.02-8.4,4.36.8,8.15,4.35,12.19,6.74,5.14,3.03,10.85,4.22,16.38,3.4,3.79-.56,8.24-3.25,8.31-8.37.08-5.42-4.67-8.42-8.57-9.97-7.11-2.84-14.22-5.68-20.07-7.93Z"/>
    <path class="cls-2" d="m322.65,742.95c20.11-30.13,34-61.36,32.93-97.57-.5-17.09-8.59-33.13-10.23-50.15-.68-7.08,0-14.85,4.69-20.2s14.42-6.48,18.53-.68c1.23,1.74,5.53,16.74,6.08,18.8,12.69,47.54,7.41,97.21-11.9,148.38-1.87,4.94-2.64,8.77-4.94,10.56-3.23,2.52-9.25,2.41-16.32,1.28-5.51-.88-14.48-1.79-20.38-3.9-.81,1.41,1.13-5.92,1.54-6.54Z"/>
    <path class="cls-2" d="m299.97,592.13c40.23,5.39,55.08,20.25,55.08,20.25l.27-20.19-6.75-19.66-48.61,19.6Z"/>
    <path class="cls-2" d="m217.46,716.59c1.08-8.22,2.16-16.44,3.24-24.65,1.51,10.66,3.06,21.44,7.14,31.41s11.03,19.17,20.78,23.75c-8.17.23-16.28,2.12-23.71,5.51-2.92-12.65-5.83-25.3-7.45-36.01Z"/>
    <path class="cls-2" d="m207.55,750.18c-2.13-21.41,3.34-42.96,14.69-61.23-2.08,20.21-4.91,35.88-4.1,60.88-.67.07-1.55.03-2.22.1,1.04-.07-5.03-.05-8.36.26Z"/>
    <path class="cls-7" d="m164.41,587.19c25.49,7.28,51.97,11.04,78.48,11.26,26.36.22,52.77-3.02,78.27-9.68,14.39-3.75,28.47-8.62,42.12-14.51,1.55-.67.22-2.93-1.31-2.27-24,10.36-49.41,17.37-75.29,20.99-25.88,3.62-52.26,3.8-78.19.56-14.67-1.84-29.19-4.82-43.4-8.88-1.63-.46-2.3,2.07-.68,2.53h0Z"/>
    <path class="cls-7" d="m168.56,580.62c25.1,6.18,50.98,9.16,76.83,8.94,25.68-.23,51.36-3.6,76.22-10.06,13.81-3.59,27.34-8.15,40.52-13.6,1.55-.64.23-2.91-1.31-2.27-23.36,9.67-47.95,16.37-72.96,20.04s-50.67,4.28-75.91,1.78c-14.39-1.42-28.67-3.89-42.71-7.35-1.64-.4-2.32,2.13-.68,2.53h0Z"/>
    <path class="cls-7" d="m163.23,584.45l1.96-9.01-1.61.93c25.51,7.1,51.96,10.76,78.44,10.98,26.4.22,52.85-2.96,78.43-9.49,14.4-3.67,28.5-8.43,42.2-14.19l-1.92-.81c1.07,3.24,2.13,6.47,3.2,9.71l.94-1.6c-22.47,7.43-45.6,12.86-69.04,16.2-23.47,3.35-47.25,4.58-70.94,3.72-13.43-.49-26.83-1.65-40.14-3.51-1.65-.23-2.35,2.3-.68,2.53,23.71,3.3,47.7,4.5,71.62,3.53,23.84-.97,47.6-4.05,70.89-9.2,13.15-2.91,26.15-6.5,38.94-10.73.64-.21,1.17-.89.94-1.6-1.07-3.24-2.13-6.47-3.2-9.71-.29-.89-1.11-1.15-1.92-.81-24.2,10.17-49.77,17.05-75.77,20.58-25.86,3.51-52.2,3.67-78.11.49-14.59-1.79-29.04-4.69-43.21-8.63-.66-.18-1.46.24-1.61.93l-1.96,9.01c-.36,1.65,2.17,2.33,2.53.68h0Z"/>
    <path class="cls-21" d="m160.11,770.23l-1.35,2.94c-.15.32-.22.63-.13.98.08.31.32.66.62.81s.65.23.98.13.66-.3.81-.62l1.35-2.94c.15-.32.22-.63.13-.98-.08-.31-.32-.66-.62-.81s-.65-.23-.98-.13-.66.3-.81.62h0Z"/>
    <path class="cls-21" d="m165.35,781.57l-.51,6.54c-.05.69.63,1.34,1.3,1.32.75-.03,1.26-.57,1.32-1.3l.51-6.54c.05-.69-.63-1.34-1.3-1.32-.75.03-1.26.57-1.32,1.3h0Z"/>
    <path class="cls-21" d="m178.99,775.73l-.65,2.19c-.09.32-.03.71.13.99s.48.54.8.61.7.06.99-.13.51-.45.61-.8l.65-2.19c.09-.32.03-.71-.13-.99s-.48-.54-.8-.61-.7-.06-.99.13-.51.45-.61.8h0Z"/>
    <path class="cls-21" d="m193.6,780.28l.79,2.15c.04.18.12.33.24.46.09.15.22.26.38.34.27.16.67.22.98.13.33-.1.65-.3.81-.62.15-.29.25-.66.13-.98l-.79-2.15c-.04-.18-.12-.33-.24-.46-.09-.15-.22-.26-.38-.34-.27-.16-.67-.22-.98-.13-.33.1-.65.3-.81.62-.15.29-.25.66-.13.98h0Z"/>
    <path class="cls-21" d="m169.22,810.09l-1.26,5.84c-.14.67.21,1.45.93,1.61.67.15,1.45-.21,1.61-.93l1.26-5.84c.14-.67-.21-1.45-.93-1.61-.67-.15-1.45.21-1.61.93h0Z"/>
    <path class="cls-21" d="m179.56,801.31c1.69,0,1.7-2.62.01-2.62s-1.7,2.62-.01,2.62h0Z"/>
    <path class="cls-21" d="m183.04,813.6l-.54,5.81c-.06.69.64,1.34,1.3,1.32.76-.03,1.25-.57,1.32-1.3.18-1.94.36-3.88.54-5.81.06-.69-.64-1.34-1.3-1.32-.76.03-1.25.57-1.32,1.3h0Z"/>
    <path class="cls-21" d="m177.16,839.15c.09,3.38.19,6.76.28,10.13.02.71.58,1.31,1.3,1.32s1.34-.59,1.32-1.3c-.09-3.38-.19-6.76-.28-10.13-.02-.71-.58-1.31-1.3-1.32s-1.34.59-1.32,1.3h0Z"/>
    <path class="cls-21" d="m189.06,842l1.61,5.02c.21.65.9,1.16,1.6.94.65-.2,1.16-.9.94-1.6l-1.61-5.02c-.21-.65-.9-1.16-1.6-.94-.65.2-1.16.9-.94,1.6h0Z"/>
    <path class="cls-21" d="m201.76,832.56c.06,1.93.12,3.86.19,5.79.02.69.58,1.35,1.3,1.32.69-.03,1.34-.57,1.32-1.3l-.19-5.79c-.02-.69-.58-1.35-1.3-1.32-.69.03-1.34.57-1.32,1.3h0Z"/>
    <path class="cls-21" d="m267.13,781.93c.06,1.93.12,3.86.19,5.79.02.69.58,1.35,1.3,1.32.69-.03,1.34-.57,1.32-1.3l-.19-5.79c-.02-.69-.58-1.35-1.3-1.32-.69.03-1.34.57-1.32,1.3h0Z"/>
    <path class="cls-21" d="m178.31,801.44l.05,1.45c.01.35.14.69.39.94.12.13.26.22.43.27.15.08.31.11.49.11.34-.01.7-.13.94-.39.22-.25.39-.57.38-.91l-.05-1.45c-.01-.35-.14-.69-.39-.94-.12-.13-.26-.22-.43-.27-.15-.08-.31-.11-.49-.11-.34.01-.7.13-.94.39-.22.25-.39.57-.38.91h0Z"/>
    <path class="cls-21" d="m194.12,805.05c.47,1.37.94,2.74,1.4,4.11.12.34.3.63.62.81.27.16.67.22.98.13.64-.2,1.18-.91.94-1.6l-1.4-4.11c-.12-.34-.3-.63-.62-.81-.27-.16-.67-.22-.98-.13-.64.2-1.18.91-.94,1.6h0Z"/>
    <path class="cls-21" d="m249.02,771.44c-.33,4.21-.66,8.41-.99,12.62-.06.71.63,1.31,1.3,1.32.75,0,1.26-.6,1.32-1.3.33-4.21.66-8.41.99-12.62.06-.71-.63-1.31-1.3-1.32-.75,0-1.26.6-1.32,1.3h0Z"/>
    <path class="cls-21" d="m252.77,802.09c-.32,4.67-.63,9.34-.95,14.01-.11,1.69,2.51,1.69,2.62.01.32-4.67.63-9.34.95-14.01.11-1.69-2.51-1.69-2.62-.01h0Z"/>
    <path class="cls-21" d="m280.1,769.38l1.58,5.54c.19.66.91,1.15,1.6.94s1.14-.89.94-1.6l-1.58-5.54c-.19-.66-.91-1.15-1.6-.94s-1.14.89-.94,1.6h0Z"/>
    <path class="cls-21" d="m301.11,775.39l.27,8.38c.02.69.58,1.35,1.3,1.32.69-.03,1.34-.57,1.32-1.3l-.27-8.38c-.02-.69-.58-1.35-1.3-1.32-.69.03-1.34.57-1.32,1.3h0Z"/>
    <path class="cls-21" d="m283.66,798.32c-.35,3.74-.69,7.48-1.04,11.22-.07.71.64,1.31,1.3,1.32.76,0,1.25-.6,1.32-1.3.35-3.74.69-7.48,1.04-11.22.07-.71-.64-1.31-1.3-1.32-.76,0-1.25.6-1.32,1.3h0Z"/>
    <path class="cls-21" d="m306.41,814.76c.5,1.85,1.01,3.71,1.51,5.56.18.66.92,1.15,1.6.94s1.13-.89.94-1.6c-.5-1.85-1.01-3.71-1.51-5.56-.18-.66-.92-1.15-1.6-.94s-1.13.89-.94,1.6h0Z"/>
    <path class="cls-21" d="m271.89,823.87l-1.04,11.22c-.07.71.64,1.31,1.3,1.32.76,0,1.25-.6,1.32-1.3l1.04-11.22c.07-.71-.64-1.31-1.3-1.32-.76,0-1.25.6-1.32,1.3h0Z"/>
    <path class="cls-21" d="m290.32,830.61l1.62,6.94c.16.67.93,1.14,1.6.94s1.11-.88.94-1.6c-.54-2.31-1.08-4.63-1.62-6.94-.16-.67-.93-1.14-1.6-.94s-1.11.88-.94,1.6h0Z"/>
    <path class="cls-21" d="m259,856.79c.54,2.31,1.08,4.63,1.62,6.94.16.67.93,1.14,1.6.94s1.11-.88.94-1.6c-.54-2.31-1.08-4.63-1.62-6.94-.16-.67-.93-1.14-1.6-.94s-1.11.88-.94,1.6h0Z"/>
    <path class="cls-21" d="m268.22,803.17l.2,6.27c.02.69.58,1.35,1.3,1.32.69-.03,1.34-.57,1.32-1.3l-.2-6.27c-.02-.69-.58-1.35-1.3-1.32-.69.03-1.34.57-1.32,1.3h0Z"/>
    <path class="cls-21" d="m314.04,794.72l3.47,10.36c.22.67.88,1.13,1.6.94.65-.17,1.16-.92.94-1.6l-3.47-10.36c-.22-.67-.88-1.13-1.6-.94-.65.17-1.16.92-.94,1.6h0Z"/>
    <path class="cls-21" d="m282.38,855.42l1.19,5.2c.15.67.94,1.14,1.6.94.7-.21,1.1-.88.94-1.6l-1.19-5.2c-.15-.67-.94-1.14-1.6-.94-.7.21-1.1.88-.94,1.6h0Z"/>
    <path class="cls-21" d="m191.19,963.96l1.58,10.51c.11.7.97,1.1,1.6.94.75-.19,1.04-.9.94-1.6-.53-3.5-1.06-7.01-1.58-10.51-.11-.7-.97-1.1-1.6-.94-.75.19-1.04.9-.94,1.6h0Z"/>
    <path class="cls-21" d="m203.45,970.15c.57,3.94,1.13,7.88,1.7,11.82.1.7.97,1.1,1.6.94.75-.2,1.04-.9.94-1.6-.57-3.94-1.13-7.88-1.7-11.82-.1-.7-.97-1.1-1.6-.94-.75.2-1.04.9-.94,1.6h0Z"/>
    <path class="cls-21" d="m185.76,928.15l.41,13.18c.05,1.69,2.67,1.7,2.62.01l-.41-13.18c-.05-1.69-2.67-1.7-2.62-.01h0Z"/>
    <path class="cls-21" d="m214.38,940.77l1.44,3.91c.13.34.29.62.62.81.27.16.67.22.98.13.33-.1.65-.3.81-.62.15-.29.25-.66.13-.98l-1.44-3.91c-.13-.34-.29-.62-.62-.81-.27-.16-.67-.22-.98-.13-.33.1-.65.3-.81.62-.15.29-.25.66-.13.98h0Z"/>
    <path class="cls-21" d="m202.96,927.83l-.34,4.16c-.03.32.17.72.39.94s.59.39.91.38c.76-.03,1.26-.57,1.32-1.3l.34-4.16c.03-.32-.17-.72-.39-.94s-.59-.39-.91-.38c-.76.03-1.26.57-1.32,1.3h0Z"/>
    <path class="cls-21" d="m185.44,901.45l-1.15,5.31c-.14.67.21,1.45.93,1.61.67.15,1.45-.21,1.61-.93l1.15-5.31c.14-.67-.21-1.45-.93-1.61-.67-.15-1.45.21-1.61.93h0Z"/>
    <path class="cls-21" d="m201.46,909.18l.21,6.59c.02.69.58,1.35,1.3,1.32.69-.03,1.34-.57,1.32-1.3l-.21-6.59c-.02-.69-.58-1.35-1.3-1.32-.69.03-1.34.57-1.32,1.3h0Z"/>
    <path class="cls-21" d="m285.61,916.87l1.45,6.43c.15.67.94,1.14,1.6.94.7-.22,1.1-.88.94-1.6l-1.45-6.43c-.15-.67-.94-1.14-1.6-.94-.7.22-1.1.88-.94,1.6h0Z"/>
    <path class="cls-21" d="m325.4,925.11c.48,2.14.96,4.29,1.45,6.43.15.67.94,1.14,1.6.94.7-.22,1.1-.88.94-1.6-.48-2.14-.96-4.29-1.45-6.43-.15-.67-.94-1.14-1.6-.94-.7.22-1.1.88-.94,1.6h0Z"/>
    <path class="cls-21" d="m214.69,905.47l2.8,5.19c.33.6,1.21.85,1.79.48s.83-1.14.48-1.79l-2.8-5.19c-.33-.6-1.21-.85-1.79-.48s-.83,1.14-.48,1.79h0Z"/>
    <path class="cls-21" d="m274.96,938.49l.13,3.95c.02.69.58,1.35,1.3,1.32.69-.03,1.34-.57,1.32-1.3l-.13-3.95c-.02-.69-.58-1.35-1.3-1.32-.69.03-1.34.57-1.32,1.3h0Z"/>
    <path class="cls-21" d="m292.18,940.57c-.31,3.97-.63,7.94-.94,11.9-.06.71.63,1.31,1.3,1.32.75,0,1.26-.6,1.32-1.3.31-3.97.63-7.94.94-11.9.06-.71-.63-1.31-1.3-1.32-.75,0-1.26.6-1.32,1.3h0Z"/>
    <path class="cls-21" d="m309.38,839.11c-.31,3.97-.63,7.94-.94,11.9-.06.71.63,1.31,1.3,1.32.75,0,1.26-.6,1.32-1.3.31-3.97.63-7.94.94-11.9.06-.71-.63-1.31-1.3-1.32-.75,0-1.26.6-1.32,1.3h0Z"/>
    <path class="cls-21" d="m309.91,953.87c.95,2.17,1.9,4.34,2.85,6.51.28.63,1.24.83,1.79.48.65-.42.78-1.12.48-1.79-.95-2.17-1.9-4.34-2.85-6.51-.28-.63-1.24-.83-1.79-.48-.65.42-.78,1.12-.48,1.79h0Z"/>
    <path class="cls-21" d="m200.16,945.66l-1.32,6.98c-.13.67.2,1.44.93,1.61.65.14,1.47-.21,1.61-.93l1.32-6.98c.13-.67-.2-1.44-.93-1.61-.65-.14-1.47.21-1.61.93h0Z"/>
    <path class="cls-21" d="m220.3,968.64l2.85,6.51c.28.63,1.24.83,1.79.48.65-.42.78-1.12.48-1.79l-2.85-6.51c-.28-.63-1.24-.83-1.79-.48-.65.42-.78,1.12-.48,1.79h0Z"/>
    <path class="cls-21" d="m324.07,946.49c1.46,4.35,2.92,8.7,4.38,13.05.22.67.88,1.13,1.6.94.65-.17,1.16-.92.94-1.6-1.46-4.35-2.92-8.7-4.38-13.05-.22-.67-.88-1.13-1.6-.94-.65.17-1.16.92-.94,1.6h0Z"/>
    <path class="cls-21" d="m290.81,979.22l1.74,13.14c.09.7.97,1.1,1.6.94.76-.2,1.03-.89.94-1.6l-1.74-13.14c-.09-.7-.97-1.1-1.6-.94-.76.2-1.03.89-.94,1.6h0Z"/>
    <path class="cls-21" d="m312.03,982.5c.54,3.06,1.08,6.12,1.61,9.18.12.7.95,1.11,1.6.94.73-.19,1.06-.9.94-1.6-.54-3.06-1.08-6.12-1.61-9.18-.12-.7-.95-1.11-1.6-.94-.73.19-1.06.9-.94,1.6h0Z"/>
    <path class="cls-21" d="m332.02,984.82l1.4,2.59c.16.29.48.53.8.61s.72.04.99-.13.53-.45.61-.8.04-.68-.13-.99l-1.4-2.59c-.16-.29-.48-.53-.8-.61s-.72-.04-.99.13-.53.45-.61.8-.04.68.13.99h0Z"/>
    <path class="cls-21" d="m305.81,911.84c1.38,2.61,2.76,5.21,4.13,7.82.32.61,1.21.85,1.79.48.62-.39.82-1.14.48-1.79-1.38-2.61-2.76-5.21-4.13-7.82-.32-.61-1.21-.85-1.79-.48-.62.39-.82,1.14-.48,1.79h0Z"/>
    <path class="cls-21" d="m320.89,888.54l1.53,6.55c.16.67.93,1.14,1.6.94s1.11-.88.94-1.6l-1.53-6.55c-.16-.67-.93-1.14-1.6-.94s-1.11.88-.94,1.6h0Z"/>
    <path class="cls-21" d="m322.86,863.74l1.4,2.59c.16.29.48.53.8.61s.72.04.99-.13.53-.45.61-.8.04-.68-.13-.99l-1.4-2.59c-.16-.29-.48-.53-.8-.61s-.72-.04-.99.13-.53.45-.61.8-.04.68.13.99h0Z"/>
    <path class="cls-21" d="m264.77,908.47c.07,2.2.14,4.39.21,6.59.02.69.58,1.35,1.3,1.32.69-.03,1.34-.57,1.32-1.3-.07-2.2-.14-4.39-.21-6.59-.02-.69-.58-1.35-1.3-1.32-.69.03-1.34.57-1.32,1.3h0Z"/>
    <path class="cls-21" d="m196.92,886.25l1.4,2.59c.16.29.48.53.8.61s.72.04.99-.13.53-.45.61-.8.04-.68-.13-.99l-1.4-2.59c-.16-.29-.48-.53-.8-.61s-.72-.04-.99.13-.53.45-.61.8-.04.68.13.99h0Z"/>
    <path class="cls-11" d="m270.05,881.36c-1.7,9.63,3.45,20.07,12.12,24.6,8.67,4.52,20.18,2.76,27.1-4.14,6.93-6.9,8.72-18.41,4.22-27.09-1.84,9.15-10.63,16.04-19.92,16.86-9.29.82-18.59-3.82-23.52-10.23Z"/>
    <path class="cls-11" d="m179.53,871.71c1.37,6.18,4.25,12.36,9.48,15.93,5.23,3.57,13.15,3.61,17.33-1.14,4.27-4.87,3.24-12.27,1.96-18.62-2.06,5.9-7.87,10.29-14.1,10.66s-12.52-3.3-14.66-6.83Z"/>
    <path class="cls-11" d="m191.86,281.25c-2.45,5.08-1.79,11.15,2.47,15.08s10.57,4.74,16.16,3.61c3.98-.81,9.98-3.3,9.81-8.25-.15-4.1-5.19-5.73-8.52-6.18-3.75-.51-10.23-.16-11.28,4.49-.37,1.64,2.16,2.33,2.53.68.61-2.71,4.96-2.82,7.12-2.7s6.56.81,7.42,3.24c1.14,3.25-4.33,5.33-6.54,5.91-4.4,1.16-9.43,1.01-13.35-1.5-4.47-2.87-5.81-8.35-3.53-13.07.73-1.51-1.54-2.82-2.28-1.3h0Z"/>
    <path class="cls-17" d="m285.02,151.28c10.17-7.26,20.33-14.52,30.5-21.78,1.15-.82,1.72-2.27.96-3.58-.66-1.14-2.42-1.79-3.58-.96-10.17,7.26-20.33,14.52-30.5,21.78-1.15.82-1.72,2.27-.96,3.58.66,1.14,2.42,1.79,3.58.96h0Z"/>
    <path class="cls-17" d="m256.76,147.26c-10.13-8.21-20.26-16.42-30.39-24.63-1.1-.89-2.64-1.05-3.71.03-.92.93-1.08,2.81.03,3.71,10.13,8.21,20.26,16.42,30.39,24.63,1.1.89,2.64,1.05,3.71-.03.92-.93,1.08-2.81-.03-3.71h0Z"/>
    <path class="cls-6" d="m262.76,707.96c-.19,6.92-.38,13.83-.57,20.75-.02.67.61,1.36,1.3,1.32,5.34-.35,10.68-.7,16.01-1.05,1.68-.11,1.7-2.73.01-2.62-5.34.35-10.68.7-16.01,1.05l1.3,1.32c.19-6.92.38-13.83.57-20.75.05-1.69-2.58-1.7-2.62-.01h0Z"/>
    <path class="cls-6" d="m297.32,704.74c-7.76.7-12.64,9.29-10.97,16.56.84,3.66,3.5,6.6,7.06,7.8s7.6.52,10.85-1.24c3.74-2.02,6.49-5.65,6.69-9.97.03-.66-.62-1.38-1.3-1.32-4,.38-8,.75-12,1.13-1.67.16-1.69,2.78-.01,2.62,4-.38,8-.75,12-1.13l-1.3-1.32c-.29,6.05-7.31,10.12-12.91,9.03-2.86-.55-5.3-2.46-6.25-5.26s-.57-6,.74-8.64c1.44-2.9,4.05-5.35,7.39-5.65,1.67-.15,1.69-2.77.01-2.62h0Z"/>
    <path class="cls-6" d="m249.43,708.76c-4.57-2.86-8.48,4.47-5.94,8.07,1.63,2.32,4.94,2.65,7.43,1.74,3.05-1.12,5.2-3.51,6.4-6.48,1.39-3.44,1.52-7.18,2.56-10.71.81-2.76,2.48-5.95,5.41-6.88,3.36-1.07,6.61,1.39,9.28,3.08,2.47,1.57,4.95,2.77,7.95,2.7,2.63-.06,5.51-1.12,6.48-3.78,1.2-3.31-2.89-5.8-5.67-4.11-1.44.88-.13,3.15,1.31,2.27.4-.25.81-.3,1.26-.12.23.09.44.25.6.43.11.12.2.39.17.09.1.79-.78,1.59-1.37,1.93-1.66.94-3.88.79-5.65.27-2.44-.72-4.5-2.54-6.69-3.78s-4.84-2.23-7.5-1.74c-4.92.89-7.49,6.03-8.48,10.45-1.11,4.94-1.28,12.22-7.17,13.98-1.89.57-4.69.06-4.52-2.41.09-1.32,1.25-3.75,2.86-2.74,1.43.9,2.73-1.38,1.3-2.28h0Z"/>
    <path class="cls-20" d="m340.29,132.52c12.96-3.5,28.77-8.45,32.44-23.17,1.42-5.7.71-12.2-3.4-16.65-5.16-5.6-13.23-5.12-19.69-8.15-3.01-1.41-6.77-4.12-6.52-7.89.18-2.71,3-6.62,6.07-5.09,1.5.75,2.81-1.52,1.3-2.28-6.02-3-11.59,4.87-9.51,10.32,2.69,7.06,10.89,8.55,17.32,10.24,3.57.94,7.18,2.24,9.6,5.17,1.85,2.24,2.75,5.17,2.87,8.05.3,6.59-2.81,12.69-7.79,16.88-6.57,5.53-15.24,7.83-23.35,10.03-1.63.44-.97,2.98.66,2.54h0Z"/>
  </g>
</svg>