<?xml version="1.0" encoding="UTF-8"?>
<svg id="Layer_2" data-name="Layer 2" xmlns="http://www.w3.org/2000/svg" viewBox="0 0 1198 442">
  <defs>
    <style>
      .cls-1 {
        fill: #f58505;
      }

      .cls-2 {
        fill: #fff700;
      }

      .cls-3 {
        fill: #fb0;
      }

      .cls-4 {
        fill: #f03;
      }

      .cls-5 {
        fill: #ff6a00;
      }

      .cls-6 {
        fill: #19f00a;
      }

      .cls-7 {
        fill: #add9ff;
        stroke: #19f00a;
        stroke-miterlimit: 10;
      }
    </style>
  </defs>
  <path class="cls-3" d="m54.01,238.65c255.28,163.42,580.52,223.13,872.96,143.42,32.67-8.9,157.05-42.17,157.05-42.17,0,0,78.78-36.82,59.67-172.58-155.43-83.77-423.28-123.56-599.28-109.44S196.9,138,54.01,238.65Z"/>
  <path class="cls-2" d="m53.74,231.64c255.06,157.11,570.91,195.79,863.43,118.64,32.68-8.62,166.45-55.13,166.45-55.13,0,0,68.42-53.32,26.52-146.19C954.82,68.46,717.06,13.08,541.05,26.9,365.04,40.72,180.99,127.75,53.74,231.64Z"/>
  <path class="cls-6" d="m55.68,231.7c59.24-12.94,119.66-20.32,180-25.8,65.21-5.92,130.65-9.32,196.09-11.37,63.52-1.98,127.36-3.82,190.88-1.29,77.39,3.08,154.37,12.53,230.96,23.76,76.76,11.25,153.25,24.33,230.12,34.87,9.5,1.3,19.01,2.56,28.53,3.78,1.04.13,3.87-2.17,4.79-2.7s3.68-2.93,4.74-2.8c-76.88-9.84-153.32-22.74-229.95-34.36-76.61-11.62-153.52-22.01-230.91-26.61-65.26-3.88-130.74-2.52-196.06-.82-65.18,1.7-130.35,4.68-195.34,9.95s-123.4,11.81-184.15,23.71c-6.74,1.32-13.47,2.72-20.18,4.18-3.44.75-6.14,4.76-9.53,5.5h0Z"/>
  <path class="cls-7" d="m456.28,36.21h1.18c22.24,7.49,40.56,32.02,38.97,56.96s-22.84,46.48-45.8,46.42c18.11,1.38,33.54,20.26,32.71,40s-17.79,36.99-35.94,36.56c18.31,5.86,31.11,27.49,28.46,48.06-2.65,20.57-20.44,37.52-39.52,37.67,33.08,4.54,56.9,46.68,65.44,82.61,17.59-26.61,5.48-69.95-22.75-81.38,16.21-6.22,27.98-24.18,28.11-42.89s-11.39-36.86-27.51-43.35c15.82-2.86,29.18-17.68,31.5-34.95s-6.57-35.64-20.97-43.32c21.22-8.54,33.75-36.82,26.69-60.22s-32.57-38.06-60.58-42.18Z"/>
  <path class="cls-7" d="m521.07,31.84h1.33c25.1,7.68,45.79,32.81,44,58.36s-25.78,47.63-51.71,47.57c20.44,1.42,37.87,20.76,36.92,40.99-.94,20.23-20.09,37.91-40.58,37.46,20.67,6.01,35.13,28.17,32.13,49.25-3,21.08-23.07,38.45-44.61,38.6,37.34,4.65,64.23,47.83,73.88,84.65,19.86-27.26,6.18-71.68-25.68-83.39,18.3-6.38,31.58-24.78,31.73-43.95.15-19.17-12.86-37.77-31.05-44.42,17.86-2.93,32.94-18.11,35.56-35.81,2.62-17.7-7.41-36.52-23.67-44.39,23.96-8.75,38.11-37.73,30.13-61.71-7.98-23.98-36.77-39-68.39-43.22Z"/>
  <path class="cls-7" d="m695.09,30.29h1.26c23.76,7.53,43.33,32.16,41.64,57.21-1.69,25.05-24.4,46.69-48.94,46.63,19.35,1.39,35.84,20.35,34.94,40.18-.89,19.83-19.01,37.16-38.4,36.72,19.56,5.89,33.24,27.61,30.41,48.27-2.83,20.66-21.83,37.69-42.22,37.84,35.34,4.56,60.79,46.89,69.92,82.98,18.79-26.72,5.85-70.26-24.3-81.74,17.32-6.25,29.89-24.29,30.03-43.08.14-18.79-12.17-37.02-29.39-43.54,16.9-2.87,31.17-17.76,33.65-35.1,2.48-17.35-7.02-35.8-22.4-43.51,22.68-8.58,36.06-36.98,28.51-60.49-7.55-23.5-34.8-38.23-64.72-42.37Z"/>
  <path class="cls-7" d="m781.59,40.58h1.17c21.93,7.27,39.99,31.07,38.43,55.27-1.56,24.2-22.52,45.11-45.16,45.05,17.86,1.34,33.07,19.66,32.25,38.82-.82,19.16-17.54,35.9-35.44,35.48,18.05,5.69,30.68,26.68,28.06,46.64s-20.15,36.42-38.97,36.56c32.62,4.41,56.1,45.3,64.53,80.17,17.34-25.82,5.4-67.89-22.43-78.98,15.98-6.04,27.59-23.47,27.71-41.62.13-18.16-11.23-35.77-27.12-42.07,15.6-2.77,28.77-17.15,31.06-33.91s-6.47-34.59-20.67-42.04c20.93-8.29,33.28-35.73,26.31-58.44-6.97-22.71-32.11-36.94-59.73-40.94Z"/>
  <path class="cls-1" d="m341.22,119.17c-1.83-3.57-5.16-6.15-9.1-6.92-33.31-6.46-78.44-2.55-87.95,32.7-2.05,7.59-.8,19.39.65,27.16,2.44,13.05,17.27,19.2,30.13,19.79s26.38-1.95,38.21,3.26c16.1,7.1,23.95,27.92,19.74,45.52-4.22,17.6-18.42,31.45-34.67,38.33-16.25,6.88-34.34,7.58-51.8,5.95-10.87-1.02-22.16-2.85-32.47.9-10.32,3.75-18.94,15.55-15.09,26.09,3.2,8.77,13.04,12.58,21.91,14.57,50.79,11.42,106.74-4.64,144.72-41.54,21.02-20.42,37.19-51.17,28.14-79.35-7.4-23.03-30.11-37.85-53.23-42.22-23.12-4.36-49.56,18.82-66.1,2.06-13.26-13.43,17.49-30.87,35.74-30.08,6.31.27,12.54,2.14,18.84,1.62,6.3-.51,13.09-4.43,14.07-10.88.38-2.51-.71-4.97-1.73-6.98Z"/>
  <path class="cls-5" d="m385.13,94.16c-.95,9.47-1.04,25.07-1.83,35.66-.24,3.23,2.73,5.77,5.88,5.02,20.47-4.86,35.33-4.38,55.78-9.23,3.24-.77,6.26,1.94,5.86,5.25-7.55,62.02-15.17,115.74-22.72,177.98-.33,2.68,1.62,5.12,4.31,5.36,12.92,1.15,39.63-.13,52.01-.83,3.24-.18,5.36-3.45,4.22-6.48-4.35-11.53-13.14-36.27-12.28-45.77,4.54-50.31,8.29-83.2,12.78-132.34.26-2.8,2.86-4.78,5.63-4.29,23.02,4.08,36.59,6.59,54.55,14.03,2.73,1.13,5.8-.41,6.52-3.26,2.25-8.91,10.19-23.07,14.91-31,1.67-2.81.1-6.44-3.1-7.13-5.03-1.09-11.8-2.9-16.26-5.49-3.09-1.79-20.81-2.89-24.37-2.95-39.25-.63-10.12,2.22-55.23.27-8.41-.37-37.31,2.05-53.67,1.34-6.99-.3-20.95-1-28.6-.41-2.32.18-4.18,1.98-4.41,4.28Z"/>
  <path class="cls-5" d="m852.08,300.39c-18.26-34.27-43.58-67.61-73.13-91.95-3.98-3.28-2.45-9.76,2.61-10.77,8.95-1.78,12.39-6.84,21.24-14.65,12.81-11.3,15.44-32.75,14.47-50.07-1.09-19.43-16.93-39.67-33.69-48.5-15.08-7.95-42.58-6.92-61.55-8.41-3.36-.26-6.3,2.21-6.63,5.56-7.64,77.96,8.98,155.72,1.97,233.68-.36,3.97,3.07,7.2,7.03,6.66,6.96-.94,16.17-.35,23.12.34,3.96.39,7.24-2.99,6.72-6.93-2.84-21.41-9.68-56.83-9.62-80.66.01-5.98,7.72-8.47,11.18-3.59,15.12,21.31,27.75,57.01,39.19,78.01,1.43,2.62,4.56,3.83,7.38,2.85,13.8-4.79,28.82-5.67,43.04-2.63,5.12,1.09,9.13-4.33,6.68-8.94Zm-87.83-125.05c-6.59,2.74-14.04,3.58-19.96,7.57-.11-23.89.58-36.79-1.92-60.55.67,3.63.72-12.11-1.46-12.31,11.7-5.21,18.76-5.39,30.96,2.46,10.77,6.93,16.06,20.93,14.52,33.63-1.54,12.7-10.32,24.27-22.14,29.19Z"/>
  <path class="cls-5" d="m702.73,302.54c-44.61-58.77-44.32-154.09-38.99-229.58.13-1.82-12.33-.03-14.16,0-10.65.17-14.13,3.03-24.07,3.05-1.42,0-15.66-1.38-16.02,0-19.19,74.62-45.97,160.58-79.77,229.51-.82,1.68,0,3.7,1.78,4.3,9.56,3.24,31.45,8.08,42.28,8.08,1.39,0,2.61-.94,2.98-2.28,10.45-37.95,9.13-64.82,28.44-99.12.41-.72,1.1-1.25,1.9-1.48,33.94-9.88,26.59,62.3,23.01,98.35-.2,2.04,1.61,3.71,3.63,3.36,24.25-4.18,43.04-13.15,65.95-9.27,2.79.47,4.74-2.67,3.03-4.92Zm-72.92-119.52c-7.26-2.05-14.92-2.68-22.41-1.85-5.1-6.73-2-14.55,1.03-21.68,7.17-16.82,14.34-33.65,21.51-50.47-.05,24.67-.09,49.34-.14,74.01Z"/>
  <path class="cls-5" d="m892.56,321.67c-4.02.3-7.32-3.1-6.92-7.1,5.79-58.14,5.02-109.75,11.48-168.56.61-5.55.49-13.96.28-20.06-.13-3.85-3.59-6.76-7.4-6.18s-8.82,1-14.72.67c-14.4-.81-32.52-.12-48.84,3.89-3.44.84-6.96-1.13-7.88-4.54-2.56-9.52-.76-23,.58-30.35.56-3.07,3.23-5.3,6.36-5.31,13.03-.03,46.53.07,57.68,1.9,35.79,5.89,72.85,3.6,107.78-6.68,10.56-3.11,21.22-6.97,32.17-6.32,7.47.45,20.09,2.5,27.35,3.76,3.2.56,5.49,3.39,5.36,6.62l-1.13,29.51c-.13,3.41-2.88,6.13-6.3,6.22-15.23.4-54.66,1.25-65.84-.42-10.41-1.55-30.95-.12-40.7.71-3.13.27-5.61,2.72-5.91,5.84-.95,10.07-2.82,31.91-2.5,43.88.74,27.47,3.49,66.92,4.23,94.39.35,13.07,3.63,38.52,5.38,51.34.55,4.02-2.69,7.55-6.75,7.34-11.31-.58-32.13-1.42-43.76-.55Z"/>
  <path class="cls-4" d="m363.13,122.54c-2-3.79-5.62-6.53-9.9-7.36-36.13-7-85.03-3.08-95.16,34.17-2.18,8.02-.76,20.51.85,28.74,2.71,13.82,18.81,20.39,32.76,21.08,13.94.69,28.59-1.93,41.43,3.64,17.49,7.59,26.1,29.66,21.62,48.26-4.48,18.6-19.8,33.19-37.38,40.38-17.58,7.2-37.18,7.86-56.11,6.05-11.79-1.13-24.03-3.12-35.19.8-11.16,3.92-20.45,16.36-16.22,27.53,3.52,9.29,14.2,13.37,23.82,15.53,55.11,12.34,115.67-4.38,156.65-43.25,22.67-21.5,40.05-53.96,30.09-83.82-8.14-24.41-32.83-40.2-57.91-44.93s-53.62,19.67-71.64,1.86c-14.44-14.27,18.8-32.58,38.58-31.65,6.84.32,13.61,2.32,20.43,1.81,6.82-.51,14.17-4.62,15.2-11.44.4-2.65-.79-5.27-1.91-7.39Z"/>
  <path class="cls-4" d="m397.97,95.44c-.96,10.02-1.05,26.51-1.85,37.71-.24,3.41,2.76,6.1,5.94,5.31,20.68-5.14,35.71-4.63,56.37-9.76,3.28-.81,6.33,2.05,5.92,5.55-7.63,65.6-15.33,122.42-22.96,188.25-.33,2.83,1.64,5.42,4.36,5.67,13.06,1.22,40.05-.14,52.56-.88,3.27-.19,5.42-3.64,4.26-6.85-4.4-12.19-13.28-38.36-12.41-48.41,4.59-53.22,8.38-88,12.91-139.98.26-2.96,2.89-5.06,5.69-4.54,23.26,4.32,36.97,6.97,55.13,14.84,2.75,1.19,5.86-.43,6.59-3.45,2.28-9.43,10.3-24.4,15.06-32.79,1.69-2.97.1-6.81-3.14-7.54-5.09-1.15-11.92-3.07-16.43-5.8-3.13-1.9-21.03-3.06-24.62-3.12-39.67-.67-10.23,2.35-55.81.28-8.5-.39-37.7,2.17-54.23,1.41-7.06-.32-21.17-1.06-28.9-.43-2.34.19-4.22,2.09-4.46,4.53Z"/>
  <path class="cls-4" d="m869.86,313.58c-18.45-36.25-44.04-71.51-73.91-97.25-4.03-3.47-2.48-10.33,2.64-11.4,9.05-1.89,12.52-7.24,21.47-15.5,12.94-11.95,15.61-34.64,14.62-52.96-1.11-20.55-17.11-41.96-34.05-51.3-15.24-8.41-43.03-7.32-62.21-8.9-3.4-.28-6.37,2.34-6.7,5.88-7.72,82.46,9.07,164.71,1.99,247.16-.36,4.2,3.1,7.61,7.1,7.05,7.03-.99,16.34-.37,23.37.36,4,.42,7.32-3.17,6.79-7.33-2.87-22.64-9.78-60.11-9.72-85.31.01-6.33,7.8-8.95,11.3-3.79,15.28,22.54,28.04,60.3,39.6,82.51,1.44,2.77,4.61,4.05,7.46,3.01,13.94-5.06,29.13-5.99,43.5-2.78,5.17,1.16,9.23-4.58,6.75-9.46Zm-88.76-132.26c-6.66,2.9-14.19,3.79-20.17,8.01-.11-25.27.59-38.91-1.94-64.04.67,3.84.73-12.81-1.48-13.02,11.83-5.51,18.96-5.7,31.29,2.61,10.89,7.33,16.23,22.14,14.68,35.57-1.56,13.43-10.43,25.67-22.38,30.88Z"/>
  <path class="cls-4" d="m718.93,315.85c-45.08-62.16-44.79-162.98-39.4-242.83.13-1.93-12.46-.03-14.31,0-10.77.18-14.28,3.2-24.32,3.23-1.44,0-15.83-1.46-16.19,0-19.39,78.93-46.46,169.85-80.61,242.76-.83,1.78,0,3.91,1.8,4.54,9.66,3.43,31.78,8.55,42.72,8.54,1.41,0,2.64-.99,3.01-2.41,10.56-40.14,9.23-68.56,28.74-104.84.41-.76,1.11-1.32,1.92-1.56,34.3-10.45,26.87,65.9,23.26,104.02-.2,2.16,1.62,3.93,3.67,3.56,24.51-4.42,43.49-13.91,66.65-9.8,2.82.5,4.79-2.82,3.06-5.2Zm-73.7-126.42c-7.34-2.17-15.07-2.84-22.65-1.96-5.15-7.12-2.02-15.39,1.05-22.93,7.25-17.8,14.5-35.59,21.74-53.39-.05,26.09-.09,52.19-.14,78.28Z"/>
  <path class="cls-4" d="m910.77,336.09c-4.06.32-7.4-3.28-7-7.51,5.85-61.49,5.07-116.08,11.6-178.29.62-5.87.49-14.76.28-21.22-.13-4.07-3.62-7.15-7.48-6.54-3.79.6-8.91,1.06-14.88.71-14.55-.85-32.87-.12-49.35,4.11-3.47.89-7.03-1.19-7.96-4.8-2.58-10.07-.77-24.33.58-32.1.56-3.25,3.26-5.61,6.42-5.62,13.17-.04,47.02.07,58.3,2.01,36.17,6.23,73.63,3.81,108.92-7.06,10.67-3.28,21.45-7.37,32.51-6.68,7.55.47,20.31,2.65,27.64,3.98,3.23.59,5.55,3.58,5.42,7.01l-1.14,31.22c-.13,3.61-2.92,6.49-6.37,6.58-15.39.42-55.24,1.32-66.53-.45-10.52-1.64-31.28-.12-41.13.75-3.16.28-5.67,2.88-5.97,6.18-.96,10.65-2.85,33.75-2.52,46.41.75,29.05,3.52,70.78,4.27,99.83.36,13.82,3.67,40.74,5.44,54.3.55,4.25-2.72,7.98-6.82,7.76-11.43-.61-32.47-1.5-44.22-.58Z"/>
  <path d="m1053.26,120.97c3.21,0,6.39-5.5,9.53-5.5-3.21,0-6.39,5.5-9.53,5.5h0Z"/>
</svg>