<?xml version="1.0" encoding="UTF-8"?>
<svg id="Layer_1" data-name="Layer 1" xmlns="http://www.w3.org/2000/svg" viewBox="0 0 760.28 1080">
  <defs>
    <style>
      .cls-1 {
        fill: #f7a128;
      }

      .cls-2 {
        fill: #f7cbc3;
      }

      .cls-3 {
        fill: #ed64a1;
      }

      .cls-4 {
        fill: #ed9197;
      }

      .cls-5 {
        fill: #f72c1e;
      }

      .cls-6 {
        fill: #ff3c2e;
      }

      .cls-7 {
        fill: #e63427;
      }

      .cls-8 {
        fill: #eb2617;
      }

      .cls-9 {
        fill: #ff2e12;
      }

      .cls-10 {
        fill: #82452e;
      }

      .cls-11 {
        fill: #8c0500;
      }

      .cls-12 {
        fill: #8c1700;
      }

      .cls-13 {
        fill: #8c0005;
      }

      .cls-14 {
        fill: #b8170b;
      }

      .cls-15 {
        fill: #c4352b;
      }

      .cls-16 {
        fill: #8f522f;
      }

      .cls-17 {
        fill: #8f4f29;
      }

      .cls-18 {
        fill: #cf3e34;
      }

      .cls-19 {
        fill: #a66946;
      }

      .cls-20 {
        fill: #c92216;
      }

      .cls-21 {
        fill: #d61c22;
      }

      .cls-22 {
        fill: #d92818;
      }

      .cls-23 {
        fill: #e3492d;
      }

      .cls-24 {
        fill: #40badb;
      }

      .cls-25 {
        fill: #6e4025;
      }

      .cls-26 {
        fill: #9c5e56;
      }

      .cls-27 {
        stroke: #663426;
        stroke-width: 5.01px;
      }

      .cls-27, .cls-28, .cls-29, .cls-30, .cls-31 {
        stroke-miterlimit: 10;
      }

      .cls-27, .cls-30, .cls-31 {
        fill: none;
      }

      .cls-28 {
        fill: #121111;
      }

      .cls-28, .cls-29 {
        stroke: #000;
      }

      .cls-28, .cls-29, .cls-30, .cls-31 {
        stroke-width: 1px;
      }

      .cls-30 {
        stroke: #663c20;
      }

      .cls-31 {
        stroke: #c77946;
      }
    </style>
  </defs>
  <path class="cls-18" d="m361.9,57.14c-30.72-20.23-61.19-3.57-83.59,16.79-22.39,20.36-35.5,48.73-48.03,76.28-9.74,21.41-19.69,44.98-13.77,67.74,3.97,15.24,14.79,28.46,16.21,44.15,1.57,17.31-8.7,33.83-8.38,51.21.35,18.62,12.55,34.62,19.12,52.05,14.08,37.36-1.01,83.55-34.45,105.38-8.53,5.57-19.47,12.25-18.22,22.37.71,5.78,5.75,10.36,11.36,11.91s11.63.54,17.14-1.32c40.35-13.62,54.99-66.28,93.31-84.88,33.81-16.41,77.04-1.81,109.95-19.97,12.49-6.89,22.17-17.89,33.86-26.08,22.79-15.96,54.9-23.15,65.75-48.76,10.92-25.78-6.63-54.44-7.09-82.43-.31-19,7.3-38.55,1.26-56.57-5.52-16.47-21.14-27.39-29.62-42.55-9.53-17.04-9.37-38.11-18.41-55.41-11.83-22.64-40.1-35.29-64.87-29.03-8.33,2.11-16.16,6.08-24.62,7.59-8.46,1.51-9.81-3.8-16.91-8.48Z"/>
  <path class="cls-23" d="m420.42,104.63c-10.24,10.56,27.84,11.96,35.98,15.68,5.18,2.37,14.3,9.59,19.06,12.12,3.44,1.83,9.3,4.77,12.75,7.94.45.41,1.17-.14.83-.63-2.11-3.05-6.31-6.09-8.14-8.57-12.55-16.94-46.79-40.65-60.48-26.54Z"/>
  <path class="cls-8" d="m232.11,207.59c17.37-5.8,16.24-26.79,21.9-37.13,6.81-12.42,31.56-32.32,47.55-41.04-13.29,1.38-24.99,8.87-36.04,16.13-5.85,3.84-11.8,7.77-16.16,13.06-4.16,5.05-6.66,11.07-8.83,17.06-3.88,10.69-6.92,21.63-8.41,31.92Z"/>
  <path class="cls-9" d="m514.89,199.4c-5.56,1.63-11.73-.88-15.89-4.74s-6.78-8.88-9.67-13.65c-7.5-12.37-17.26-23.53-28.73-32.86-6.27-5.1-14.09-9.91-22.25-8.59,4.27,5.71,11.47,8.69,17.49,12.8,8.09,5.54,14.2,13.36,18.48,21.84,3.81,7.57,6.33,15.85,11.78,22.49,5.44,6.65,15.15,11.33,23.35,8.07,4.04-1.61,7.08-4.89,5.45-5.37Z"/>
  <path class="cls-20" d="m336.9,326.61c.91,5.42-2.63,10.81-7.28,14.12-4.65,3.32-10.31,5.04-15.74,7.05-14.08,5.21-27.22,12.7-38.68,22.05-6.27,5.11-12.45,11.7-12.24,19.5,6.62-3.16,10.79-9.44,15.98-14.45,6.99-6.75,16.09-11.32,25.62-14.08,8.51-2.47,17.57-3.62,25.34-7.74s14.1-12.48,11.86-20.59c-1.1-4-4.11-7.3-4.86-5.85Z"/>
  <path class="cls-22" d="m425.28,306.11c7.33,2.47,22.86,4.39,23.29,10.11.43,5.73-8.43,19.97-8.31,25.7.24,11.22-8.21-8.22,2.6,0,10.82,8.22,15.95,11.34,29.92,16.68-28.37-10.94-42.42,1.16-42.9-21.65-.12-5.88,15.49-17.82,10.68-22.61-3.73-3.72-10.05-5.6-15.29-8.23Z"/>
  <path class="cls-7" d="m448.8,232.14c5.76.61,10.28,5.28,12.39,10.4,2.11,5.12,2.32,10.74,2.88,16.21,1.47,14.21,5.51,28.19,11.9,41.12,3.5,7.07,8.52,14.46,16.51,16.35-1.41-6.87-6.67-12.35-10.36-18.41-4.96-8.17-7.14-17.67-7.35-27.1-.19-8.41,1.1-16.97-.97-25.14-2.07-8.18-8.87-16.17-17.73-16.3-4.37-.06-8.55,1.8-7.28,2.86Z"/>
  <path class="cls-21" d="m243.44,277.1c-3.62-4.3-3.34-10.63-1.01-15.67,2.33-5.04,6.37-9.15,10.05-13.4,9.56-11.03,17.12-23.63,22.24-37.06,2.8-7.35,4.75-15.94.52-22.64-4.13,5.8-4.49,13.21-6.4,19.97-2.58,9.1-8.13,17.28-15,24.09-6.13,6.07-13.43,11.26-18.06,18.43-4.63,7.17-5.79,17.38.39,23.42,3.05,2.98,7.39,4.46,7.28,2.86Z"/>
  <path class="cls-6" d="m308.43,276.87c-13.38,8.4-7.19,26.25-9.45,36.27-2.72,12.03-18.88,34.02-30.36,44.66,10.99-3.79,19.11-12.54,26.74-20.96,4.04-4.46,8.13-9.01,10.54-14.42,2.29-5.16,2.93-10.84,3.29-16.43.65-9.97.52-19.98-.76-29.13Z"/>
  <path class="cls-16" d="m340.72,812.96c1.4.49,2.57,1.48,3.13,2.95,1.37-.48,2.87-.33,4.21.28,1.96-1.55,4.4-2.4,7.54-1.94,1.1.16,2.01.76,2.73,1.55,1.08-1.45,2.5-2.51,4.61-3.22,1.79-.6,3.55-.09,4.97.89,1.13-7.88,2.33-15.75,3.65-23.6,1.34-7.94,2.26-15.93,3.61-23.87,1.28-7.57,3.93-15.2,4.63-22.82.07-.72.24-1.37.51-1.95-.61-6.75-.28-13.57-.72-20.35-.63-9.56-1.83-19.35,1.92-28.5.08-.2.19-.38.29-.57-.29-.42-.56-.86-.79-1.34-1.95-4.07-1.2-9.09-1.2-13.46,0-5.81,8.16-7.68,11.29-2.9,2.48,3.8,5.67,5.78,7.04,10.29.24.77.45,1.55.65,2.33,1.54-.02,3.1.48,4.29,1.59,3.22-.21,6.66,1.82,6.66,5.58,0,2.83-.17,5.64-.39,8.44,1.13,3.21,2.21,6.47,3.15,9.76,3.34,9.19,6.53,18.43,9.26,27.8.77.88,1.29,1.98,1.34,3.28.02.58.05,1.15.07,1.73,4.24,16.32,5.37,33.22,11.39,49.16,1.91,5.04-3.68,7.99-7.91,6.63.38,4.05.8,8.11,1.25,12.15.7-1.79,1.54-3.53,2.65-5.14,1.54-2.23,4.06-3.19,6.82-2.63,3.03.61,4.82,2.53,5.91,4.95,2.93-3.56,10.7-1.34,10.83,3.91.12,4.68,1.21,9.17,1.74,13.79.03-.07.05-.15.08-.22.5-5.17,1.37-10.32,3.03-15.09.9-2.59,3.34-4.14,5.87-4.16.3-.3.62-.6.96-.87,1.96-1.58,4.64-2.04,6.81-1.14-.76-3.61-1.07-7.56-.59-12.17.04-.42.08-.85.12-1.28-.08-1.01-.15-2.02-.17-3.05-.02-.99.21-1.86.61-2.6,1.64-25.3.25-62.03,10.9-82.66,15.17-29.4,30.93-82.3,10.5-106.93-16.56-19.95-36.68-37.86-60.53-83.79-7.88-15.18-4.41-32.36-10.11-48.4-5.7-16.03-22.16-32.15-39.21-37.18-15.37-4.54-32.74,1.44-44,12.34-11.26,10.9-19.86,27.17-13.7,36.51,16.78,25.42,5.69,58.91-9.73,85.09-15.42,26.17-35.43,52.13-35.89,82.11-.48,30.97,20,58.14,37.36,84.38,16.79,25.37,31.77,56.06,22.56,84.35Z"/>
  <path class="cls-5" d="m506.54,254.39c.45-15.81-18.84-20.54-26.31-27.97-8.97-8.93-18.82-34.59-21.45-50.05-3.1,11.27-.17,22.89,2.76,33.91,1.55,5.83,3.15,11.77,6.49,16.78,3.19,4.77,7.8,8.44,12.49,11.84,8.37,6.06,17.24,11.5,26.02,15.5Z"/>
  <path class="cls-14" d="m298.97,249.1c-10.23-10.57-15.19,25.01-19.87,32.31-2.98,4.64-11.45,12.54-14.56,16.77-2.25,3.06-5.9,8.28-9.56,11.23-.47.38.04,1.11.59.83,3.42-1.7,7.02-5.36,9.8-6.85,19.06-10.22,47.27-40.16,33.6-54.29Z"/>
  <path class="cls-16" d="m340.08,317.33c-2.47,37.34-21.75,78.39-46.71,105.38,45.21-4.75,90.99-4.61,136.16.43,10.16,1.13,20.77,2.47,30.37-.88-2.21-1.05-4.41-2.09-5.89-5.57-35.14-23.4-57.32-63.39-57.75-104.12"/>
  <path class="cls-17" d="m337.15,322.53l3.96,20.55c4.71,7.71,13.2,12.99,22.96,14.26l9.63,1.26,10.69-7.07c3.76-2.49,6.92-5.63,9.28-9.24l8.5-20.02-65.02.24Z"/>
  <path class="cls-16" d="m272.27,208.31c2.3-146.22,178.93-185.34,197.27-.52.03.35-.03.71.04,1.05,34.41,155.7-220.31,168.68-197.31-.53Z"/>
  <path class="cls-19" d="m364.53,90.28c-13.48,8.2-24.42,19.68-33.8,31.99-10.52,13.8-19.15,33.59-23.91,45.46-4.74,11.82-12.31,32.39-11.99,49.29.4,21.19,5.71,56.57,16.1,72.29,8.16,12.34,37.68,36.28,37.68,36.28,0,0-24.51-4.87-31.42-9.36-36.29-23.56-53.65-48.46-57.34-86.29-2.83-29.07,15.83-77.7,28.84-96.13,13.77-19.52,48.7-43.07,75.84-43.52Z"/>
  <ellipse class="cls-28" cx="412.29" cy="191.43" rx="20.06" ry="16.45"/>
  <path class="cls-4" d="m324.47,255.79c13.86,11.83,42.07-18.4,74.56-.6,32.49,17.8-3.66-36.96-13.71-40.45-6.25-2.17-34.14-1.12-41.74,4.47-8.2,6.03-27.11,29.76-19.11,36.58Z"/>
  <path class="cls-27" d="m357.4,207.1c5.51,2.12,12.39-.25,15.94-4.37,3.55-4.12,4.32-9.52,3.87-14.59-.92-10.29-6.32-19.91-8.71-30.04-2.39-10.13-.87-22.15,8.95-28.36"/>
  <ellipse class="cls-29" cx="329.21" cy="191.43" rx="20.6" ry="16.97"/>
  <polyline class="cls-29" points="303.55 170.05 322.29 177.67 313.19 188.33"/>
  <polygon class="cls-29" points="421.86 180.72 437.92 172.59 429.89 192.9 421.86 180.72"/>
  <path class="cls-3" d="m311.27,215.57c-.63-3.07-6.59-7.81-9.85-8.33-3.49-.56-11.87-.01-13.84,2.78-1.7,2.42-1,9.25.8,11.61,2.19,2.87,10.24,6.24,13.84,5.3,3.62-.95,9.76-7.86,9.05-11.36Z"/>
  <path class="cls-3" d="m426.75,217.08c-1.07,2.41,2.41,8.07,4.77,9.43,2.87,1.66,10.19,1.85,13.4.92,3.15-.91,8.25-6.14,8.94-9.2.52-2.31-2.56-7.18-4.77-8.28-5.22-2.6-20.05,1.98-22.34,7.13Z"/>
  <ellipse class="cls-24" cx="331.54" cy="187.09" rx="6.5" ry="4.34"/>
  <ellipse class="cls-24" cx="410.7" cy="186.35" rx="5.96" ry="3.6"/>
  <path class="cls-16" d="m396.97,362.02c25.3,10.85,51.18,21.66,78.77,24.64,27.59,2.98,57.61-2.99,77.15-21.7,17.3-16.57,24.1-40.56,26.97-63.72,4.97-40,.16-81.07-13.48-119.18-.21,0-.42,0-.92-.49-5.11,2.55-11.69.74-15.98-2.94-4.29-3.67-6.77-8.84-8.99-13.9-1.61-3.67-3.16-7.47-3.26-11.44-.09-3.97,1.55-8.21,5.11-10.31,4.75-2.8,11.32-.82,15.15,3.05,3.83,3.87,5.59,9.13,9.21,13.9-10.74-16.31-13.16-37.31-6.37-55.43,3.63-9.69,11.29-19.45,22.1-20.23,10.7-.77,20.08,8.01,23.15,17.76,3.07,9.76,1.36,20.22-.37,30.27-3.46,20.07-6.92,40.14-7.28,60.33,6,33.13,12.01,66.6,10.02,100.16-1.99,33.56-12.73,67.71-36.49,92.65-23.76,24.94-62.05,38.82-95.95,29.05-28.58-8.24-51.98-31.79-81.43-32.53-.61-8.02.92-16.17,2.88-19.93Z"/>
  <path class="cls-15" d="m326.16,81.49c-11.9,3.85-23.87,9.71-30.47,19.86-6.6,10.15-5.64,25.43,4.84,32.02,6.21,3.91,14.46,4.06,21.49,1.73,7.04-2.33,13.03-6.86,18.35-11.81,6.2-5.78,13.27-12.82,21.87-11.62,5,.7,9.18,4.18,14.16,4.98,6.62,1.07,12.88-2.7,18.7-5.86,5.82-3.16,13.11-5.87,19-2.82,3.35,1.74,5.96,5.23,9.78,5.33,2.36.07,4.53-1.26,6.27-2.78,5.66-4.96,8.44-12.71,7.15-19.91-1.29-7.2-6.63-13.64-13.7-16.54-14.08-5.77-30.05,2.54-45.37,1.93-9.87-.39-19.19-4.51-29.01-5.45-9.82-.94-21.63,2.91-23.05,10.93Z"/>
  <path class="cls-30" d="m344.25,308.43c4.65-9.33,15.45-15.59,26.32-15.24,10.88.34,21.21,7.26,24.5,17.12"/>
  <path class="cls-31" d="m420.06,137c9.9,1.48,18.8,8,22.81,16.72"/>
  <path class="cls-31" d="m327.12,139.9c-11.91,1.62-23.05,7.88-30.28,17.01"/>
  <path class="cls-16" d="m290.66,407.92c-19.24,13.84-27.31,40.72-18.11,62.28,9.21,21.56,35.23,35.38,58.77,30.63,23.54-4.76,41.49-28.03,38.83-51.17-1.78,17.38,8.38,35.18,24.08,44.02,15.7,8.84,36.01,8.8,52.08.86,13.99-6.92,24.95-19.9,27.63-34.88,3.57-19.95-7.54-40.11-22.49-54.46-22.11-21.21-53.41-33.19-84.43-32.3-31.02.89-55.56,20.07-76.35,35.02Z"/>
  <path class="cls-25" d="m363.82,490.22c11.7-8.53,13.19-25.68,6.65-38.23-6.54-12.54-19.23-21.17-32.28-27.7-3.98-1.99-8.18-3.87-12.67-4.1s-9.37,1.54-11.48,5.31c-2.09,3.73-1.04,8.28.05,12.38,3.3,12.29,6.59,24.58,9.89,36.86,1.74,6.5,3.73,13.39,8.95,17.92,5.44,4.71,13.67,5.86,20.74,3.88s12.99-6.75,10.15-6.32Z"/>
  <path class="cls-25" d="m420.07,383.24c31.6,17.43,69.37,30.52,104.33,20.39,36.92-10.7,61.49-45.49,69.61-81.3,8.12-35.8,2.76-72.96-2.35-109.26-5.11-36.3-9.89-73.62-.69-109.18,1.97-7.6-.07-17.86,7.19-13.56,3.34,1.98,9.53,13.68,10.19,18.97,1.39,11.12-3.63,26.67-4.97,44.53-2.42,32.32,2.24,64.69,4.63,97.01,2.39,32.33,2.39,65.57-8.88,96.16-11.27,30.59-36.26,53.82-68.42,67.38-35.03,14.77-72.5-4.85-104.26-25.2,24.39,7.91,45.3,27.71,46.85,54.39-14.11-30.7-40.87-39.12-53.23-60.34Z"/>
  <path class="cls-16" d="m353.54,368.23c-28.91,10.96-58.49,21.87-90.01,24.89-31.53,3.01-65.84-3.02-88.17-21.91-19.77-16.74-27.54-40.96-30.83-64.35-5.68-40.4-.19-81.87,15.4-120.36.24,0,.48,0,1.05-.49,5.84,2.58,13.36.74,18.26-2.97,4.9-3.71,7.73-8.92,10.27-14.04,1.84-3.71,3.62-7.54,3.72-11.55.11-4.01-1.78-8.29-5.84-10.41-5.43-2.83-12.94-.83-17.32,3.08-4.38,3.9-6.38,9.22-10.53,14.03,12.27-16.47,15.03-37.68,7.28-55.98-4.15-9.79-12.91-19.64-25.26-20.43-12.23-.78-22.94,8.09-26.45,17.94-3.51,9.85-1.56,20.42.42,30.56,3.95,20.27,7.91,40.54,8.32,60.92-6.85,33.45-13.73,67.26-11.45,101.15,2.28,33.89,14.55,68.37,41.7,93.56,27.15,25.18,70.91,39.21,109.66,29.33,32.66-8.32,59.41-32.1,93.06-32.85.7-8.1-1.06-16.33-3.29-20.12Z"/>
  <path class="cls-1" d="m270.21,465.76c6.82-31.95,36.04-42.09,54.27-63.02,7.23,32.09,40.46,99.03,40.46,99.03,0,0-49,1.1-57.13-2.04-9.2-3.56-18.6-7.22-26.05-13.46-7.45-6.24-12.59-15.63-11.55-20.5Z"/>
  <path class="cls-1" d="m320.34,413.62c-.36-11.99-2.67-23.92-6.82-35.24,4.11-1.95,8.22-3.89,12.32-5.84.17,10.76.35,21.52.52,32.28.03,1.95.04,4-.96,5.7-1,1.7-3.37,2.85-5.06,3.1Z"/>
  <path class="cls-1" d="m414.13,408.11c-4.84-14.67-6.11-30.4-3.68-45.6,3.99,1.53,7.98,3.07,11.97,4.6-4.65,14.22-6.95,29.13-8.29,41Z"/>
  <path class="cls-2" d="m341.04,916.53c2.96.53,4.8,4.08,3.42,6.6-.73,1.34-2.82,2.25-3.9,1.14-.48-.49-.58-1.2-.62-1.86-.18-2.77.33-5.58,1.11-5.88Z"/>
  <path class="cls-16" d="m357.66,910.27c.04-.3.06-.61.11-.91,0-.2.03-.41.06-.61,0-.06,0-.12,0-.18-.02-.37.02-.71.08-1.03-2.44-84.22,65.58-248.55-8.11-278.02-15.84-6.33,15.64,85.73,6.46,102.86-34.19,63.77-39.09,110.78-41.47,171.24-.19,4.76-3.22,9.62-.95,13.86,3.66,6.83,14.11,6.35,21.78,3.94,6.47-2.03,13.82-4.61,19.97-2.78.44-2.28,1-4.09,1.71-6.93.12-.47.23-.96.34-1.44Z"/>
  <path class="cls-1" d="m357.42,495.48c24.9,5.23,53.02,3.71,76.23-4.12-1.82-3.26-7.66-4.94-13.02-4.92-5.36.01-10.48,1.32-15.62,2.31-17.34,3.35-36.29,3.12-53.43-.64-1.9,3.05-.1,6.88,4.1,8.74,4.2,1.86,10.37,1.56,1.74-1.37Z"/>
  <path class="cls-16" d="m351.49,933.82c-2.67,27.88-5.33,55.77-8,83.65-.52,5.45-1.41,11.47-7.11,15.15-5.7,3.68-17.59,2.04-18.28-4.58-.04-3.89-.08-7.78-.13-11.67-8.71-.83-15.27-6.44-17.6-12.43-2.33-5.99-1.28-12.35-.22-18.53,1.98-11.49,3.96-22.99,5.95-34.48.96-5.59,2.11-11.5,7.11-15.88,4.92-4.32,12.71-6.38,19.03-9.66,6.32-3.28,21.02-10.09,19.25,8.42Z"/>
  <path class="cls-25" d="m387.34,679.3c-1.73-10-4.86-8.45-15.54-8.71,20.64,86.43-48.06,274.22-35.42,362.03,6.13-1.84,16.96-104.12,18.18-109.58,1.16-5.19,2.26-10.24,3.3-15.17.03-.26.08-.52.16-.75,15.78-75.06,18.04-121.2,30.16-186.57,1.96-10.58.89-31.25-.84-41.25Z"/>
  <path class="cls-16" d="m422.42,610.9c-68.73,57.62,7.98,230.5,25.39,315.92.96,4.71,2.32,9.98,6.68,12.42,4.86,2.72,11.47.36,14.98-3.84,3.5-4.2,4.63-9.71,5.49-15,7.79-48.18,1.65-98.31-13.42-144.12,10.05-27.94,8.64-59.45-3.88-86.48-5.63-12.15-15.8-24.73-29.79-24.74-11.35-.01,2.23-60.6-5.44-54.17Z"/>
  <path class="cls-25" d="m430.89,422.52c-7.33-4-9.71-9.26-16.8-4.89-3.65,2.25-12.57,7.46-14.21,11.28-3.35,7.81-5.95,15.9-7.78,24.14-1.56,7.04-2.47,14.71.9,21.16,2.42,4.62,4.72,10.26,8.93,13.53,5.38,4.18,14.09,6.4,20.73,4.43,7.32-2.17,9.82-10.69,10.61-17.93,1.92-17.85.36-36.04-2.37-51.72Z"/>
  <path class="cls-25" d="m473.94,936.12c2.31-68.13-26.93-136.9-10.32-203.34,5.22-20.87,14.82-40.62,20.62-61.37,5.8-20.74,7.5-43.58-2.7-62.85-2.73-5.15-20.3-36.41-15.31-39.85,4.99-3.44,26.22,25.51,29.76,30.23,16.5,22.02,21.49,50.94,13.2,76.55-8.22,25.4-18.75,48.55-27.19,73.89-10.9,32.76-5.94,64.16-4.03,99.49,1.85,34.24,9.12,71.57-4.03,87.24Z"/>
  <path class="cls-1" d="m387.46,679.29c23.16-3.77,36.91-35.56,53.69-51.41,18.63-17.6,26.45-60.02,26.45-60.02,0,0-34.81,21.94-47.71,26.75-6.87,2.57-28.85,6.01-28.85,6.01,0,0-22.83-5.35-30.42-7.24-12.82-3.2-53.69-15.35-53.69-15.35,0,0,31.42,81.09,80.4,101.27,3.1,1.28-3.31.54.12-.02Z"/>
  <path class="cls-1" d="m410.6,397.08c3.84,36.43-5.86,101.03-5.86,101.03,0,0,49.65,3.9,61.5-5.49,11.37-9.02,12.48-42.48,3.98-56.1-6.69-10.73-19.29-15.15-30.83-19.32-11.54-4.16-24.02-9.78-28.79-20.12Z"/>
  <path class="cls-10" d="m426.09,785.61c-2.74,6.24,3.18,14.27,10.3,13.96,7.12-.3,12.26-8.8,9.24-15.32-5.31,4.56-13.65,5.62-19.55,1.36Z"/>
  <path class="cls-10" d="m348.26,780.05c1.27,3.8,2.54,7.6,3.81,11.4,7.71.18,14.6-7.15,13.54-14.39-4.14,5.33-12.85,6.8-17.34,3Z"/>
  <path class="cls-26" d="m388.56,546.84c-4.58,8.53-4.39,19.21.49,27.58,7.29-8.34,6.98-21.78-.49-27.58Z"/>
  <path class="cls-25" d="m122.64,342.48c-.04-.65.95-.78,1.1-.15,5.54,23.7,28.65,45.58,59.1,60.41,34.1,16.6,77.47,21.59,110.54,3.22-4.65,12.58-20.34,13.11-34.03,16.08-13.41,2.91-27.31,3.41-40.8.85-29.95-5.69-43.32-10.95-64.42-31.02-17.2-16.35-30.5-32.73-31.48-49.38Z"/>
  <path class="cls-25" d="m145.35,230.67c2.96-15.94,5.92-31.88,8.88-47.82,18.55-.88,35.08-16.28,36.33-33.85,7.34,7.2.28,23.22-7.3,30.2-7.58,6.98-14.14,9.79-24.44,7.48-2.05,15.14-6.41,30.01-13.47,44Z"/>
  <path class="cls-25" d="m353.35,328.97c27.74,9.59,64.59-3.86,86.91-21.53,28.47-22.53,32.05-49.05,33.4-76.61,1.96-39.95-6.75-54.84-17.54-80.45-6.7-15.9-11.79-29.26-25.97-39.85,32.62,40.07,34.07,93.41,19.63,142.16-6.07,20.49-15.77,40.85-32.85,54.66-17.08,13.81-65.66,24.33-85.4,14.2,3.03,2.01,19.07,6.48,21.81,7.42Z"/>
  <path class="cls-19" d="m309.76,600c-19.44,22.44-21.86,56.75-5.74,81.45,9.44,14.48,24.08,25.21,34.88,38.81,10.8,13.6,17.41,32.82,8.25,47.46,7.52-18.9,5.53-40.98-5.27-58.4-6.76-10.91-16.64-19.89-23.14-30.95-13.81-23.54-10.33-52.41-8.98-78.37Z"/>
  <path class="cls-19" d="m131.23,101.28c4.34,35.08,4.1,70.68-.73,105.7-4.29,31.13-12.2,62.03-11.64,93.43.55,31.39,11.08,64.54,36.91,84.17-24.43-23.32-31.86-58.56-30.19-91.4,1.66-32.84,11.14-64.84,15.49-97.46,4.34-32.62,2.99-67.62-9.83-94.44Z"/>
  <path class="cls-19" d="m325.57,573.83c16.3-15.91,23.98-39.37,20.06-61.24"/>
  <path class="cls-16" d="m454.75,923.86c2.25,31.34,4.5,62.67,6.75,94.01.44,6.13,1.19,12.89,6.01,17.03,4.82,4.14,14.86,2.3,15.44-5.15.04-4.37.07-8.74.11-13.11,7.35-.93,12.9-7.23,14.87-13.97,1.97-6.74,1.08-13.88.18-20.82-1.67-12.92-3.35-25.83-5.02-38.75-.81-6.28-1.78-12.92-6-17.85-4.16-4.86-10.73-7.17-16.08-10.86-5.34-3.69-17.76-11.34-16.26,9.47Z"/>
  <path class="cls-16" d="m348.44,897c-1.89,17.07-5.47,36.35-9.24,55.05-1.11,5.51-2.03,12.22-7.56,14.33-4.84,1.84-10.54-1.14-13.16-5.39-2.62-4.25-2.92-9.39-3.06-14.3-1.29-45.84,5.51-91.87,20.01-135.65"/>
  <path class="cls-25" d="m497.63,998.9c2.86-6.83-.2-14.51-3.81-21.02-3.61-6.5-7.93-13.19-7.64-20.52.15-3.81,1.56-7.46,2.26-11.22,1.59-8.51-.67-17.6-6.1-24.57,3.94,1.18,6.89,4.39,8.57,7.95,1.68,3.56,2.25,7.47,2.81,11.33,2.37,16.4,4.75,32.81,7.12,49.21.31,2.16.62,4.41-.16,6.47-.78,2.05-3,3.8-5.26,3.35.23-.75.45-1.49,2.2-.97Z"/>
  <path class="cls-13" d="m394.67,76.75s-31.83-.77-40.18,7.46c-8.35,8.23-15.51,24.4-15.51,24.4l34.45-22.71,21.24-9.15Z"/>
  <path class="cls-11" d="m421.6,76.43s-31.83-.77-40.18,7.46c-8.35,8.23-7.43,18.32-7.43,18.32l34.45-22.71,13.16-3.07Z"/>
  <path class="cls-12" d="m354.21,78.32s-31.83-.77-40.18,7.46c-8.35,8.23-15.51,24.4-15.51,24.4l34.45-22.71,21.24-9.15Z"/>
</svg>