<?xml version="1.0" encoding="UTF-8"?>
<svg id="Layer_1" data-name="Layer 1" xmlns="http://www.w3.org/2000/svg" viewBox="0 0 700.2 1080">
  <defs>
    <style>
      .cls-1, .cls-2, .cls-3, .cls-4 {
        stroke-miterlimit: 10;
      }

      .cls-1, .cls-3 {
        stroke: #000;
      }

      .cls-5 {
        fill: #f7cbc3;
      }

      .cls-6 {
        fill: #ed64a1;
      }

      .cls-7 {
        fill: #ed9197;
      }

      .cls-8 {
        fill: #eba99d;
      }

      .cls-9 {
        fill: #e6478c;
      }

      .cls-10 {
        fill: #ffafa4;
      }

      .cls-11 {
        fill: #f2cf3d;
      }

      .cls-12 {
        fill: #f2b63d;
      }

      .cls-13 {
        fill: #fcca65;
      }

      .cls-14 {
        fill: #fadbd4;
      }

      .cls-15 {
        fill: #40badb;
      }

      .cls-2 {
        stroke: #ffb1a2;
        stroke-width: 5px;
      }

      .cls-2, .cls-4 {
        fill: none;
      }

      .cls-3 {
        fill: #121111;
      }

      .cls-4 {
        stroke: #c77946;
      }
    </style>
  </defs>
  <path class="cls-13" d="m338.68,58.74c-26.21-14.22-48.43-3.54-69.57,6.98-21.14,10.52-37.5,31.11-39.1,54.03-.76,10.91,1.7,21.88.67,32.77-1.07,11.22-5.95,22.07-13.71,30.47-6.29,6.81-14.34,11.99-20.28,19.09-9.82,11.75-12.8,27.43-14.1,42.47-1.33,15.39-.69,32.44,9.91,44,10.7,11.66,30.6,16.84,33.6,32.15,1.86,9.48-4.02,18.65-5.46,28.19-1.23,8.1.91,16.63,5.82,23.29,3.08,4.18,7.4,7.72,12.56,8.96,10.42,2.51,20.44-4.64,28.65-11.33,10.11-8.24,20.21-16.49,30.32-24.73,3.76-3.07,7.59-6.21,10.14-10.28,2.52-4.02,3.64-8.69,5.65-12.97,5.28-11.21,17.19-19.22,29.9-20.13,12.71-.91,25.71,5.32,32.65,15.65,4.43,6.6,6.39,14.41,9.64,21.62,10.81,24,37.36,40.52,64.45,40.13,9.36-.14,19.28-2.45,25.64-9.09,8.19-8.54,8.28-21.71,5.78-33.1-2.5-11.38-7.12-22.56-6.68-34.19.64-16.61,11.36-31.03,17.57-46.53,2.44-6.1,4.22-12.62,3.58-19.12-.55-5.64-2.89-10.99-5.79-15.91-10.34-17.61-28.19-31.56-32.85-51.3-3.22-13.67.5-27.9.19-41.91-.58-26.6-16.93-52.35-41.21-64.91-24.29-12.55-50.22,15.41-73.28.87-1.98-1.25-2.25-3.87-4.68-5.18Z"/>
  <path class="cls-12" d="m395.48,303.37c7.12,2.44,10.42,8.55,10.84,14.21.42,5.67-1.35,11.31-1.23,16.98.23,11.1,7.8,21.65,18.31,29.78,10.51,8.13,23.81,14.12,37.39,19.41-27.57-10.82-45.98-32.76-46.44-55.34-.12-5.81.66-12.16-4.01-16.9-3.62-3.68-9.76-5.54-14.86-8.15Z"/>
  <path class="cls-12" d="m418.33,230.17c5.6.61,9.99,5.22,12.04,10.29,2.05,5.07,2.25,10.63,2.8,16.04,1.42,14.07,5.35,27.89,11.57,40.69,3.4,7,8.28,14.31,16.04,16.18-1.37-6.8-6.48-12.22-10.07-18.22-4.82-8.08-6.93-17.49-7.14-26.81-.19-8.32,1.07-16.79-.94-24.88s-8.61-16-17.23-16.13c-4.25-.06-8.31,1.78-7.08,2.83Z"/>
  <path class="cls-12" d="m218.81,274.66c-3.51-4.25-3.24-10.52-.98-15.5,2.26-4.99,6.18-9.05,9.76-13.26,9.29-10.92,16.63-23.38,21.6-36.67,2.72-7.27,4.62-15.78.5-22.4-4.01,5.74-4.36,13.07-6.22,19.76-2.5,9.01-7.9,17.1-14.58,23.84-5.96,6.01-13.05,11.14-17.54,18.24-4.5,7.1-5.62,17.2.38,23.17,2.96,2.95,7.18,4.42,7.08,2.83Z"/>
  <path class="cls-12" d="m281.94,274.43c-13,8.31-6.98,25.98-9.18,35.89-2.64,11.9-18.35,33.67-29.49,44.19,10.68-3.75,18.57-12.41,25.98-20.74,3.92-4.41,7.9-8.91,10.24-14.27,2.23-5.11,2.84-10.72,3.2-16.25.63-9.87.51-19.78-.74-28.83Z"/>
  <path class="cls-5" d="m313.32,804.92c1.36.49,2.5,1.46,3.05,2.92,1.33-.48,2.79-.32,4.09.27,1.91-1.54,4.28-2.38,7.33-1.92,1.07.16,1.95.76,2.65,1.53,1.05-1.43,2.43-2.48,4.48-3.18,1.74-.6,3.45-.09,4.83.88,1.09-7.8,2.27-15.59,3.55-23.36,1.3-7.86,2.2-15.76,3.5-23.62,1.24-7.49,3.82-15.05,4.5-22.58.06-.71.24-1.35.49-1.93-.59-6.68-.27-13.42-.7-20.14-.61-9.46-1.78-19.15,1.87-28.21.08-.2.19-.38.28-.56-.28-.42-.55-.85-.77-1.32-1.89-4.03-1.16-9-1.16-13.32,0-5.75,7.93-7.6,10.97-2.87,2.41,3.76,5.51,5.72,6.84,10.18.23.76.43,1.53.63,2.31,1.5-.02,3.01.47,4.16,1.58,3.13-.2,6.47,1.8,6.47,5.52,0,2.8-.16,5.58-.38,8.35,1.1,3.18,2.14,6.4,3.06,9.66,3.25,9.09,6.34,18.23,8.99,27.51.75.88,1.25,1.96,1.3,3.25.02.57.05,1.14.07,1.71,4.12,16.15,5.22,32.88,11.07,48.64,1.85,4.99-3.58,7.91-7.68,6.56.37,4.01.78,8.02,1.21,12.03.68-1.77,1.5-3.49,2.58-5.08,1.5-2.21,3.94-3.15,6.62-2.6,2.94.6,4.68,2.51,5.74,4.9,2.85-3.52,10.4-1.32,10.52,3.86.11,4.63,1.17,9.08,1.7,13.65.03-.07.05-.15.08-.22.49-5.12,1.33-10.22,2.94-14.93.87-2.56,3.24-4.1,5.7-4.11.29-.3.6-.59.93-.86,1.9-1.56,4.51-2.02,6.62-1.13-.74-3.57-1.04-7.48-.58-12.05.04-.41.08-.84.12-1.26-.08-1-.14-2-.16-3.01-.02-.98.2-1.84.59-2.57,1.59-25.04.25-61.38,10.59-81.8,14.74-29.09,30.05-81.44,10.2-105.81-16.09-19.74-35.63-37.46-58.81-82.91-7.66-15.02-4.28-32.02-9.82-47.89-5.54-15.87-21.53-31.82-38.09-36.8-14.93-4.49-31.81,1.42-42.75,12.21-10.94,10.79-19.3,26.88-13.31,36.13,16.3,25.15,5.53,58.29-9.45,84.2-14.98,25.9-34.42,51.58-34.87,81.25-.47,30.65,19.43,57.53,36.3,83.49,16.31,25.11,30.87,55.48,21.92,83.47Z"/>
  <path class="cls-12" d="m474.43,252.19c.44-15.65-18.31-20.32-25.56-27.68-8.71-8.84-18.29-34.23-20.84-49.53-3.02,11.15-.17,22.65,2.68,33.55,1.51,5.77,3.06,11.65,6.31,16.6,3.1,4.72,7.58,8.35,12.14,11.72,8.13,6,16.75,11.38,25.28,15.34Z"/>
  <path class="cls-12" d="m272.76,246.95c-9.94-10.46-14.76,24.75-19.31,31.97-2.89,4.59-11.12,12.4-14.14,16.59-2.18,3.03-5.73,8.19-9.29,11.12-.46.38.04,1.1.57.83,3.33-1.68,6.82-5.3,9.52-6.78,18.52-10.11,45.92-39.74,32.64-53.72Z"/>
  <path class="cls-5" d="m367.29,309.77c.41,40.3,21.96,79.87,56.1,103.03,1.43,3.44,3.58,4.48,5.72,5.51-9.33,3.31-19.63,1.99-29.5.87-43.89-4.98-88.37-5.12-132.29-.42,24.25-26.71,42.99-67.33,45.39-104.28"/>
  <path class="cls-10" d="m307.64,316.54l3.85,20.36c4.58,7.64,12.84,12.87,22.33,14.13l9.36,1.25,10.4-7c3.66-2.46,6.73-5.58,9.03-9.15l8.27-19.83-63.25.24Z"/>
  <path class="cls-5" d="m246.82,206.6c2.24-144.7,173.84-183.4,191.66-.51.03.34-.03.7.04,1.04,33.43,154.08-214.05,166.91-191.7-.52Z"/>
  <path class="cls-14" d="m336.45,89.8c-13.09,8.12-23.73,19.47-32.84,31.65-10.22,13.66-18.61,33.24-23.23,44.98s-11.96,32.06-11.65,48.77c.39,20.97,5.55,55.98,15.64,71.53,7.93,12.21,36.61,35.9,36.61,35.9,0,0-23.81-4.82-30.53-9.26-35.26-23.32-52.13-47.95-55.71-85.39-2.75-28.77,15.38-76.89,28.02-95.12,13.38-19.31,47.32-42.62,73.69-43.07Z"/>
  <ellipse class="cls-3" cx="382.86" cy="189.89" rx="19.49" ry="16.28"/>
  <path class="cls-7" d="m297.53,253.57c13.46,11.7,40.88-18.21,72.44-.6,31.56,17.61-3.55-36.58-13.32-40.03-6.07-2.15-33.17-1.11-40.55,4.42-7.97,5.97-26.34,29.45-18.57,36.2Z"/>
  <path class="cls-2" d="m329.52,205.39c5.35,2.1,12.04-.24,15.48-4.32,3.45-4.08,4.2-9.42,3.76-14.44-.9-10.19-6.14-19.7-8.46-29.72-2.32-10.02-.84-21.92,8.69-28.06"/>
  <ellipse class="cls-1" cx="302.13" cy="189.89" rx="20.01" ry="16.79"/>
  <polyline class="cls-1" points="277.21 168.74 295.41 176.27 286.57 186.83"/>
  <polygon class="cls-1" points="392.15 179.29 407.76 171.25 399.96 191.35 392.15 179.29"/>
  <path class="cls-6" d="m284.71,213.77c-.61-3.04-6.41-7.73-9.57-8.24-3.39-.55-11.53-.01-13.44,2.75-1.66,2.39-.97,9.16.78,11.49,2.12,2.84,9.95,6.18,13.44,5.24s9.48-7.78,8.79-11.24Z"/>
  <path class="cls-6" d="m396.9,215.27c-1.04,2.38,2.34,7.99,4.63,9.33,2.79,1.64,9.9,1.83,13.02.91,3.06-.9,8.02-6.08,8.68-9.1.5-2.28-2.49-7.11-4.63-8.19-5.07-2.57-19.48,1.96-21.7,7.06Z"/>
  <ellipse class="cls-15" cx="304.4" cy="185.6" rx="6.32" ry="4.3"/>
  <ellipse class="cls-15" cx="381.31" cy="184.86" rx="5.79" ry="3.56"/>
  <path class="cls-12" d="m299.17,81.1c-11.57,3.81-23.19,9.61-29.6,19.65-6.42,10.05-5.48,25.16,4.7,31.69,6.03,3.87,14.05,4.01,20.88,1.71,6.84-2.3,12.66-6.79,17.83-11.69,6.02-5.72,12.89-12.69,21.24-11.5,4.86.69,8.92,4.13,13.76,4.93,6.43,1.06,12.51-2.67,18.17-5.8s12.74-5.81,18.46-2.79c3.26,1.72,5.79,5.17,9.5,5.28,2.3.06,4.4-1.24,6.09-2.75,5.5-4.9,8.2-12.57,6.95-19.7s-6.44-13.5-13.31-16.36c-13.68-5.71-29.2,2.51-44.08,1.91-9.59-.39-18.64-4.46-28.19-5.39-9.55-.93-21.01,2.88-22.4,10.82Z"/>
  <path class="cls-4" d="m316.75,305.66c4.52-9.24,15.01-15.42,25.57-15.08,10.57.34,20.61,7.18,23.81,16.94"/>
  <path class="cls-4" d="m390.4,136.03c9.62,1.46,18.27,7.92,22.16,16.54"/>
  <path class="cls-4" d="m300.11,138.9c-11.58,1.61-22.4,7.8-29.42,16.83"/>
  <path class="cls-5" d="m264.68,404.11c-18.7,13.69-26.54,40.3-17.59,61.63,8.95,21.33,34.23,35.01,57.1,30.31,22.87-4.71,40.31-27.74,37.72-50.63-1.73,17.2,8.14,34.82,23.39,43.56,15.25,8.75,34.99,8.71,50.6.85,13.59-6.84,24.24-19.69,26.84-34.52,3.47-19.74-7.32-39.69-21.85-53.89-21.48-20.99-51.89-32.84-82.03-31.97-30.14.88-53.98,19.86-74.18,34.65Z"/>
  <path class="cls-8" d="m335.76,485.55c11.37-8.44,12.82-25.41,6.46-37.83-6.36-12.41-18.68-20.95-31.37-27.41-3.87-1.97-7.94-3.83-12.31-4.06-4.36-.23-9.1,1.52-11.16,5.25-2.03,3.69-1.01,8.19.05,12.25,3.2,12.16,6.4,24.32,9.61,36.48,1.69,6.43,3.62,13.25,8.7,17.73,5.29,4.66,13.28,5.8,20.15,3.84,6.86-1.96,12.62-6.68,9.86-6.25Z"/>
  <path class="cls-5" d="m367.97,358.7c24.58,10.74,49.72,21.43,76.53,24.39,26.8,2.95,55.97-2.96,74.96-21.47,16.81-16.4,23.41-40.13,26.21-63.06,4.83-39.58.16-80.22-13.1-117.93-.2,0-.41,0-.89-.48-4.97,2.53-11.36.73-15.52-2.91-4.17-3.64-6.57-8.74-8.73-13.75-1.56-3.63-3.07-7.39-3.17-11.32s1.51-8.13,4.97-10.2c4.62-2.77,11-.81,14.72,3.01,3.72,3.83,5.43,9.04,8.95,13.75-10.44-16.14-12.78-36.92-6.19-54.85,3.52-9.59,10.97-19.24,21.48-20.01,10.4-.76,19.51,7.92,22.49,17.58,2.98,9.65,1.32,20.01-.36,29.95-3.36,19.86-6.72,39.72-7.07,59.7,5.83,32.78,11.67,65.9,9.74,99.11-1.93,33.21-12.37,67-35.45,91.68-23.08,24.68-60.28,38.42-93.23,28.74-27.77-8.16-50.5-31.46-79.12-32.19-.59-7.93.9-16,2.8-19.72Z"/>
  <path class="cls-8" d="m390.41,379.69c30.71,17.25,67.4,30.21,101.36,20.18,35.87-10.59,59.74-45.02,67.63-80.45,7.89-35.43,2.68-72.2-2.28-108.11-4.96-35.92-9.61-72.85-.67-108.04,1.91-7.52-.07-17.68,6.99-13.42,3.24,1.96,9.25,13.54,9.9,18.77,1.35,11-3.53,26.39-4.82,44.06-2.35,31.99,2.17,64.01,4.5,96,2.32,31.99,2.33,64.88-8.63,95.15-10.95,30.27-35.23,53.26-66.48,66.68-34.03,14.61-70.44-4.8-101.3-24.94,23.7,7.83,44.01,27.42,45.52,53.82-13.71-30.38-39.71-38.72-51.72-59.71Z"/>
  <path class="cls-5" d="m325.78,364.84c-28.09,10.85-56.82,21.64-87.45,24.63-30.63,2.98-63.97-2.99-85.66-21.69-19.21-16.56-26.76-40.53-29.95-63.68-5.52-39.97-.18-81.01,14.97-119.1.23,0,.46,0,1.02-.49,5.68,2.55,12.98.74,17.74-2.94,4.76-3.67,7.51-8.83,9.98-13.89,1.79-3.67,3.51-7.46,3.62-11.43s-1.73-8.21-5.68-10.3c-5.28-2.8-12.57-.82-16.82,3.04-4.26,3.86-6.2,9.12-10.23,13.89,11.93-16.3,14.61-37.28,7.08-55.39-4.03-9.68-12.54-19.43-24.54-20.21-11.88-.77-22.29,8-25.7,17.75-3.41,9.75-1.51,20.2.41,30.25,3.84,20.06,7.68,40.11,8.08,60.28-6.66,33.1-13.34,66.55-11.13,100.09,2.21,33.54,14.14,67.66,40.52,92.58,26.38,24.92,68.89,38.8,106.54,29.03,31.73-8.24,57.72-31.77,90.41-32.51.68-8.01-1.03-16.16-3.2-19.91Z"/>
  <path class="cls-9" d="m244.81,461.35c6.63-31.61,35.01-41.65,52.73-62.36,7.02,31.75,39.31,97.99,39.31,97.99,0,0-47.61,1.09-55.5-2.02-8.94-3.52-18.07-7.15-25.31-13.32-7.24-6.18-12.23-15.47-11.22-20.28Z"/>
  <path class="cls-9" d="m293.52,409.76c-.35-11.86-2.59-23.67-6.63-34.87,3.99-1.92,7.98-3.85,11.97-5.77.17,10.65.34,21.29.51,31.94.03,1.93.04,3.96-.93,5.64-.97,1.69-3.27,2.82-4.92,3.07Z"/>
  <path class="cls-9" d="m384.64,404.31c-4.7-14.52-5.94-30.08-3.57-45.12,3.88,1.52,7.75,3.03,11.63,4.55-4.52,14.07-6.75,28.82-8.06,40.57Z"/>
  <path class="cls-5" d="m313.63,907.41c2.88.53,4.66,4.04,3.32,6.53-.71,1.33-2.74,2.23-3.79,1.13-.46-.48-.56-1.19-.6-1.84-.17-2.74.32-5.52,1.08-5.82Z"/>
  <path class="cls-5" d="m329.78,901.21c.03-.3.06-.6.11-.9,0-.2.03-.4.06-.61,0-.06,0-.12,0-.18-.02-.37.02-.7.08-1.02-2.37-83.34,63.72-245.95-7.88-275.12-15.39-6.27,15.19,84.84,6.27,101.78-33.22,63.1-37.97,109.62-40.29,169.45-.18,4.71-3.13,9.52-.92,13.72,3.56,6.76,13.71,6.28,21.16,3.9,6.28-2.01,13.43-4.56,19.41-2.75.43-2.26.98-4.05,1.67-6.86.11-.46.22-.95.33-1.43Z"/>
  <path class="cls-9" d="m319.8,492.05c20.87,5.17,44.45,3.67,63.9-4.08-1.53-3.22-6.42-4.88-10.91-4.87-4.5.01-8.79,1.31-13.09,2.29-14.53,3.31-30.42,3.09-44.78-.63-1.59,3.02-.09,6.8,3.43,8.64,3.52,1.84,8.7,1.55,1.46-1.35Z"/>
  <path class="cls-5" d="m323.78,924.51c-2.59,27.59-5.18,55.18-7.77,82.78-.51,5.39-1.37,11.35-6.91,15-5.54,3.64-17.09,2.02-17.76-4.53-.04-3.85-.08-7.7-.12-11.54-8.46-.82-14.84-6.37-17.1-12.3-2.26-5.93-1.24-12.23-.21-18.33,1.93-11.37,3.85-22.75,5.78-34.12.94-5.53,2.05-11.38,6.9-15.72,4.78-4.28,12.34-6.31,18.49-9.56,6.14-3.25,20.42-9.99,18.7,8.34Z"/>
  <path class="cls-8" d="m358.61,672.66c-1.68-9.9-4.73-8.36-15.1-8.62,20.05,85.53-46.69,271.35-34.41,358.25,5.95-1.82,16.47-103.03,17.66-108.44,1.13-5.14,2.19-10.13,3.2-15.01.03-.26.08-.51.15-.74,15.34-74.28,17.53-119.93,29.3-184.62,1.91-10.47.86-30.92-.81-40.82Z"/>
  <path class="cls-5" d="m392.7,604.98c-66.78,57.02,7.75,228.09,24.67,312.62.93,4.66,2.25,9.88,6.49,12.29,4.73,2.69,11.15.36,14.55-3.8,3.4-4.16,4.5-9.6,5.33-14.84,7.56-47.67,1.61-97.28-13.03-142.61,9.77-27.65,8.39-58.82-3.77-85.57-5.47-12.02-15.36-24.47-28.95-24.48-11.03,0,2.16-59.96-5.28-53.6Z"/>
  <path class="cls-8" d="m400.93,418.56c-7.12-3.96-9.43-9.16-16.32-4.84-3.54,2.22-12.22,7.38-13.81,11.16-3.25,7.72-5.79,15.73-7.56,23.89-1.51,6.97-2.4,14.56.88,20.94,2.35,4.57,4.58,10.16,8.67,13.39,5.23,4.13,13.69,6.33,20.14,4.38,7.11-2.15,9.55-10.58,10.3-17.74,1.87-17.67.35-35.66-2.3-51.18Z"/>
  <path class="cls-8" d="m442.75,926.79c2.25-67.42-26.17-135.46-10.03-201.22,5.07-20.65,14.4-40.2,20.03-60.72,5.63-20.52,7.29-43.13-2.62-62.19-2.65-5.1-19.72-36.03-14.87-39.44,4.85-3.41,25.48,25.25,28.91,29.92,16.03,21.79,20.88,50.41,12.83,75.75-7.99,25.14-18.22,48.04-26.42,73.12-10.59,32.42-5.77,63.49-3.92,98.45,1.79,33.89,8.86,70.83-3.92,86.33Z"/>
  <path class="cls-9" d="m358.73,672.64c22.5-3.73,35.86-35.19,52.16-50.87,18.1-17.42,25.7-59.4,25.7-59.4,0,0-33.82,21.71-46.35,26.47-6.68,2.54-28.03,5.95-28.03,5.95,0,0-22.19-5.29-29.55-7.16-12.46-3.17-52.16-15.19-52.16-15.19,0,0,30.53,80.24,78.11,100.21,3.01,1.27-3.22.53.12-.02Z"/>
  <path class="cls-9" d="m381.21,393.39c3.73,36.05-5.7,99.98-5.7,99.98,0,0,48.24,3.86,59.75-5.44,11.05-8.92,12.13-42.03,3.87-55.52-6.5-10.61-18.74-14.99-29.95-19.11-11.21-4.12-23.33-9.68-27.97-19.91Z"/>
  <path class="cls-8" d="m396.26,777.85c-2.66,6.18,3.09,14.12,10.01,13.81,6.92-.3,11.91-8.71,8.98-15.16-5.16,4.52-13.26,5.56-18.99,1.34Z"/>
  <path class="cls-8" d="m321.84,772.89c1.23,3.76,2.46,7.52,3.7,11.28,7.49.18,14.19-7.08,13.15-14.24-4.02,5.27-12.49,6.73-16.85,2.97Z"/>
  <path class="cls-8" d="m359.8,541.59c-4.45,8.44-4.26,19.01.48,27.29,7.09-8.25,6.78-21.55-.48-27.29Z"/>
  <path class="cls-8" d="m101.44,339.36c-.04-.64.92-.78,1.06-.15,5.38,23.45,27.84,45.1,57.42,59.78,33.13,16.43,75.26,21.36,107.4,3.19-4.52,12.44-19.76,12.97-33.06,15.92-13.03,2.88-26.53,3.37-39.64.84-29.1-5.63-42.08-10.84-62.59-30.7-16.71-16.18-29.63-32.39-30.59-48.86Z"/>
  <path class="cls-8" d="m123.5,228.72c2.88-15.77,5.75-31.55,8.63-47.32,18.02-.87,34.08-16.11,35.3-33.5,7.13,7.13.27,22.98-7.09,29.88-7.36,6.9-13.74,9.69-23.75,7.4-1.99,14.99-6.23,29.69-13.09,43.54Z"/>
  <path class="cls-8" d="m325.56,325.99c33.16,7.27,58.14-3.35,84.44-21.3,29.44-20.1,31.14-48.54,32.45-75.81,1.9-39.53-6.56-54.27-17.05-79.61-6.51-15.74-14.65-31.58-28.43-42.06,31.7,39.66,36.3,95.06,22.27,143.3-5.9,20.28-15.32,40.42-31.92,54.09-16.59,13.67-73.7,25.59-85.05,15.45,2.94,1.99,23.27,5.95,23.27,5.95Z"/>
  <path class="cls-14" d="m283.24,594.18c-18.88,22.21-21.23,56.16-5.58,80.6,9.18,14.32,23.4,24.95,33.89,38.4,10.49,13.46,16.92,32.48,8.01,46.96,7.3-18.7,5.37-40.55-5.12-57.79-6.57-10.8-16.17-19.68-22.48-30.62-13.42-23.29-10.04-51.86-8.72-77.55Z"/>
  <path class="cls-14" d="m109.79,100.68c4.22,34.72,3.98,69.94-.71,104.6-4.17,30.81-11.85,61.38-11.31,92.45.54,31.07,10.76,63.86,35.86,83.29-23.74-23.08-30.95-57.95-29.33-90.44,1.62-32.49,10.83-64.17,15.05-96.44s2.91-66.91-9.55-93.46Z"/>
  <path class="cls-14" d="m298.6,568.29c15.83-15.74,23.3-38.96,19.49-60.6"/>
  <path class="cls-5" d="m424.11,914.66c2.19,31.01,4.37,62.02,6.56,93.02.43,6.06,1.16,12.76,5.84,16.85,4.68,4.09,14.44,2.27,15.01-5.1.03-4.32.07-8.65.1-12.97,7.14-.92,12.53-7.16,14.45-13.82,1.91-6.67,1.05-13.74.18-20.6-1.63-12.78-3.25-25.56-4.88-38.34-.79-6.21-1.73-12.79-5.83-17.66-4.04-4.81-10.43-7.09-15.62-10.75-5.19-3.65-17.25-11.22-15.8,9.37Z"/>
  <path class="cls-5" d="m317.36,891.89c-1.84,16.89-3.68,33.78-5.52,50.66-.6,5.53-1.97,12.1-7.35,14.18-4.7,1.82-10.24-1.13-12.79-5.34s-2.83-9.29-2.97-14.15c-1.25-45.36,5.35-90.91,19.44-134.23"/>
  <path class="cls-5" d="m313.9,914.91c.31-2.43.62-4.87.93-7.3-.48,3.53-.96,7.07-1.44,10.6,1.18-4.38,2.36-8.77,3.55-13.15-.62,3.18-1.23,6.37-1.85,9.55.79-2.57,1.58-5.14,2.36-7.71-.8,3.11-1.61,6.21-2.41,9.32.55-2.15,1.1-4.31,1.65-6.46-.08,1.47-.15,2.95-.23,4.42.23-1.39.46-2.78-2.55.74Z"/>
  <path class="cls-5" d="m315.2,914.42c.32-2.81.63-5.62.95-8.43-.09,2.79-.17,5.58-.26,8.37.95-3.2,1.15-6.6.59-9.88-1.09.87-1.8,2.17-1.28,9.94Z"/>
  <path class="cls-8" d="m465.76,988.92c2.78-6.76-.19-14.36-3.7-20.8-3.51-6.44-7.71-13.05-7.42-20.3.15-3.77,1.52-7.39,2.2-11.1,1.54-8.43-.65-17.42-5.92-24.32,3.83,1.16,6.7,4.34,8.32,7.86,1.63,3.52,2.19,7.39,2.73,11.21,2.31,16.23,4.61,32.46,6.92,48.69.3,2.14.6,4.37-.16,6.4s-2.91,3.76-5.11,3.32c.22-.74.44-1.48,2.14-.96Z"/>
  <path class="cls-11" d="m270.15,97.15l-3.13,3.8c-.55.67-.66,1.52-.53,2.36.07.47-.08.96-.48,1.32-4.98,4.48.25,27.01,34.1-1.72,19.34-16.41,29.41-12.19,53.35-8.24,50.39,8.31,19.92-16.66,12.67-20.74l-15.18-1.68c-.34-.19-.71-.33-1.1-.4l-13.94-2.67c-8.97-1.72-18.24-1.27-26.99,1.29l-8.24,2.41c-6.06,1.77-11.53,5.02-15.89,9.43l-14.44,14.61c-.07.07-.14.15-.21.23Z"/>
</svg>