<?xml version="1.0" encoding="UTF-8"?>
<svg id="Layer_1" data-name="Layer 1" xmlns="http://www.w3.org/2000/svg" viewBox="0 0 737.14 1080">
  <defs>
    <style>
      .cls-1 {
        fill: #f7cbc3;
      }

      .cls-2 {
        fill: #ed64a1;
      }

      .cls-3 {
        fill: #eba99d;
      }

      .cls-4 {
        fill: #ffa673;
      }

      .cls-5 {
        fill: #ffb88b;
      }

      .cls-6 {
        fill: #ff456a;
      }

      .cls-7 {
        fill: #ff935c;
      }

      .cls-8 {
        fill: #ff8a5c;
      }

      .cls-9 {
        fill: #00a29b;
      }

      .cls-10 {
        fill: #8b4600;
      }

      .cls-11 {
        fill: #40badb;
      }

      .cls-12 {
        fill: #5c2c00;
      }

      .cls-13 {
        fill: #5c2100;
      }

      .cls-14 {
        fill: #733700;
      }

      .cls-15 {
        stroke: #db7458;
        stroke-width: 5.01px;
      }

      .cls-15, .cls-16, .cls-17, .cls-18 {
        stroke-miterlimit: 10;
      }

      .cls-15, .cls-18 {
        fill: none;
      }

      .cls-16 {
        fill: #121111;
      }

      .cls-16, .cls-17 {
        stroke: #000;
      }

      .cls-16, .cls-17, .cls-18 {
        stroke-width: 1px;
      }

      .cls-18 {
        stroke: #c77946;
      }
    </style>
  </defs>
  <path class="cls-14" d="m366.83,67.88c-26.24-14.24-48.49-3.55-69.66,6.99-21.17,10.53-57.49,31.02-59.09,53.97-.76,10.93-24.72,5.52-25.76,16.43-1.07,11.23,12.87,28.71,5.09,37.12-6.3,6.82-13.11,22.41-19.05,29.52-9.83,11.76,13.48,26.95,12.17,42.02-1.34,15.41-22.79,25.06-12.17,36.63,10.71,11.68-7.48,13.34-4.47,28.67,1.86,9.49,33.4,3.33,31.95,12.89-1.23,8.11,26.22,11.44,12.24,27.89-8.09,9.52,28.04,7.46,33.21,8.7,10.43,2.51,25.77,9.55,33.99,2.85,10.12-8.25,46.73-15,56.85-23.25,3.77-3.07-28.4,8.02-11.28-1.46,7.06-3.91-4.13-14.91-8.95-15.53-12.73-1.64,17.21-19.25,29.94-20.16,12.73-.91,25.74,5.33,32.69,15.67,4.43,6.61-30.62,4.76-27.36,11.98,10.83,24.03,74.6,14.66,101.72,14.26,9.37-.14,12.26-14.31,18.63-20.95,8.2-8.55,28.19-7.9,25.69-19.29-2.51-11.4-5.67-16.45-5.22-28.1.64-16.63-3.11-3.6,3.1-19.12,2.45-6.1,4.22-12.63,3.59-19.15-.55-5.65-2.9-11-5.8-15.93-10.36-17.63,12-37.66,7.34-57.42-3.23-13.68-25.92-21-26.22-35.03-.58-26.63-30.77-53.3-55.08-65.87-24.32-12.57-50.28,15.43-73.38.87-1.98-1.25-2.26-3.87-4.69-5.19Z"/>
  <path class="cls-13" d="m418.97,113.2c-9.97,10.46,27.08,11.85,35.01,15.54,5.04,2.34,13.91,9.5,18.54,12.01,3.35,1.81,9.04,4.73,12.41,7.87.44.41,1.14-.14.81-.62-2.05-3.03-6.14-6.03-7.92-8.49-12.21-16.78-45.52-40.28-58.84-26.3Z"/>
  <path class="cls-13" d="m240.88,172.75c16.34-.27,20.38-18.46,27.73-25.75,8.83-8.75,34.89-19.06,50.73-22.19-11.76-2.4-23.63.85-34.87,4.06-5.95,1.7-12.01,3.45-17.03,6.79-4.79,3.18-8.38,7.64-11.68,12.17-5.9,8.07-11.13,16.57-14.88,24.93Z"/>
  <path class="cls-13" d="m510.87,207.1c-5.41,1.62-11.41-.88-15.46-4.7s-6.59-8.8-9.4-13.52c-7.3-12.25-16.79-23.32-27.95-32.56-6.1-5.05-13.71-9.82-21.65-8.51,4.15,5.66,11.16,8.61,17.01,12.68,7.87,5.49,13.82,13.23,17.98,21.64,3.71,7.5,6.16,15.7,11.45,22.29,5.3,6.58,14.73,11.23,22.71,8,3.93-1.59,6.89-4.84,5.3-5.32Z"/>
  <path class="cls-13" d="m217.24,222.45c-.85-5.37,2.62-10.69,7.17-13.95s10.06-4.93,15.35-6.88c13.73-5.07,26.56-12.41,37.77-21.6,6.13-5.03,12.18-11.52,12.03-19.24-6.46,3.09-10.55,9.29-15.63,14.22-6.84,6.64-15.72,11.11-25.02,13.79-8.29,2.39-17.11,3.47-24.7,7.5s-13.79,12.28-11.67,20.33c1.05,3.97,3.95,7.26,4.69,5.83Z"/>
  <path class="cls-13" d="m423.7,312.83c7.13,2.45,10.43,8.56,10.85,14.23.42,5.67-1.35,11.33-1.23,17.01.23,11.11-3.03-3.9,7.49,4.25,10.52,8.14,15.51-5.29,29.11,0-27.6-10.84-26.87,12.2-27.33-10.4-.12-5.82.67-12.17-4.02-16.92-3.63-3.68-9.78-5.55-14.87-8.16Z"/>
  <path class="cls-13" d="m446.58,239.53c5.61.61,10,5.23,12.06,10.3,2.05,5.08,2.26,10.64,2.81,16.06,1.43,14.08,5.36,27.93,11.58,40.74,3.4,7.01,8.29,14.33,16.07,16.2-1.37-6.81-6.49-12.23-10.08-18.24-4.83-8.09-6.94-17.51-7.15-26.85-.19-8.33,1.07-16.81-.95-24.91-2.02-8.1-8.63-16.02-17.25-16.15-4.25-.06-8.32,1.78-7.08,2.84Z"/>
  <path class="cls-13" d="m246.8,284.08c-3.52-4.26-3.25-10.53-.98-15.52,2.27-4.99,6.19-9.06,9.77-13.28,9.3-10.93,16.65-23.41,21.63-36.72,2.72-7.28,4.63-15.8.5-22.43-4.01,5.75-4.36,13.08-6.23,19.78-2.51,9.02-7.91,17.12-14.6,23.87-5.97,6.02-13.06,11.15-17.57,18.26-4.5,7.11-5.63,17.22.38,23.2,2.96,2.95,7.19,4.42,7.09,2.83Z"/>
  <path class="cls-13" d="m310.02,283.85c-13.02,8.32-6.99,26.01-9.2,35.94-2.65,11.92-18.37,33.71-29.53,44.25,10.7-3.75,18.59-12.42,26.01-20.76,3.93-4.41,7.91-8.92,10.25-14.29,2.23-5.11,2.85-10.74,3.2-16.27.63-9.88.51-19.8-.74-28.87Z"/>
  <path class="cls-4" d="m341.43,815.02c1.36.49,2.5,1.46,3.05,2.93,1.33-.48,2.79-.33,4.09.27,1.91-1.54,4.28-2.38,7.34-1.92,1.07.16,1.96.76,2.66,1.53,1.05-1.43,2.44-2.49,4.48-3.19,1.75-.6,3.45-.09,4.83.88,1.1-7.81,2.27-15.61,3.55-23.39,1.3-7.87,2.2-15.78,3.51-23.65,1.25-7.5,3.82-15.07,4.5-22.61.06-.71.24-1.35.49-1.93-.59-6.69-.27-13.44-.7-20.17-.61-9.47-1.78-19.17,1.87-28.24.08-.2.19-.38.28-.56-.28-.42-.55-.85-.77-1.33-1.89-4.04-1.17-9.01-1.17-13.34,0-5.75,7.94-7.61,10.98-2.87,2.41,3.76,5.51,5.73,6.85,10.19.23.76.43,1.54.63,2.31,1.5-.02,3.02.47,4.17,1.58,3.13-.2,6.48,1.8,6.48,5.53,0,2.81-.16,5.59-.38,8.36,1.1,3.18,2.15,6.41,3.07,9.67,3.25,9.1,6.35,18.26,9,27.54.75.88,1.25,1.97,1.3,3.25.02.57.05,1.14.07,1.71,4.12,16.17,5.22,32.92,11.08,48.7,1.85,5-3.58,7.92-7.69,6.56.37,4.02.78,8.03,1.21,12.04.68-1.77,1.5-3.49,2.58-5.09,1.5-2.21,3.95-3.16,6.63-2.61,2.95.6,4.69,2.51,5.75,4.91,2.85-3.52,10.41-1.32,10.53,3.87.11,4.64,1.17,9.09,1.7,13.66.03-.07.05-.15.08-.22.49-5.12,1.34-10.23,2.94-14.95.87-2.56,3.25-4.1,5.71-4.12.3-.3.6-.59.93-.86,1.91-1.57,4.51-2.02,6.63-1.13-.74-3.58-1.04-7.49-.58-12.06.04-.41.08-.84.12-1.26-.08-1-.14-2-.16-3.02-.02-.98.2-1.84.59-2.58,1.59-25.07.25-61.46,10.61-81.91,14.76-29.13,30.09-81.54,10.21-105.94-16.11-19.77-35.68-37.51-58.88-83.02-7.67-15.04-4.29-32.07-9.83-47.95-5.54-15.89-21.56-31.86-38.14-36.84-14.95-4.5-31.85,1.42-42.81,12.23s-19.32,26.92-13.32,36.17c16.32,25.18,5.54,58.37-9.46,84.3-15,25.93-34.46,51.65-34.92,81.35-.47,30.69,19.45,57.6,36.35,83.6,16.33,25.14,30.91,55.55,21.95,83.58Z"/>
  <path class="cls-13" d="m502.75,261.58c.44-15.67-18.33-20.35-25.6-27.72-8.73-8.85-18.31-34.28-20.87-49.59-3.02,11.16-.17,22.68,2.68,33.59,1.51,5.78,3.06,11.66,6.32,16.62,3.1,4.73,7.59,8.37,12.15,11.73,8.14,6.01,16.77,11.4,25.31,15.36Z"/>
  <path class="cls-13" d="m300.82,256.34c-9.95-10.47-14.77,24.78-19.33,32.01-2.89,4.6-11.14,12.42-14.16,16.61-2.19,3.03-5.74,8.2-9.3,11.13-.46.38.04,1.1.57.83,3.33-1.68,6.83-5.31,9.54-6.79,18.54-10.13,45.98-39.79,32.68-53.79Z"/>
  <path class="cls-4" d="m340.82,323.95c-2.4,37-21.16,77.67-45.44,104.41,43.98-4.71,88.51-4.57,132.46.42,9.88,1.12,20.2,2.44,29.54-.87-2.15-1.04-4.29-2.07-5.73-5.52-34.18-23.19-55.76-62.81-56.18-103.16"/>
  <path class="cls-7" d="m337.97,329.1l3.85,20.36c4.58,7.64,12.84,12.87,22.33,14.13l9.36,1.25,10.4-7c3.66-2.46,6.73-5.58,9.03-9.15l8.27-19.83-63.25.24Z"/>
  <path class="cls-4" d="m274.85,215.93c2.24-144.88,174.07-183.64,191.91-.51.03.34-.03.7.04,1.04,33.47,154.27-214.32,167.13-191.95-.52Z"/>
  <path class="cls-5" d="m364.59,98.98c-13.11,8.13-23.76,19.5-32.89,31.69-10.24,13.67-18.63,33.28-23.26,45.04-4.61,11.71-11.97,32.1-11.66,48.84.39,20.99,5.55,56.05,15.66,71.63,7.94,12.23,36.66,35.94,36.66,35.94,0,0-23.84-4.83-30.56-9.27-35.3-23.35-52.19-48.02-55.78-85.5-2.76-28.8,15.4-76.99,28.05-95.24,13.4-19.34,47.38-42.68,73.78-43.12Z"/>
  <ellipse class="cls-16" cx="411.06" cy="199.2" rx="19.51" ry="16.3"/>
  <path class="cls-6" d="m325.63,262.97c13.48,11.72,40.93-18.23,72.53-.6,31.6,17.64-3.56-36.62-13.33-40.08-6.08-2.15-33.21-1.11-40.61,4.43-7.98,5.97-26.38,29.48-18.59,36.25Z"/>
  <path class="cls-15" d="m357.66,214.72c5.36,2.1,12.05-.24,15.5-4.33,3.45-4.08,4.21-9.43,3.76-14.46-.9-10.2-6.15-19.73-8.48-29.76-2.33-10.03-.84-21.95,8.7-28.1"/>
  <ellipse class="cls-17" cx="330.23" cy="199.2" rx="20.04" ry="16.81"/>
  <polyline class="cls-17" points="305.28 178.02 323.5 185.57 314.65 196.13"/>
  <polygon class="cls-17" points="420.37 188.59 435.99 180.54 428.18 200.66 420.37 188.59"/>
  <path class="cls-2" d="m312.79,223.12c-.61-3.04-6.41-7.74-9.58-8.25-3.39-.55-11.55-.01-13.46,2.75-1.66,2.4-.97,9.17.78,11.5,2.13,2.84,9.96,6.19,13.46,5.25,3.52-.94,9.5-7.79,8.8-11.25Z"/>
  <path class="cls-2" d="m425.13,224.62c-1.04,2.39,2.34,8,4.64,9.34,2.79,1.64,9.91,1.83,13.04.91,3.07-.91,8.03-6.08,8.69-9.12.5-2.29-2.49-7.12-4.64-8.2-5.07-2.57-19.5,1.96-21.73,7.06Z"/>
  <ellipse class="cls-11" cx="332.5" cy="194.9" rx="6.33" ry="4.3"/>
  <ellipse class="cls-11" cx="409.51" cy="194.16" rx="5.8" ry="3.57"/>
  <path class="cls-4" d="m396.15,368.23c24.61,10.75,49.79,21.46,76.62,24.42,26.84,2.96,56.05-2.96,75.05-21.5,16.83-16.42,23.44-40.19,26.24-63.14,4.83-39.63.16-80.32-13.11-118.09-.2,0-.41,0-.9-.48-4.97,2.53-11.37.73-15.54-2.91-4.17-3.64-6.58-8.76-8.74-13.77-1.57-3.64-3.08-7.4-3.17-11.34-.09-3.94,1.51-8.14,4.97-10.21,4.62-2.77,11.01-.81,14.74,3.02,3.73,3.83,5.43,9.05,8.96,13.77-10.45-16.16-12.8-36.97-6.2-54.92,3.53-9.6,10.99-19.27,21.5-20.04,10.41-.76,19.53,7.93,22.52,17.6,2.99,9.67,1.32,20.03-.36,29.99-3.37,19.89-6.73,39.77-7.08,59.77,5.83,32.82,11.69,65.99,9.75,99.24-1.94,33.25-12.38,67.09-35.5,91.79-23.11,24.71-60.36,38.47-93.35,28.78-27.8-8.17-50.57-31.5-79.22-32.23-.59-7.94.9-16.02,2.8-19.74Z"/>
  <path class="cls-12" d="m327.27,90.27c-11.58,3.81-23.22,9.62-29.64,19.68-6.42,10.06-5.49,25.19,4.71,31.73,6.04,3.87,14.06,4.02,20.91,1.71,6.85-2.31,12.68-6.79,17.85-11.7,6.03-5.72,12.91-12.7,21.27-11.52,4.87.69,8.93,4.14,13.78,4.94,6.44,1.06,12.53-2.67,18.19-5.81s12.76-5.82,18.49-2.8c3.26,1.72,5.8,5.18,9.52,5.29,2.3.06,4.4-1.24,6.1-2.75,5.51-4.91,8.21-12.59,6.96-19.73-1.26-7.14-6.45-13.52-13.33-16.39-13.7-5.71-29.23,2.52-44.14,1.91-9.6-.39-18.67-4.47-28.22-5.4-9.56-.93-21.04,2.89-22.43,10.83Z"/>
  <path class="cls-18" d="m344.87,315.12c4.52-9.25,15.03-15.44,25.61-15.1,10.58.34,20.64,7.19,23.84,16.96"/>
  <path class="cls-18" d="m418.62,145.27c9.63,1.47,18.29,7.93,22.19,16.56"/>
  <path class="cls-18" d="m328.21,148.14c-11.59,1.61-22.43,7.81-29.46,16.85"/>
  <path class="cls-4" d="m292.73,413.7c-18.72,13.71-26.57,40.35-17.61,61.71,8.96,21.36,34.27,35.06,57.17,30.34,22.9-4.71,40.36-27.78,37.77-50.7-1.73,17.22,8.15,34.86,23.42,43.62,15.27,8.76,35.03,8.72,50.66.85,13.61-6.85,24.27-19.71,26.88-34.56,3.47-19.77-7.33-39.74-21.88-53.96-21.51-21.02-51.96-32.89-82.14-32.01-30.18.88-54.05,19.88-74.27,34.7Z"/>
  <path class="cls-8" d="m363.9,495.24c11.38-8.45,12.84-25.45,6.47-37.88-6.37-12.43-18.7-20.98-31.41-27.44-3.87-1.97-7.95-3.83-12.32-4.06s-9.11,1.53-11.17,5.26c-2.04,3.7-1.02,8.2.05,12.26,3.21,12.17,6.41,24.35,9.62,36.52,1.7,6.44,3.63,13.27,8.71,17.75,5.29,4.67,13.3,5.81,20.17,3.84,6.87-1.96,12.64-6.69,9.87-6.26Z"/>
  <path class="cls-8" d="m418.62,389.24c30.74,17.27,67.48,30.24,101.49,20.21,35.92-10.6,59.82-45.08,67.72-80.55,7.9-35.47,2.68-72.29-2.28-108.25-4.97-35.96-9.62-72.94-.67-108.18,1.91-7.53-.07-17.7,7-13.44,3.25,1.96,9.27,13.56,9.91,18.79,1.36,11.01-3.53,26.43-4.83,44.12-2.35,32.03,2.18,64.1,4.5,96.12,2.33,32.03,2.33,64.97-8.64,95.28-10.96,30.31-35.27,53.33-66.56,66.77-34.07,14.63-70.53-4.81-101.43-24.97,23.73,7.84,44.07,27.46,45.57,53.89-13.73-30.42-39.76-38.77-51.78-59.78Z"/>
  <path class="cls-4" d="m353.91,374.37c-28.12,10.86-56.9,21.67-87.57,24.66-30.67,2.99-64.05-2.99-85.77-21.71-19.24-16.58-26.79-40.58-29.99-63.76-5.52-40.03-.18-81.11,14.99-119.25.23,0,.46,0,1.02-.49,5.69,2.55,13,.74,17.76-2.94,4.77-3.68,7.52-8.84,9.99-13.91,1.79-3.67,3.52-7.47,3.62-11.45.1-3.98-1.73-8.22-5.69-10.31-5.28-2.8-12.58-.82-16.85,3.05-4.26,3.87-6.21,9.14-10.24,13.9,11.94-16.32,14.63-37.33,7.09-55.46-4.03-9.7-12.56-19.46-24.57-20.24-11.9-.77-22.32,8.01-25.73,17.77-3.41,9.76-1.51,20.23.41,30.28,3.85,20.08,7.69,40.17,8.09,60.36-6.67,33.15-13.36,66.64-11.14,100.22,2.21,33.58,14.15,67.75,40.57,92.7,26.42,24.95,68.98,38.85,106.67,29.06,31.77-8.25,57.79-31.81,90.53-32.55.68-8.02-1.03-16.18-3.2-19.94Z"/>
  <path class="cls-9" d="m272.84,471.01c6.63-31.65,35.06-41.7,52.79-62.44,7.03,31.79,39.36,98.12,39.36,98.12,0,0-47.67,1.09-55.57-2.02-8.95-3.52-18.09-7.16-25.34-13.34-7.25-6.18-12.25-15.49-11.24-20.31Z"/>
  <path class="cls-9" d="m321.61,419.35c-.35-11.88-2.6-23.7-6.64-34.92,4-1.93,7.99-3.85,11.99-5.78.17,10.66.34,21.32.51,31.98.03,1.93.04,3.96-.93,5.65-.97,1.69-3.28,2.82-4.93,3.07Z"/>
  <path class="cls-9" d="m412.85,413.89c-4.71-14.54-5.94-30.12-3.58-45.18,3.88,1.52,7.76,3.04,11.65,4.56-4.52,14.09-6.76,28.86-8.07,40.63Z"/>
  <path class="cls-1" d="m341.74,917.64c2.88.53,4.67,4.04,3.33,6.54-.71,1.33-2.74,2.23-3.8,1.13-.46-.48-.56-1.19-.6-1.84-.17-2.75.32-5.53,1.08-5.83Z"/>
  <path class="cls-4" d="m357.92,911.44c.03-.3.06-.6.11-.9,0-.2.03-.4.06-.61,0-.06,0-.12,0-.18-.02-.37.02-.7.08-1.02-2.37-83.44,63.8-246.27-7.89-275.47-15.41-6.28,15.21,84.94,6.28,101.91-33.26,63.19-38.02,109.76-40.34,169.67-.18,4.72-3.14,9.53-.92,13.73,3.56,6.77,13.73,6.29,21.19,3.9,6.29-2.01,13.45-4.56,19.43-2.75.43-2.26.98-4.05,1.67-6.86.11-.46.22-.95.33-1.43Z"/>
  <path class="cls-9" d="m347.93,501.75c20.9,5.18,44.5,3.67,63.98-4.08-1.53-3.23-6.43-4.89-10.93-4.88-4.5.01-8.8,1.31-13.11,2.29-14.55,3.32-30.46,3.09-44.84-.63-1.59,3.02-.09,6.81,3.44,8.66,3.52,1.84,8.71,1.55,1.46-1.35Z"/>
  <path class="cls-4" d="m351.91,934.76c-2.59,27.63-5.19,55.26-7.78,82.88-.51,5.4-1.37,11.37-6.92,15.02-5.55,3.65-17.11,2.03-17.79-4.54-.04-3.85-.08-7.71-.12-11.56-8.47-.82-14.86-6.38-17.12-12.32-2.26-5.94-1.25-12.24-.21-18.36,1.93-11.39,3.86-22.78,5.79-34.16.94-5.54,2.06-11.39,6.91-15.74,4.79-4.28,12.36-6.32,18.51-9.57,6.15-3.25,20.45-10,18.73,8.35Z"/>
  <path class="cls-8" d="m386.79,682.59c-1.68-9.91-4.73-8.37-15.12-8.63,20.08,85.64-46.75,271.7-34.45,358.7,5.96-1.82,16.49-103.17,17.68-108.58,1.13-5.14,2.2-10.15,3.21-15.03.03-.26.08-.51.15-.74,15.36-74.37,17.55-120.08,29.34-184.86,1.91-10.48.87-30.96-.81-40.87Z"/>
  <path class="cls-4" d="m420.92,614.82c-66.87,57.09,7.76,228.38,24.7,313.02.93,4.67,2.26,9.89,6.5,12.3,4.73,2.69,11.16.36,14.57-3.8,3.41-4.16,4.5-9.62,5.34-14.86,7.57-47.73,1.61-97.41-13.05-142.79,9.78-27.69,8.4-58.9-3.78-85.68-5.47-12.04-15.37-24.5-28.98-24.51-11.04,0,2.17-60.04-5.29-53.67Z"/>
  <path class="cls-8" d="m429.15,428.17c-7.13-3.96-9.44-9.17-16.34-4.84-3.55,2.23-12.23,7.39-13.83,11.18-3.26,7.73-5.79,15.75-7.57,23.92-1.52,6.98-2.4,14.58.88,20.96,2.35,4.58,4.59,10.17,8.69,13.41,5.23,4.14,13.71,6.34,20.16,4.39,7.12-2.15,9.56-10.59,10.32-17.77,1.87-17.69.35-35.71-2.31-51.25Z"/>
  <path class="cls-8" d="m471.03,937.05c2.25-67.51-26.2-135.64-10.04-201.47,5.08-20.68,14.42-40.25,20.06-60.8,5.64-20.55,7.3-43.18-2.63-62.27-2.65-5.1-19.75-36.07-14.89-39.49,4.86-3.41,25.51,25.28,28.95,29.96,16.05,21.82,20.9,50.48,12.84,75.84-8,25.17-18.24,48.1-26.45,73.21-10.61,32.46-5.78,63.57-3.92,98.57,1.79,33.93,8.87,70.92-3.92,86.44Z"/>
  <path class="cls-9" d="m386.91,682.57c22.53-3.74,35.91-35.23,52.23-50.94,18.13-17.44,25.73-59.47,25.73-59.47,0,0-33.87,21.74-46.41,26.51-6.68,2.54-28.06,5.96-28.06,5.96,0,0-22.21-5.3-29.59-7.17-12.47-3.17-52.23-15.2-52.23-15.2,0,0,30.57,80.34,78.21,100.34,3.02,1.27-3.22.54.12-.02Z"/>
  <path class="cls-9" d="m409.41,402.96c3.73,36.09-5.7,100.1-5.7,100.1,0,0,48.3,3.87,59.83-5.44,11.06-8.94,12.14-42.08,3.87-55.59-6.51-10.63-18.76-15.01-29.99-19.14-11.23-4.12-23.36-9.69-28.01-19.93Z"/>
  <path class="cls-8" d="m424.48,787.92c-2.67,6.19,3.09,14.13,10.02,13.83,6.93-.3,11.92-8.72,8.99-15.18-5.16,4.52-13.28,5.57-19.01,1.34Z"/>
  <path class="cls-8" d="m349.97,782.95c1.23,3.76,2.47,7.53,3.7,11.29,7.5.18,14.2-7.09,13.17-14.26-4.02,5.28-12.51,6.73-16.87,2.97Z"/>
  <path class="cls-8" d="m387.97,551.35c-4.45,8.45-4.27,19.03.48,27.33,7.1-8.26,6.79-21.58-.48-27.33Z"/>
  <path class="cls-3" d="m129.28,348.87c-.04-.64.92-.78,1.07-.15,5.39,23.48,27.87,45.16,57.49,59.85,33.17,16.45,75.36,21.39,107.53,3.19-4.52,12.46-19.79,12.99-33.11,15.94-13.04,2.88-26.57,3.38-39.69.84-29.14-5.64-42.14-10.85-62.67-30.74-16.73-16.2-29.67-32.43-30.63-48.93Z"/>
  <path class="cls-3" d="m151.37,238.08c2.88-15.8,5.76-31.59,8.64-47.39,18.04-.87,34.12-16.13,35.35-33.54,7.14,7.14.27,23.01-7.1,29.92-7.37,6.91-13.76,9.7-23.78,7.41-2,15.01-6.23,29.73-13.11,43.6Z"/>
  <path class="cls-8" d="m353.17,335.36c26.99,9.51,62.83-3.82,84.55-21.33,27.69-22.33,31.18-48.6,32.49-75.9,1.91-39.58-6.57-54.34-17.07-79.71-6.52-15.76-11.47-28.99-25.26-39.49,31.74,39.71,33.15,92.55,19.1,140.85-5.9,20.3-15.34,40.47-31.96,54.16-16.61,13.68-63.87,24.11-83.07,14.07,2.95,1.99,18.56,6.42,21.22,7.36Z"/>
  <path class="cls-5" d="m311.31,604.01c-18.91,22.23-21.26,56.23-5.59,80.7,9.19,14.34,23.43,24.98,33.93,38.45,10.5,13.47,16.94,32.52,8.02,47.02,7.31-18.73,5.38-40.61-5.12-57.86-6.58-10.81-16.19-19.7-22.51-30.66-13.44-23.32-10.05-51.93-8.73-77.65Z"/>
  <path class="cls-5" d="m137.64,109.88c4.22,34.76,3.98,70.03-.71,104.73-4.17,30.85-11.86,61.46-11.33,92.57s10.78,63.94,35.91,83.4c-23.77-23.11-30.99-58.02-29.37-90.56,1.62-32.54,10.84-64.25,15.07-96.56,4.23-32.32,2.91-67-9.57-93.58Z"/>
  <path class="cls-5" d="m326.7,578.09c15.85-15.76,23.33-39.01,19.51-60.68"/>
  <path class="cls-4" d="m452.37,924.9c2.19,31.05,4.38,62.09,6.57,93.14.43,6.07,1.16,12.77,5.85,16.87,4.69,4.1,14.46,2.28,15.02-5.1.03-4.33.07-8.66.1-12.99,7.15-.92,12.55-7.17,14.46-13.84,1.91-6.68,1.05-13.76.18-20.63-1.63-12.8-3.26-25.59-4.89-38.39-.79-6.22-1.74-12.8-5.84-17.68-4.05-4.81-10.44-7.1-15.64-10.76-5.2-3.66-17.27-11.24-15.82,9.38Z"/>
  <path class="cls-4" d="m347.73,901.6c-1.84,16.91-5.94,34.32-7.78,51.23-.6,5.54-1.97,12.11-7.36,14.2-4.71,1.83-10.25-1.13-12.81-5.34-2.55-4.21-2.84-9.3-2.97-14.17-1.25-45.42,5.36-91.03,19.47-134.4"/>
  <path class="cls-8" d="m494.07,999.25c2.78-6.76-.19-14.38-3.71-20.83-3.51-6.44-7.72-13.06-7.43-20.33.15-3.77,1.52-7.4,2.2-11.12,1.54-8.44-.65-17.44-5.93-24.35,3.83,1.16,6.71,4.35,8.34,7.87,1.63,3.52,2.19,7.4,2.73,11.22,2.31,16.25,4.62,32.5,6.93,48.76.3,2.14.6,4.37-.16,6.41-.75,2.03-2.92,3.76-5.12,3.32.22-.74.44-1.48,2.14-.96Z"/>
  <path class="cls-10" d="m393.92,85.57s-30.97-.76-39.09,7.39c-8.12,8.16-15.09,24.17-15.09,24.17l33.51-22.5,20.66-9.06Z"/>
  <path class="cls-10" d="m420.11,85.26s-30.97-.76-39.09,7.39c-8.12,8.16-7.23,18.15-7.23,18.15l33.51-22.5,12.8-3.04Z"/>
  <path class="cls-10" d="m354.56,87.13s-30.97-.76-39.09,7.39c-8.12,8.16-15.09,24.17-15.09,24.17l33.51-22.5,20.66-9.06Z"/>
</svg>